SplineFontDB: 3.0
FontName: PasseroOne-Regular
FullName: Passero One
FamilyName: Passero One
Weight: Regular
Copyright: Copyright (c) 2011, Sorkin Type Co (www.sorkintype.com)\nwith Reserved Font Names "Passero" and "Passero One"\n\nThis Font Software is licensed under the SIL Open Font License, Version 1.1. This license is copied below, and is also available with a FAQ at: http://scripts.sil.org/OFL
Version: 1.003
ItalicAngle: 0
UnderlinePosition: -103
UnderlineWidth: 102
Ascent: 1638
Descent: 410
LayerCount: 2
Layer: 0 1 "Back"  1
Layer: 1 1 "Fore"  0
XUID: [1021 631 1661839179 14533453]
FSType: 0
OS2Version: 3
OS2_WeightWidthSlopeOnly: 0
OS2_UseTypoMetrics: 1
CreationTime: 1313741640
ModificationTime: 1313788601
PfmFamily: 81
TTFWeight: 400
TTFWidth: 5
LineGap: 0
VLineGap: 0
Panose: 2 11 6 3 5 3 2 2 1 4
OS2TypoAscent: 1820
OS2TypoAOffset: 0
OS2TypoDescent: -618
OS2TypoDOffset: 0
OS2TypoLinegap: 0
OS2WinAscent: 1820
OS2WinAOffset: 0
OS2WinDescent: 618
OS2WinDOffset: 0
HheadAscent: 1820
HheadAOffset: 0
HheadDescent: -618
HheadDOffset: 0
OS2SubXSize: 0
OS2SubYSize: 0
OS2SubXOff: 0
OS2SubYOff: 0
OS2SupXSize: 0
OS2SupYSize: 0
OS2SupXOff: 0
OS2SupYOff: 0
OS2StrikeYSize: 0
OS2StrikeYPos: 0
OS2Vendor: 'STC '
OS2CodePages: 20000111.40000000
OS2UnicodeRanges: 800000af.00000002.00000000.00000000
MarkAttachClasses: 1
DEI: 91125
TtTable: prep
PUSHW_1
 511
SCANCTRL
PUSHB_1
 4
SVTCA[y-axis]
EndTTInstrs
ShortTable: maxp 16
  1
  0
  263
  208
  5
  0
  0
  1
  0
  0
  0
  0
  0
  0
  0
  0
EndShort

StartChar: .notdef
Encoding: 65536 -1 0
Width: 1710
Flags: W
LayerCount: 2
Fore
SplineSet
281 77 m 1,0,1
 249 122 249 122 223 193 c 128,-1,2
 197 264 197 264 178.5 342.5 c 128,-1,3
 160 421 160 421 149.5 496.5 c 128,-1,4
 139 572 139 572 139 626 c 0,5,6
 139 691 139 691 141.5 762.5 c 128,-1,7
 144 834 144 834 153 904 c 128,-1,8
 162 974 162 974 178.5 1039 c 128,-1,9
 195 1104 195 1104 223 1155 c 1,10,11
 256 1208 256 1208 310 1249.5 c 128,-1,12
 364 1291 364 1291 421 1318 c 0,13,14
 449 1331 449 1331 505 1346 c 128,-1,15
 561 1361 561 1361 631 1373 c 128,-1,16
 701 1385 701 1385 778 1393 c 128,-1,17
 855 1401 855 1401 926 1401 c 0,18,19
 989 1401 989 1401 1053.5 1393 c 128,-1,20
 1118 1385 1118 1385 1176.5 1372 c 128,-1,21
 1235 1359 1235 1359 1283 1342 c 128,-1,22
 1331 1325 1331 1325 1361 1308 c 1,23,24
 1415 1271 1415 1271 1454.5 1216.5 c 128,-1,25
 1494 1162 1494 1162 1520 1087 c 128,-1,26
 1546 1012 1546 1012 1559 914 c 128,-1,27
 1572 816 1572 816 1572 692 c 0,28,29
 1572 637 1572 637 1563 568.5 c 128,-1,30
 1554 500 1554 500 1538 427 c 128,-1,31
 1522 354 1522 354 1500 281.5 c 128,-1,32
 1478 209 1478 209 1452 147 c 128,-1,33
 1426 85 1426 85 1396.5 38 c 128,-1,34
 1367 -9 1367 -9 1336 -32 c 0,35,36
 1308 -52 1308 -52 1263 -66 c 128,-1,37
 1218 -80 1218 -80 1167.5 -88 c 128,-1,38
 1117 -96 1117 -96 1066.5 -100 c 128,-1,39
 1016 -104 1016 -104 977 -105 c 1,40,-1
 958 -105 l 2,41,42
 837 -105 837 -105 732.5 -88.5 c 128,-1,43
 628 -72 628 -72 542 -46 c 128,-1,44
 456 -20 456 -20 390 12.5 c 128,-1,45
 324 45 324 45 281 77 c 1,0,1
675 153 m 1,46,47
 678 175 678 175 686.5 206.5 c 128,-1,48
 695 238 695 238 707 273 c 128,-1,49
 719 308 719 308 732.5 344 c 128,-1,50
 746 380 746 380 759 413 c 128,-1,51
 772 446 772 446 783.5 472.5 c 128,-1,52
 795 499 795 499 802 515 c 1,53,-1
 826 527 l 1,54,55
 844 498 844 498 864 464.5 c 128,-1,56
 884 431 884 431 905.5 395.5 c 128,-1,57
 927 360 927 360 948.5 324.5 c 128,-1,58
 970 289 970 289 990 256 c 0,59,60
 1036 179 1036 179 1083 99 c 1,61,-1
 1282 245 l 1,62,63
 1271 265 1271 265 1250.5 294 c 128,-1,64
 1230 323 1230 323 1204 356.5 c 128,-1,65
 1178 390 1178 390 1149 425.5 c 128,-1,66
 1120 461 1120 461 1091 495 c 128,-1,67
 1062 529 1062 529 1035 559.5 c 128,-1,68
 1008 590 1008 590 987 613 c 1,69,-1
 1065 652 l 1,70,71
 1080 673 1080 673 1100 704.5 c 128,-1,72
 1120 736 1120 736 1141.5 773 c 128,-1,73
 1163 810 1163 810 1185 850.5 c 128,-1,74
 1207 891 1207 891 1225.5 930 c 128,-1,75
 1244 969 1244 969 1258 1003.5 c 128,-1,76
 1272 1038 1272 1038 1278 1064 c 1,77,-1
 1049 1140 l 1,78,79
 1042 1118 1042 1118 1029.5 1085.5 c 128,-1,80
 1017 1053 1017 1053 1002 1016 c 128,-1,81
 987 979 987 979 971 940.5 c 128,-1,82
 955 902 955 902 940.5 867.5 c 128,-1,83
 926 833 926 833 914 805 c 128,-1,84
 902 777 902 777 895 761 c 1,85,-1
 876 751 l 1,86,87
 858 780 858 780 838.5 813 c 128,-1,88
 819 846 819 846 798.5 880.5 c 128,-1,89
 778 915 778 915 757.5 948.5 c 128,-1,90
 737 982 737 982 719 1013 c 0,91,92
 676 1085 676 1085 632 1158 c 1,93,-1
 433 1013 l 1,94,95
 448 984 448 984 481 939.5 c 128,-1,96
 514 895 514 895 553.5 846.5 c 128,-1,97
 593 798 593 798 634.5 750.5 c 128,-1,98
 676 703 676 703 709 667 c 1,99,-1
 621 619 l 1,100,101
 597 587 597 587 570 540 c 128,-1,102
 543 493 543 493 518 436 c 128,-1,103
 493 379 493 379 472.5 315 c 128,-1,104
 452 251 452 251 443 187 c 1,105,-1
 675 153 l 1,46,47
EndSplineSet
EndChar

StartChar: a
Encoding: 97 97 5
Width: 914
Flags: W
LayerCount: 2
Fore
SplineSet
149 53 m 0,0,1
 136 58 136 58 126 76 c 128,-1,2
 116 94 116 94 109.5 120 c 128,-1,3
 103 146 103 146 99 176.5 c 128,-1,4
 95 207 95 207 92.5 237 c 128,-1,5
 90 267 90 267 89.5 293.5 c 128,-1,6
 89 320 89 320 90 338 c 0,7,8
 90 349 90 349 92 368.5 c 128,-1,9
 94 388 94 388 97.5 411 c 128,-1,10
 101 434 101 434 106 458.5 c 128,-1,11
 111 483 111 483 118 503.5 c 128,-1,12
 125 524 125 524 134.5 538.5 c 128,-1,13
 144 553 144 553 156 556 c 0,14,15
 250 581 250 581 354.5 592.5 c 128,-1,16
 459 604 459 604 562 615 c 1,17,-1
 558 756 l 1,18,19
 449 777 449 777 341.5 789.5 c 128,-1,20
 234 802 234 802 128 819 c 1,21,-1
 181 1038 l 1,22,-1
 207 1034 l 2,23,24
 282 1023 282 1023 350 1013 c 128,-1,25
 418 1003 418 1003 481.5 991 c 128,-1,26
 545 979 545 979 604 964.5 c 128,-1,27
 663 950 663 950 719 930 c 0,28,29
 741 922 741 922 754 911 c 128,-1,30
 767 900 767 900 774 887 c 128,-1,31
 781 874 781 874 783 860 c 128,-1,32
 785 846 785 846 785 833 c 2,33,-1
 789 285 l 1,34,-1
 576 264 l 1,35,-1
 570 435 l 1,36,37
 544 430 544 430 513 424.5 c 128,-1,38
 482 419 482 419 450 412.5 c 128,-1,39
 418 406 418 406 387 398.5 c 128,-1,40
 356 391 356 391 330 384 c 1,41,42
 325 360 325 360 322 331.5 c 128,-1,43
 319 303 319 303 319 274 c 0,44,45
 319 260 319 260 320 245.5 c 128,-1,46
 321 231 321 231 323 217 c 1,47,48
 424 194 424 194 533 179.5 c 128,-1,49
 642 165 642 165 758 152 c 2,50,-1
 840 143 l 1,51,-1
 795 -72 l 1,52,53
 727 -65 727 -65 643 -53.5 c 128,-1,54
 559 -42 559 -42 472 -26.5 c 128,-1,55
 385 -11 385 -11 301 9 c 128,-1,56
 217 29 217 29 149 53 c 0,0,1
EndSplineSet
EndChar

StartChar: b
Encoding: 98 98 6
Width: 995
Flags: W
LayerCount: 2
Fore
SplineSet
145 1427 m 1,0,-1
 387 1473 l 1,1,-1
 391 752 l 1,2,-1
 368 188 l 1,3,4
 378 187 378 187 387.5 187 c 128,-1,5
 397 187 397 187 408 187 c 0,6,7
 453 187 453 187 500 192.5 c 128,-1,8
 547 198 547 198 585 211 c 1,9,10
 614 317 614 317 629.5 426 c 128,-1,11
 645 535 645 535 645 656 c 0,12,13
 645 689 645 689 643.5 717.5 c 128,-1,14
 642 746 642 746 639 766 c 1,15,16
 620 772 620 772 590.5 777.5 c 128,-1,17
 561 783 561 783 532 788 c 0,18,19
 499 793 499 793 461 799 c 1,20,-1
 512 1022 l 1,21,22
 568 1013 568 1013 622 1003 c 0,23,24
 668 995 668 995 718.5 983.5 c 128,-1,25
 769 972 769 972 807 960 c 0,26,27
 844 948 844 948 860 925.5 c 128,-1,28
 876 903 876 903 881 868 c 0,29,30
 886 836 886 836 887.5 791 c 128,-1,31
 889 746 889 746 889 695 c 0,32,33
 889 642 889 642 887.5 589.5 c 128,-1,34
 886 537 886 537 883 494 c 0,35,36
 875 390 875 390 855 289.5 c 128,-1,37
 835 189 835 189 801 84 c 0,38,39
 793 59 793 59 782.5 42 c 128,-1,40
 772 25 772 25 749 19 c 0,41,42
 658 -6 658 -6 559 -16.5 c 128,-1,43
 460 -27 460 -27 351 -27 c 0,44,45
 302 -27 302 -27 252 -25.5 c 128,-1,46
 202 -24 202 -24 148 -20 c 1,47,-1
 145 1427 l 1,0,-1
EndSplineSet
EndChar

StartChar: c
Encoding: 99 99 7
Width: 799
Flags: W
LayerCount: 2
Fore
SplineSet
136 131 m 0,0,1
 131 165 131 165 127.5 205 c 128,-1,2
 124 245 124 245 121.5 286 c 128,-1,3
 119 327 119 327 117.5 367 c 128,-1,4
 116 407 116 407 116 442 c 0,5,6
 116 497 116 497 118.5 552.5 c 128,-1,7
 121 608 121 608 125.5 659.5 c 128,-1,8
 130 711 130 711 136 757.5 c 128,-1,9
 142 804 142 804 149 840 c 0,10,11
 154 867 154 867 160 885 c 128,-1,12
 166 903 166 903 175 914 c 128,-1,13
 184 925 184 925 196.5 932 c 128,-1,14
 209 939 209 939 227 944 c 0,15,16
 264 955 264 955 325.5 966.5 c 128,-1,17
 387 978 387 978 455.5 988.5 c 128,-1,18
 524 999 524 999 590.5 1008 c 128,-1,19
 657 1017 657 1017 704 1024 c 1,20,-1
 739 799 l 1,21,22
 711 796 711 796 661.5 791 c 128,-1,23
 612 786 612 786 559 779.5 c 128,-1,24
 506 773 506 773 459 766.5 c 128,-1,25
 412 760 412 760 389 754 c 1,26,27
 384 734 384 734 379.5 692.5 c 128,-1,28
 375 651 375 651 370.5 604.5 c 128,-1,29
 366 558 366 558 363.5 513 c 128,-1,30
 361 468 361 468 361 440 c 0,31,32
 361 363 361 363 363.5 309 c 128,-1,33
 366 255 366 255 371 223 c 1,34,-1
 753 152 l 1,35,-1
 694 -63 l 1,36,37
 657 -57 657 -57 611 -48.5 c 128,-1,38
 565 -40 565 -40 516.5 -30 c 128,-1,39
 468 -20 468 -20 419 -9.5 c 128,-1,40
 370 1 370 1 327.5 11 c 128,-1,41
 285 21 285 21 251.5 30.5 c 128,-1,42
 218 40 218 40 200 47 c 0,43,44
 173 56 173 56 157 76 c 128,-1,45
 141 96 141 96 136 131 c 0,0,1
EndSplineSet
EndChar

StartChar: d
Encoding: 100 100 8
Width: 994
Flags: W
LayerCount: 2
Fore
SplineSet
134 135 m 1,0,1
 130 172 130 172 127 213.5 c 128,-1,2
 124 255 124 255 121.5 297.5 c 128,-1,3
 119 340 119 340 118 381.5 c 128,-1,4
 117 423 117 423 117 459 c 0,5,6
 117 559 117 559 127 660.5 c 128,-1,7
 137 762 137 762 158 872 c 0,8,9
 163 897 163 897 174 913.5 c 128,-1,10
 185 930 185 930 208 938 c 1,11,12
 256 950 256 950 308 962.5 c 128,-1,13
 360 975 360 975 413 985.5 c 128,-1,14
 466 996 466 996 518.5 1005 c 128,-1,15
 571 1014 571 1014 619 1020 c 1,16,-1
 619 1430 l 1,17,-1
 851 1473 l 1,18,-1
 857 1012 l 1,19,-1
 836 309 l 1,20,-1
 625 289 l 1,21,-1
 617 803 l 1,22,23
 589 801 589 801 558 796 c 128,-1,24
 527 791 527 791 496.5 784.5 c 128,-1,25
 466 778 466 778 438.5 770 c 128,-1,26
 411 762 411 762 390 754 c 1,27,28
 384 717 384 717 376 651 c 128,-1,29
 368 585 368 585 364 504 c 0,30,31
 361 444 361 444 361 389 c 0,32,33
 361 341 361 341 363 301.5 c 128,-1,34
 365 262 365 262 369 233 c 1,35,36
 434 216 434 216 502 204 c 128,-1,37
 570 192 570 192 638 182 c 128,-1,38
 706 172 706 172 773.5 163 c 128,-1,39
 841 154 841 154 906 143 c 1,40,-1
 844 -72 l 1,41,42
 758 -58 758 -58 676 -45.5 c 128,-1,43
 594 -33 594 -33 513.5 -19.5 c 128,-1,44
 433 -6 433 -6 354 10.5 c 128,-1,45
 275 27 275 27 195 49 c 1,46,47
 166 55 166 55 153 77.5 c 128,-1,48
 140 100 140 100 134 135 c 1,0,1
EndSplineSet
EndChar

StartChar: e
Encoding: 101 101 9
Width: 948
Flags: W
LayerCount: 2
Fore
SplineSet
118 666 m 2,0,1
 118 681 118 681 118.5 704.5 c 128,-1,2
 119 728 119 728 122 751 c 128,-1,3
 125 774 125 774 131 794 c 128,-1,4
 137 814 137 814 149 823 c 0,5,6
 174 842 174 842 209 863.5 c 128,-1,7
 244 885 244 885 286 906 c 128,-1,8
 328 927 328 927 373.5 946 c 128,-1,9
 419 965 419 965 463 980 c 128,-1,10
 507 995 507 995 548 1003.5 c 128,-1,11
 589 1012 589 1012 622 1012 c 0,12,13
 650 1012 650 1012 679 1007.5 c 128,-1,14
 708 1003 708 1003 732 993 c 128,-1,15
 756 983 756 983 773 966.5 c 128,-1,16
 790 950 790 950 794 926 c 0,17,18
 797 907 797 907 802.5 866 c 128,-1,19
 808 825 808 825 813.5 763 c 128,-1,20
 819 701 819 701 823 617 c 128,-1,21
 827 533 827 533 827 428 c 2,22,-1
 827 369 l 1,23,-1
 348 363 l 1,24,-1
 348 233 l 1,25,26
 402 220 402 220 460 210 c 128,-1,27
 518 200 518 200 579.5 190.5 c 128,-1,28
 641 181 641 181 706.5 170.5 c 128,-1,29
 772 160 772 160 841 147 c 1,30,-1
 782 -72 l 1,31,32
 706 -60 706 -60 621 -42 c 128,-1,33
 536 -24 536 -24 455.5 -4 c 128,-1,34
 375 16 375 16 307.5 35 c 128,-1,35
 240 54 240 54 198 67 c 0,36,37
 167 77 167 77 146.5 96 c 128,-1,38
 126 115 126 115 125 150 c 2,39,-1
 118 666 l 2,0,1
602 563 m 1,40,-1
 602 584 l 2,41,42
 602 638 602 638 596.5 688 c 128,-1,43
 591 738 591 738 583 782 c 1,44,45
 568 782 568 782 545 780.5 c 128,-1,46
 522 779 522 779 508 777 c 1,47,48
 495 774 495 774 471 767 c 128,-1,49
 447 760 447 760 422 751 c 128,-1,50
 397 742 397 742 375 732 c 128,-1,51
 353 722 353 722 344 715 c 1,52,-1
 344 535 l 1,53,-1
 602 563 l 1,40,-1
EndSplineSet
EndChar

StartChar: f
Encoding: 102 102 10
Width: 597
Flags: W
LayerCount: 2
Fore
SplineSet
130 -16 m 1,0,1
 125 205 125 205 120.5 373.5 c 128,-1,2
 116 542 116 542 113 666.5 c 128,-1,3
 110 791 110 791 108 876 c 128,-1,4
 106 961 106 961 104.5 1016.5 c 128,-1,5
 103 1072 103 1072 102.5 1102 c 128,-1,6
 102 1132 102 1132 101.5 1146 c 128,-1,7
 101 1160 101 1160 101 1162.5 c 128,-1,8
 101 1165 101 1165 101 1165 c 2,9,10
 101 1186 101 1186 109.5 1204 c 128,-1,11
 118 1222 118 1222 133.5 1241 c 128,-1,12
 149 1260 149 1260 172 1283 c 128,-1,13
 195 1306 195 1306 224 1339 c 2,14,-1
 347 1477 l 1,15,-1
 506 1309 l 1,16,-1
 345 1130 l 1,17,-1
 355 942 l 1,18,-1
 562 985 l 1,19,-1
 584 758 l 1,20,-1
 355 741 l 1,21,-1
 343 0 l 1,22,-1
 130 -16 l 1,23,-1
 130 -16 l 1,0,1
EndSplineSet
EndChar

StartChar: g
Encoding: 103 103 11
Width: 977
Flags: W
LayerCount: 2
Fore
SplineSet
200 78 m 0,0,1
 153 191 153 191 131 332.5 c 128,-1,2
 109 474 109 474 109 638 c 0,3,4
 109 688 109 688 111 732.5 c 128,-1,5
 113 777 113 777 122 836 c 0,6,7
 127 865 127 865 138 884.5 c 128,-1,8
 149 904 149 904 181 914 c 0,9,10
 258 937 258 937 340.5 956.5 c 128,-1,11
 423 976 423 976 508 993 c 128,-1,12
 593 1010 593 1010 677.5 1025 c 128,-1,13
 762 1040 762 1040 843 1055 c 1,14,-1
 892 825 l 1,15,16
 818 813 818 813 735 800.5 c 128,-1,17
 652 788 652 788 577 776 c 128,-1,18
 502 764 502 764 444 753 c 128,-1,19
 386 742 386 742 361 733 c 1,20,21
 351 693 351 693 351 622 c 0,22,23
 351 575 351 575 353.5 522 c 128,-1,24
 356 469 356 469 362.5 414.5 c 128,-1,25
 369 360 369 360 379.5 308 c 128,-1,26
 390 256 390 256 406 211 c 1,27,28
 453 211 453 211 510.5 213 c 128,-1,29
 568 215 568 215 613 221 c 1,30,-1
 609 647 l 1,31,-1
 832 688 l 1,32,33
 836 495 836 495 838.5 358.5 c 128,-1,34
 841 222 841 222 843 129 c 128,-1,35
 845 36 845 36 846 -19 c 128,-1,36
 847 -74 847 -74 847.5 -103.5 c 128,-1,37
 848 -133 848 -133 848 -142.5 c 128,-1,38
 848 -152 848 -152 848 -154 c 0,39,40
 848 -182 848 -182 827.5 -208 c 128,-1,41
 807 -234 807 -234 772 -259 c 0,42,43
 661 -337 661 -337 545.5 -408.5 c 128,-1,44
 430 -480 430 -480 299 -549 c 1,45,-1
 177 -330 l 1,46,47
 199 -320 199 -320 250 -296.5 c 128,-1,48
 301 -273 301 -273 365.5 -241.5 c 128,-1,49
 430 -210 430 -210 500.5 -174 c 128,-1,50
 571 -138 571 -138 632 -103 c 1,51,-1
 617 125 l 1,52,-1
 474 0 l 1,53,-1
 308 0 l 2,54,55
 280 0 280 0 262.5 6 c 128,-1,56
 245 12 245 12 233 22.5 c 128,-1,57
 221 33 221 33 214 47.5 c 128,-1,58
 207 62 207 62 200 78 c 0,0,1
EndSplineSet
EndChar

StartChar: h
Encoding: 104 104 12
Width: 1022
Flags: W
LayerCount: 2
Fore
SplineSet
153 0 m 1,0,1
 150 385 150 385 135 698 c 1,2,3
 133 778 133 778 131.5 863.5 c 128,-1,4
 130 949 130 949 130 1040 c 256,5,6
 130 1131 130 1131 131.5 1227 c 128,-1,7
 133 1323 133 1323 135 1425 c 1,8,-1
 374 1475 l 1,9,-1
 385 842 l 1,10,-1
 544 983 l 1,11,-1
 766 983 l 2,12,13
 784 983 784 983 805.5 972 c 128,-1,14
 827 961 827 961 845.5 944 c 128,-1,15
 864 927 864 927 877 906 c 128,-1,16
 890 885 890 885 891 866 c 0,17,18
 893 826 893 826 893 786 c 128,-1,19
 893 746 893 746 893 708 c 0,20,21
 893 646 893 646 892 595.5 c 128,-1,22
 891 545 891 545 889 516 c 2,23,-1
 858 -35 l 1,24,-1
 636 -72 l 1,25,-1
 645 555 l 2,26,27
 645 609 645 609 643 664.5 c 128,-1,28
 641 720 641 720 633 764 c 1,29,-1
 563 764 l 2,30,31
 526 764 526 764 499 758.5 c 128,-1,32
 472 753 472 753 458 748 c 0,33,34
 437 741 437 741 419.5 734 c 128,-1,35
 402 727 402 727 385 719 c 1,36,-1
 370 12 l 1,37,-1
 153 0 l 1,38,-1
 153 0 l 1,0,1
EndSplineSet
EndChar

StartChar: i
Encoding: 105 105 13
Width: 529
Flags: W
LayerCount: 2
Fore
SplineSet
147 1197 m 1,0,1
 153 1228 153 1228 156 1266 c 128,-1,2
 159 1304 159 1304 161 1342.5 c 128,-1,3
 163 1381 163 1381 163.5 1416.5 c 128,-1,4
 164 1452 164 1452 164 1478 c 1,5,-1
 399 1505 l 1,6,7
 405 1484 405 1484 407.5 1457.5 c 128,-1,8
 410 1431 410 1431 410 1402 c 0,9,10
 410 1369 410 1369 407 1335.5 c 128,-1,11
 404 1302 404 1302 399.5 1273 c 128,-1,12
 395 1244 395 1244 389 1221 c 128,-1,13
 383 1198 383 1198 377 1187 c 1,14,-1
 147 1197 l 1,0,1
137 969 m 1,15,-1
 391 1001 l 1,16,17
 393 960 393 960 394.5 919 c 128,-1,18
 396 878 396 878 396 832 c 0,19,20
 396 758 396 758 393 664 c 2,21,-1
 370 0 l 1,22,-1
 157 -18 l 1,23,-1
 137 969 l 1,15,-1
EndSplineSet
EndChar

StartChar: j
Encoding: 106 106 14
Width: 524
Flags: W
LayerCount: 2
Fore
SplineSet
148 1197 m 1,0,1
 153 1228 153 1228 156.5 1266 c 128,-1,2
 160 1304 160 1304 161.5 1342.5 c 128,-1,3
 163 1381 163 1381 163.5 1416.5 c 128,-1,4
 164 1452 164 1452 164 1478 c 1,5,-1
 400 1505 l 1,6,7
 405 1484 405 1484 407.5 1458 c 128,-1,8
 410 1432 410 1432 410 1403 c 0,9,10
 410 1370 410 1370 407 1336.5 c 128,-1,11
 404 1303 404 1303 399.5 1273.5 c 128,-1,12
 395 1244 395 1244 389 1221 c 128,-1,13
 383 1198 383 1198 377 1187 c 1,14,-1
 148 1197 l 1,0,1
138 967 m 1,15,-1
 390 999 l 1,16,17
 392 958 392 958 393.5 917.5 c 128,-1,18
 395 877 395 877 395 831 c 0,19,20
 395 758 395 758 392 664 c 1,21,-1
 380 -188 l 1,22,23
 378 -222 378 -222 362 -265 c 128,-1,24
 346 -308 346 -308 296 -352 c 2,25,-1
 68 -551 l 1,26,-1
 -87 -372 l 1,27,-1
 158 -178 l 1,28,-1
 138 967 l 1,15,-1
EndSplineSet
EndChar

StartChar: k
Encoding: 107 107 15
Width: 975
Flags: W
LayerCount: 2
Fore
SplineSet
130 1427 m 1,0,-1
 372 1473 l 1,1,-1
 376 812 l 1,2,-1
 370 611 l 1,3,-1
 404 604 l 1,4,-1
 742 1040 l 1,5,-1
 919 903 l 1,6,7
 883 849 883 849 840.5 801.5 c 128,-1,8
 798 754 798 754 755 709 c 0,9,10
 711 664 711 664 669 626 c 128,-1,11
 627 588 627 588 585 553 c 1,12,13
 598 541 598 541 626 512 c 128,-1,14
 654 483 654 483 690 443 c 128,-1,15
 726 403 726 403 766.5 355.5 c 128,-1,16
 807 308 807 308 845.5 258.5 c 128,-1,17
 884 209 884 209 917 161.5 c 128,-1,18
 950 114 950 114 972 74 c 1,19,-1
 775 -66 l 1,20,21
 707 36 707 36 643 132 c 0,22,23
 616 173 616 173 586.5 216.5 c 128,-1,24
 557 260 557 260 529.5 302.5 c 128,-1,25
 502 345 502 345 476.5 383.5 c 128,-1,26
 451 422 451 422 431 453 c 1,27,-1
 362 420 l 1,28,-1
 345 8 l 1,29,-1
 134 -8 l 1,30,-1
 130 1427 l 1,0,-1
EndSplineSet
EndChar

StartChar: l
Encoding: 108 108 16
Width: 502
Flags: W
LayerCount: 2
Fore
SplineSet
128 1427 m 1,0,-1
 376 1473 l 1,1,-1
 383 752 l 1,2,-1
 352 0 l 1,3,-1
 141 -18 l 1,4,-1
 128 1427 l 1,0,-1
EndSplineSet
EndChar

StartChar: m
Encoding: 109 109 17
Width: 1550
Flags: W
LayerCount: 2
Fore
SplineSet
137 956 m 1,0,-1
 350 983 l 1,1,-1
 385 831 l 1,2,-1
 561 983 l 1,3,-1
 759 983 l 2,4,5
 778 983 778 983 797.5 971.5 c 128,-1,6
 817 960 817 960 843 934 c 0,7,8
 871 906 871 906 882 883.5 c 128,-1,9
 893 861 893 861 895 850 c 2,10,-1
 897 834 l 1,11,-1
 1069 983 l 1,12,-1
 1310 983 l 2,13,14
 1325 983 1325 983 1340 972 c 128,-1,15
 1355 961 1355 961 1374 945 c 1,16,-1
 1378 942 l 2,17,18
 1394 929 1394 929 1407.5 911 c 128,-1,19
 1421 893 1421 893 1421 870 c 2,20,-1
 1386 -2 l 1,21,-1
 1163 -20 l 1,22,-1
 1159 747 l 1,23,24
 1153 749 1153 749 1140.5 750 c 128,-1,25
 1128 751 1128 751 1116 751 c 0,26,27
 1082 751 1082 751 1045.5 746 c 128,-1,28
 1009 741 1009 741 977 729 c 2,29,-1
 907 703 l 1,30,-1
 876 -2 l 1,31,-1
 661 -20 l 1,32,-1
 657 747 l 1,33,34
 651 749 651 749 638.5 750 c 128,-1,35
 626 751 626 751 614 751 c 0,36,37
 580 751 580 751 540.5 746 c 128,-1,38
 501 741 501 741 469 729 c 2,39,-1
 401 705 l 1,40,-1
 374 6 l 1,41,-1
 155 -8 l 1,42,-1
 137 956 l 1,0,-1
EndSplineSet
EndChar

StartChar: n
Encoding: 110 110 18
Width: 1046
Flags: W
LayerCount: 2
Fore
SplineSet
137 956 m 1,0,-1
 350 983 l 1,1,-1
 385 831 l 1,2,-1
 561 983 l 1,3,-1
 807 983 l 2,4,5
 822 983 822 983 838 971 c 128,-1,6
 854 959 854 959 874 942 c 0,7,8
 894 926 894 926 905.5 908 c 128,-1,9
 917 890 917 890 917 870 c 2,10,-1
 882 -2 l 1,11,-1
 659 -20 l 1,12,-1
 655 752 l 1,13,14
 649 754 649 754 636.5 755 c 128,-1,15
 624 756 624 756 612 756 c 0,16,17
 601 756 601 756 583.5 754 c 128,-1,18
 566 752 566 752 546 748.5 c 128,-1,19
 526 745 526 745 505.5 740 c 128,-1,20
 485 735 485 735 469 729 c 2,21,-1
 395 702 l 1,22,-1
 368 8 l 1,23,-1
 155 -8 l 1,24,-1
 137 956 l 1,0,-1
EndSplineSet
EndChar

StartChar: o
Encoding: 111 111 19
Width: 989
Flags: W
LayerCount: 2
Fore
SplineSet
172 100 m 0,0,1
 155 194 155 194 147 289.5 c 128,-1,2
 139 385 139 385 139 479 c 0,3,4
 139 517 139 517 140 554 c 128,-1,5
 141 591 141 591 143 628 c 1,6,-1
 370 673 l 1,7,-1
 370 592 l 2,8,9
 370 496 370 496 375 388 c 128,-1,10
 380 280 380 280 395 174 c 1,11,-1
 592 184 l 1,12,13
 617 283 617 283 631.5 390 c 128,-1,14
 646 497 646 497 646 602 c 0,15,16
 646 649 646 649 643 684 c 128,-1,17
 640 719 640 719 635 748 c 1,18,19
 623 754 623 754 579.5 759.5 c 128,-1,20
 536 765 536 765 476 769 c 128,-1,21
 416 773 416 773 346 775.5 c 128,-1,22
 276 778 276 778 211 778 c 0,23,24
 182 778 182 778 160.5 778 c 128,-1,25
 139 778 139 778 114 776 c 1,26,-1
 157 1008 l 1,27,28
 174 1009 174 1009 188.5 1010.5 c 128,-1,29
 203 1012 203 1012 217.5 1012.5 c 128,-1,30
 232 1013 232 1013 247.5 1013.5 c 128,-1,31
 263 1014 263 1014 282 1014 c 0,32,33
 401 1014 401 1014 525.5 1000.5 c 128,-1,34
 650 987 650 987 766 961 c 0,35,36
 794 954 794 954 812 944.5 c 128,-1,37
 830 935 830 935 841 922.5 c 128,-1,38
 852 910 852 910 857.5 894.5 c 128,-1,39
 863 879 863 879 866 860 c 0,40,41
 875 804 875 804 879.5 751.5 c 128,-1,42
 884 699 884 699 884 629 c 0,43,44
 884 486 884 486 861.5 348 c 128,-1,45
 839 210 839 210 791 63 c 0,46,47
 783 37 783 37 772.5 19 c 128,-1,48
 762 1 762 1 739 -4 c 0,49,50
 710 -10 710 -10 675 -15 c 128,-1,51
 640 -20 640 -20 605.5 -23.5 c 128,-1,52
 571 -27 571 -27 539.5 -29 c 128,-1,53
 508 -31 508 -31 487 -31 c 0,54,55
 476 -31 476 -31 444 -30.5 c 128,-1,56
 412 -30 412 -30 374 -28 c 128,-1,57
 336 -26 336 -26 298.5 -22 c 128,-1,58
 261 -18 261 -18 239 -10 c 0,59,60
 204 2 204 2 191.5 32 c 128,-1,61
 179 62 179 62 172 100 c 0,0,1
EndSplineSet
EndChar

StartChar: p
Encoding: 112 112 20
Width: 971
Flags: W
LayerCount: 2
Fore
SplineSet
369 -508 m 1,0,-1
 158 -522 l 1,1,-1
 150 625 l 1,2,-1
 383 670 l 1,3,-1
 393 178 l 1,4,-1
 575 213 l 1,5,6
 598 307 598 307 614.5 403.5 c 128,-1,7
 631 500 631 500 631 602 c 0,8,9
 631 647 631 647 628.5 684.5 c 128,-1,10
 626 722 626 722 621 750 c 1,11,12
 610 756 610 756 568.5 761 c 128,-1,13
 527 766 527 766 469.5 770 c 128,-1,14
 412 774 412 774 344 776 c 128,-1,15
 276 778 276 778 212 778 c 0,16,17
 180 778 180 778 151.5 778 c 128,-1,18
 123 778 123 778 97 776 c 1,19,-1
 141 1008 l 1,20,21
 167 1010 167 1010 196 1011.5 c 128,-1,22
 225 1013 225 1013 257 1013 c 0,23,24
 315 1013 315 1013 386.5 1009 c 128,-1,25
 458 1005 458 1005 530.5 997.5 c 128,-1,26
 603 990 603 990 670.5 978.5 c 128,-1,27
 738 967 738 967 788 952 c 0,28,29
 825 941 825 941 841.5 918 c 128,-1,30
 858 895 858 895 864 860 c 0,31,32
 869 830 869 830 874 784 c 128,-1,33
 879 738 879 738 879 669 c 0,34,35
 879 521 879 521 853.5 378 c 128,-1,36
 828 235 828 235 781 90 c 0,37,38
 773 65 773 65 762.5 46.5 c 128,-1,39
 752 28 752 28 729 25 c 2,40,-1
 387 -20 l 1,41,-1
 369 -508 l 1,0,-1
EndSplineSet
EndChar

StartChar: q
Encoding: 113 113 21
Width: 966
Flags: W
LayerCount: 2
Fore
SplineSet
193 78 m 0,0,1
 178 113 178 113 162 174 c 128,-1,2
 146 235 146 235 132.5 312.5 c 128,-1,3
 119 390 119 390 110.5 479.5 c 128,-1,4
 102 569 102 569 102 662 c 0,5,6
 102 711 102 711 104.5 755 c 128,-1,7
 107 799 107 799 115 856 c 0,8,9
 120 885 120 885 131 905 c 128,-1,10
 142 925 142 925 174 935 c 0,11,12
 323 979 323 979 484 1011 c 128,-1,13
 645 1043 645 1043 803 1071 c 2,14,-1
 825 1075 l 1,15,-1
 874 848 l 1,16,17
 686 811 686 811 557.5 792.5 c 128,-1,18
 429 774 429 774 372 756 c 1,19,20
 368 741 368 741 365 720 c 128,-1,21
 362 699 362 699 360 674 c 128,-1,22
 358 649 358 649 357 620.5 c 128,-1,23
 356 592 356 592 356 563 c 0,24,25
 356 525 356 525 358.5 477.5 c 128,-1,26
 361 430 361 430 366.5 381.5 c 128,-1,27
 372 333 372 333 381 287 c 128,-1,28
 390 241 390 241 403 205 c 1,29,30
 450 194 450 194 504.5 187.5 c 128,-1,31
 559 181 559 181 604 178 c 1,32,-1
 614 700 l 1,33,-1
 850 690 l 1,34,-1
 819 -510 l 1,35,-1
 610 -524 l 1,36,-1
 602 -37 l 1,37,-1
 301 0 l 2,38,39
 272 4 272 4 254.5 10.5 c 128,-1,40
 237 17 237 17 225.5 26.5 c 128,-1,41
 214 36 214 36 207 49 c 128,-1,42
 200 62 200 62 193 78 c 0,0,1
EndSplineSet
EndChar

StartChar: r
Encoding: 114 114 22
Width: 702
Flags: W
LayerCount: 2
Fore
SplineSet
137 776 m 1,0,-1
 135 961 l 1,1,-1
 348 983 l 1,2,-1
 383 831 l 1,3,-1
 536 999 l 1,4,-1
 655 999 l 1,5,-1
 705 765 l 1,6,7
 624 747 624 747 548.5 731 c 128,-1,8
 473 715 473 715 393 696 c 1,9,-1
 379 12 l 1,10,-1
 153 -8 l 1,11,-1
 137 776 l 1,0,-1
EndSplineSet
EndChar

StartChar: s
Encoding: 115 115 23
Width: 836
Flags: W
LayerCount: 2
Fore
SplineSet
95 160 m 1,0,1
 210 167 210 167 309 173 c 128,-1,2
 408 179 408 179 508 193 c 1,3,-1
 515 319 l 1,4,-1
 164 457 l 2,5,6
 133 469 133 469 117 503.5 c 128,-1,7
 101 538 101 538 101 575 c 0,8,9
 101 578 101 578 101.5 583.5 c 128,-1,10
 102 589 102 589 104.5 610.5 c 128,-1,11
 107 632 107 632 112 676 c 128,-1,12
 117 720 117 720 126 799 c 0,13,14
 130 831 130 831 142.5 852.5 c 128,-1,15
 155 874 155 874 171.5 888 c 128,-1,16
 188 902 188 902 207 910.5 c 128,-1,17
 226 919 226 919 242 925 c 0,18,19
 253 929 253 929 281 936.5 c 128,-1,20
 309 944 309 944 347 953 c 128,-1,21
 385 962 385 962 430 972 c 128,-1,22
 475 982 475 982 520 991.5 c 128,-1,23
 565 1001 565 1001 607 1009.5 c 128,-1,24
 649 1018 649 1018 682 1024 c 1,25,-1
 728 795 l 1,26,-1
 338 737 l 1,27,-1
 322 641 l 1,28,-1
 691 469 l 2,29,30
 704 463 704 463 715.5 453.5 c 128,-1,31
 727 444 727 444 735 429.5 c 128,-1,32
 743 415 743 415 747 395.5 c 128,-1,33
 751 376 751 376 748 350 c 2,34,-1
 721 109 l 2,35,36
 718 84 718 84 705 66.5 c 128,-1,37
 692 49 692 49 673.5 37 c 128,-1,38
 655 25 655 25 634.5 17.5 c 128,-1,39
 614 10 614 10 596 6 c 0,40,41
 552 -6 552 -6 490.5 -17 c 128,-1,42
 429 -28 429 -28 363.5 -37.5 c 128,-1,43
 298 -47 298 -47 234.5 -54 c 128,-1,44
 171 -61 171 -61 123 -63 c 1,45,-1
 95 160 l 1,0,1
EndSplineSet
EndChar

StartChar: t
Encoding: 116 116 24
Width: 714
Flags: W
LayerCount: 2
Fore
SplineSet
135 1221 m 1,0,-1
 379 1268 l 1,1,-1
 379 954 l 1,2,-1
 630 1001 l 1,3,-1
 649 774 l 1,4,-1
 383 754 l 1,5,-1
 364 213 l 1,6,7
 403 201 403 201 439.5 191 c 128,-1,8
 476 181 476 181 511 172.5 c 128,-1,9
 546 164 546 164 582 155.5 c 128,-1,10
 618 147 618 147 657 137 c 1,11,-1
 604 -72 l 1,12,13
 499 -49 499 -49 405 -22.5 c 128,-1,14
 311 4 311 4 215 41 c 0,15,16
 175 56 175 56 161 79.5 c 128,-1,17
 147 103 147 103 147 131 c 2,18,-1
 135 1221 l 1,0,-1
EndSplineSet
EndChar

StartChar: u
Encoding: 117 117 25
Width: 1022
Flags: W
LayerCount: 2
Fore
SplineSet
185 62 m 0,0,1
 165 84 165 84 155 108.5 c 128,-1,2
 145 133 145 133 144 153 c 2,3,-1
 124 975 l 1,4,-1
 358 1000 l 1,5,-1
 382 226 l 1,6,7
 392 221 392 221 404 217 c 0,8,9
 415 214 415 214 429 211.5 c 128,-1,10
 443 209 443 209 461 209 c 0,11,12
 497 209 497 209 544 227.5 c 128,-1,13
 591 246 591 246 641 270 c 1,14,-1
 664 985 l 1,15,-1
 895 985 l 1,16,-1
 880 10 l 1,17,-1
 714 -10 l 1,18,-1
 671 150 l 1,19,-1
 462 2 l 1,20,-1
 257 10 l 1,21,22
 241 12 241 12 221 28.5 c 128,-1,23
 201 45 201 45 185 62 c 0,0,1
EndSplineSet
EndChar

StartChar: v
Encoding: 118 118 26
Width: 966
Flags: W
LayerCount: 2
Fore
SplineSet
332 -6 m 1,0,1
 301 105 301 105 265 228.5 c 128,-1,2
 229 352 229 352 191.5 476.5 c 128,-1,3
 154 601 154 601 117 721.5 c 128,-1,4
 80 842 80 842 49 948 c 1,5,-1
 313 1012 l 1,6,-1
 446 403 l 1,7,-1
 469 186 l 1,8,-1
 522 190 l 1,9,-1
 535 246 l 2,10,11
 558 345 558 345 580.5 444.5 c 128,-1,12
 603 544 603 544 620 645 c 2,13,-1
 682 999 l 1,14,-1
 937 971 l 1,15,16
 911 846 911 846 881.5 727.5 c 128,-1,17
 852 609 852 609 817 491 c 128,-1,18
 782 373 782 373 742 253 c 128,-1,19
 702 133 702 133 655 4 c 1,20,21
 605 -3 605 -3 549.5 -7.5 c 128,-1,22
 494 -12 494 -12 439 -12 c 0,23,24
 387 -12 387 -12 332 -6 c 1,0,1
EndSplineSet
EndChar

StartChar: w
Encoding: 119 119 27
Width: 1514
Flags: W
LayerCount: 2
Fore
SplineSet
211 395 m 1,0,-1
 73 950 l 1,1,-1
 325 1010 l 1,2,-1
 432 446 l 1,3,-1
 450 186 l 1,4,-1
 497 184 l 1,5,-1
 649 727 l 1,6,-1
 600 954 l 1,7,-1
 866 999 l 1,8,-1
 1036 188 l 1,9,-1
 1079 193 l 1,10,11
 1098 314 1098 314 1115 440 c 128,-1,12
 1132 566 1132 566 1149 696 c 2,13,-1
 1188 999 l 1,14,-1
 1448 967 l 1,15,16
 1426 851 1426 851 1406 741 c 128,-1,17
 1386 631 1386 631 1361 516 c 128,-1,18
 1336 401 1336 401 1302.5 275 c 128,-1,19
 1269 149 1269 149 1220 0 c 1,20,-1
 897 -16 l 1,21,-1
 774 422 l 1,22,-1
 751 422 l 1,23,-1
 639 0 l 1,24,-1
 307 -16 l 1,25,-1
 211 395 l 1,0,-1
EndSplineSet
EndChar

StartChar: x
Encoding: 120 120 28
Width: 942
Flags: W
LayerCount: 2
Fore
SplineSet
63 20 m 1,0,1
 72 91 72 91 91.5 161 c 128,-1,2
 111 231 111 231 135 293 c 128,-1,3
 159 355 159 355 185 407 c 128,-1,4
 211 459 211 459 235 494 c 1,5,-1
 324 541 l 1,6,7
 291 581 291 581 249 635 c 128,-1,8
 207 689 207 689 167.5 744 c 128,-1,9
 128 799 128 799 95 848.5 c 128,-1,10
 62 898 62 898 47 930 c 1,11,-1
 245 1075 l 1,12,-1
 337 914 l 2,13,14
 356 880 356 880 377.5 842.5 c 128,-1,15
 399 805 399 805 420 767 c 128,-1,16
 441 729 441 729 461.5 692.5 c 128,-1,17
 482 656 482 656 500 624 c 1,18,-1
 522 636 l 1,19,20
 528 654 528 654 540 685 c 128,-1,21
 552 716 552 716 567 754.5 c 128,-1,22
 582 793 582 793 598 835.5 c 128,-1,23
 614 878 614 878 629 919 c 128,-1,24
 644 960 644 960 656 995.5 c 128,-1,25
 668 1031 668 1031 675 1056 c 1,26,-1
 901 979 l 1,27,28
 895 950 895 950 881 912 c 128,-1,29
 867 874 867 874 848.5 831 c 128,-1,30
 830 788 830 788 808 744 c 128,-1,31
 786 700 786 700 764.5 659 c 128,-1,32
 743 618 743 618 723 583.5 c 128,-1,33
 703 549 703 549 688 526 c 1,34,-1
 611 487 l 1,35,36
 632 461 632 461 659 427.5 c 128,-1,37
 686 394 686 394 715 356 c 128,-1,38
 744 318 744 318 773 278 c 128,-1,39
 802 238 802 238 828 201 c 128,-1,40
 854 164 854 164 874 132 c 128,-1,41
 894 100 894 100 905 78 c 1,42,-1
 706 -68 l 1,43,44
 656 19 656 19 608 103 c 0,45,46
 587 139 587 139 565 178 c 128,-1,47
 543 217 543 217 521 256 c 128,-1,48
 499 295 499 295 478.5 332 c 128,-1,49
 458 369 458 369 441 401 c 1,50,-1
 415 389 l 1,51,52
 408 371 408 371 397 341 c 128,-1,53
 386 311 386 311 374 274.5 c 128,-1,54
 362 238 362 238 349 198 c 128,-1,55
 336 158 336 158 325 119 c 128,-1,56
 314 80 314 80 306 45.5 c 128,-1,57
 298 11 298 11 295 -14 c 1,58,-1
 63 20 l 1,59,-1
 63 20 l 1,0,1
EndSplineSet
EndChar

StartChar: y
Encoding: 121 121 29
Width: 1021
Flags: W
LayerCount: 2
Fore
SplineSet
122 981 m 1,0,-1
 359 1030 l 1,1,-1
 378 223 l 1,2,3
 390 219 390 219 402 216 c 0,4,5
 413 213 413 213 426.5 211 c 128,-1,6
 440 209 440 209 454 209 c 0,7,8
 467 209 467 209 483.5 209.5 c 128,-1,9
 500 210 500 210 522.5 214.5 c 128,-1,10
 545 219 545 219 573.5 228.5 c 128,-1,11
 602 238 602 238 638 256 c 1,12,-1
 646 971 l 1,13,-1
 873 999 l 1,14,-1
 885 -126 l 2,15,16
 885 -154 885 -154 864.5 -180 c 128,-1,17
 844 -206 844 -206 809 -231 c 0,18,19
 754 -270 754 -270 692 -311.5 c 128,-1,20
 630 -353 630 -353 564.5 -394.5 c 128,-1,21
 499 -436 499 -436 431.5 -475.5 c 128,-1,22
 364 -515 364 -515 299 -549 c 1,23,-1
 177 -330 l 1,24,25
 201 -319 201 -319 258 -293 c 128,-1,26
 315 -267 315 -267 386 -232.5 c 128,-1,27
 457 -198 457 -198 532.5 -158.5 c 128,-1,28
 608 -119 608 -119 669 -82 c 1,29,-1
 654 164 l 1,30,-1
 505 0 l 1,31,-1
 249 0 l 1,32,33
 219 3 219 3 179 37 c 1,34,35
 156 55 156 55 148 74.5 c 128,-1,36
 140 94 140 94 140 113 c 2,37,-1
 122 981 l 1,0,-1
EndSplineSet
EndChar

StartChar: z
Encoding: 122 122 30
Width: 860
Flags: W
LayerCount: 2
Fore
SplineSet
118 41 m 1,0,1
 108 78 108 78 101 111 c 128,-1,2
 94 144 94 144 89.5 177 c 128,-1,3
 85 210 85 210 82 245 c 128,-1,4
 79 280 79 280 77 322 c 1,5,-1
 544 729 l 1,6,-1
 526 793 l 1,7,8
 497 791 497 791 466 791 c 128,-1,9
 435 791 435 791 401 791 c 0,10,11
 316 791 316 791 229 797 c 128,-1,12
 142 803 142 803 67 823 c 1,13,-1
 120 1042 l 1,14,15
 199 1031 199 1031 273 1021.5 c 128,-1,16
 347 1012 347 1012 423 1003 c 128,-1,17
 499 994 499 994 579.5 985.5 c 128,-1,18
 660 977 660 977 753 969 c 1,19,-1
 796 690 l 1,20,21
 740 625 740 625 676 564 c 128,-1,22
 612 503 612 503 549 449 c 128,-1,23
 486 395 486 395 428.5 350 c 128,-1,24
 371 305 371 305 329 272 c 1,25,-1
 342 215 l 1,26,27
 400 215 400 215 464 210.5 c 128,-1,28
 528 206 528 206 589.5 199 c 128,-1,29
 651 192 651 192 705.5 183 c 128,-1,30
 760 174 760 174 800 164 c 1,31,-1
 749 -66 l 1,32,33
 606 -30 606 -30 446.5 -2.5 c 128,-1,34
 287 25 287 25 118 41 c 1,0,1
EndSplineSet
EndChar

StartChar: A
Encoding: 65 65 31
Width: 1157
Flags: W
LayerCount: 2
Fore
SplineSet
202 557 m 1,0,-1
 338 1237 l 1,1,2
 394 1247 394 1247 448.5 1255.5 c 128,-1,3
 503 1264 503 1264 560 1271.5 c 128,-1,4
 617 1279 617 1279 679.5 1285.5 c 128,-1,5
 742 1292 742 1292 815 1298 c 1,6,-1
 973 612 l 1,7,-1
 1095 10 l 1,8,-1
 852 -29 l 1,9,10
 837 58 837 58 822.5 135 c 128,-1,11
 808 212 808 212 794.5 284 c 128,-1,12
 781 356 781 356 769 424 c 128,-1,13
 757 492 757 492 745 561 c 1,14,-1
 641 1059 l 1,15,16
 613 1059 613 1059 580.5 1053.5 c 128,-1,17
 548 1048 548 1048 522 1040 c 1,18,-1
 436 547 l 1,19,-1
 694 541 l 1,20,-1
 663 332 l 1,21,22
 652 331 652 331 642 331 c 128,-1,23
 632 331 632 331 621 331 c 0,24,25
 562 331 562 331 509.5 337 c 128,-1,26
 457 343 457 343 399 354 c 1,27,-1
 323 -16 l 1,28,-1
 85 37 l 1,29,-1
 202 557 l 1,0,-1
EndSplineSet
EndChar

StartChar: B
Encoding: 66 66 32
Width: 1115
Flags: W
LayerCount: 2
Fore
SplineSet
175 932 m 1,0,-1
 409 973 l 1,1,-1
 415 784 l 1,2,-1
 415 670 l 1,3,-1
 704 723 l 1,4,5
 716 742 716 742 727 767 c 128,-1,6
 738 792 738 792 746.5 820.5 c 128,-1,7
 755 849 755 849 760 880.5 c 128,-1,8
 765 912 765 912 765 944 c 0,9,10
 765 977 765 977 759 1006 c 1,11,12
 684 1027 684 1027 594.5 1040.5 c 128,-1,13
 505 1054 505 1054 413 1061.5 c 128,-1,14
 321 1069 321 1069 230.5 1072 c 128,-1,15
 140 1075 140 1075 63 1075 c 1,16,-1
 99 1313 l 1,17,18
 176 1312 176 1312 269.5 1308 c 128,-1,19
 363 1304 363 1304 463.5 1295 c 128,-1,20
 564 1286 564 1286 666 1272.5 c 128,-1,21
 768 1259 768 1259 861 1239 c 0,22,23
 877 1235 877 1235 895.5 1220 c 128,-1,24
 914 1205 914 1205 931.5 1183.5 c 128,-1,25
 949 1162 949 1162 965 1136.5 c 128,-1,26
 981 1111 981 1111 993 1086.5 c 128,-1,27
 1005 1062 1005 1062 1012 1041 c 128,-1,28
 1019 1020 1019 1020 1019 1008 c 0,29,30
 1019 982 1019 982 1014 944.5 c 128,-1,31
 1009 907 1009 907 999 864.5 c 128,-1,32
 989 822 989 822 973.5 777 c 128,-1,33
 958 732 958 732 938 690 c 0,34,35
 932 678 932 678 919 666 c 128,-1,36
 906 654 906 654 886 645 c 0,37,38
 860 633 860 633 825 621 c 128,-1,39
 790 609 790 609 761 600 c 1,40,-1
 759 592 l 1,41,-1
 958 502 l 1,42,43
 966 468 966 468 969 436 c 128,-1,44
 972 404 972 404 972 373 c 0,45,46
 972 325 972 325 965 281 c 128,-1,47
 958 237 958 237 947.5 198.5 c 128,-1,48
 937 160 937 160 923.5 128.5 c 128,-1,49
 910 97 910 97 898 74 c 0,50,51
 890 60 890 60 875 50 c 128,-1,52
 860 40 860 40 845 35 c 0,53,54
 817 26 817 26 768 17 c 128,-1,55
 719 8 719 8 658.5 0 c 128,-1,56
 598 -8 598 -8 532 -15 c 128,-1,57
 466 -22 466 -22 404 -27.5 c 128,-1,58
 342 -33 342 -33 289.5 -36.5 c 128,-1,59
 237 -40 237 -40 204 -41 c 1,60,-1
 175 932 l 1,0,-1
429 170 m 1,61,62
 464 173 464 173 501.5 177 c 128,-1,63
 539 181 539 181 574.5 186.5 c 128,-1,64
 610 192 610 192 642 198.5 c 128,-1,65
 674 205 674 205 699 213 c 1,66,67
 699 212 699 212 704 229.5 c 128,-1,68
 709 247 709 247 714.5 274 c 128,-1,69
 720 301 720 301 725 333 c 128,-1,70
 730 365 730 365 730 393 c 0,71,72
 730 418 730 418 727.5 444.5 c 128,-1,73
 725 471 725 471 710 483 c 1,74,-1
 423 512 l 1,75,-1
 429 170 l 1,61,62
EndSplineSet
EndChar

StartChar: C
Encoding: 67 67 33
Width: 876
Flags: W
LayerCount: 2
Fore
SplineSet
225 74 m 0,0,1
 211 79 211 79 201 86.5 c 128,-1,2
 191 94 191 94 183 106 c 128,-1,3
 175 118 175 118 169 136 c 128,-1,4
 163 154 163 154 157 180 c 0,5,6
 150 211 150 211 142.5 260 c 128,-1,7
 135 309 135 309 128.5 372 c 128,-1,8
 122 435 122 435 117.5 510 c 128,-1,9
 113 585 113 585 113 670 c 0,10,11
 113 729 113 729 116 790.5 c 128,-1,12
 119 852 119 852 124 907 c 128,-1,13
 129 962 129 962 135 1005 c 128,-1,14
 141 1048 141 1048 148 1069 c 0,15,16
 152 1081 152 1081 156.5 1094.5 c 128,-1,17
 161 1108 161 1108 170 1120.5 c 128,-1,18
 179 1133 179 1133 193 1144.5 c 128,-1,19
 207 1156 207 1156 229 1165 c 0,20,21
 254 1175 254 1175 294 1188.5 c 128,-1,22
 334 1202 334 1202 382.5 1217.5 c 128,-1,23
 431 1233 431 1233 483.5 1248 c 128,-1,24
 536 1263 536 1263 586.5 1277.5 c 128,-1,25
 637 1292 637 1292 682 1303.5 c 128,-1,26
 727 1315 727 1315 760 1322 c 1,27,-1
 814 1079 l 1,28,29
 789 1073 789 1073 753 1066 c 128,-1,30
 717 1059 717 1059 675.5 1051 c 128,-1,31
 634 1043 634 1043 590.5 1035 c 128,-1,32
 547 1027 547 1027 509 1019.5 c 128,-1,33
 471 1012 471 1012 440.5 1005.5 c 128,-1,34
 410 999 410 999 395 995 c 1,35,36
 387 963 387 963 382 925 c 128,-1,37
 377 887 377 887 373.5 845 c 128,-1,38
 370 803 370 803 368.5 758.5 c 128,-1,39
 367 714 367 714 367 670 c 0,40,41
 367 610 367 610 369.5 550 c 128,-1,42
 372 490 372 490 376.5 436 c 128,-1,43
 381 382 381 382 387 336.5 c 128,-1,44
 393 291 393 291 401 260 c 1,45,46
 443 250 443 250 492.5 239.5 c 128,-1,47
 542 229 542 229 594 218.5 c 128,-1,48
 646 208 646 208 698 198 c 128,-1,49
 750 188 750 188 795 180 c 1,50,-1
 739 -51 l 1,51,52
 700 -44 700 -44 651.5 -34 c 128,-1,53
 603 -24 603 -24 552 -12 c 128,-1,54
 501 0 501 0 449.5 12.5 c 128,-1,55
 398 25 398 25 354 36.5 c 128,-1,56
 310 48 310 48 276 58 c 128,-1,57
 242 68 242 68 225 74 c 0,0,1
EndSplineSet
EndChar

StartChar: D
Encoding: 68 68 34
Width: 1144
Flags: W
LayerCount: 2
Fore
SplineSet
186 940 m 1,0,-1
 432 993 l 1,1,-1
 436 778 l 1,2,-1
 416 209 l 1,3,4
 421 209 421 209 426 210 c 128,-1,5
 431 211 431 211 437 211 c 0,6,7
 470 216 470 216 504.5 220.5 c 128,-1,8
 539 225 539 225 575 231 c 0,9,10
 613 238 613 238 648 245.5 c 128,-1,11
 683 253 683 253 717 264 c 1,12,13
 731 322 731 322 743 390.5 c 128,-1,14
 755 459 755 459 764 533 c 128,-1,15
 773 607 773 607 778 684 c 128,-1,16
 783 761 783 761 783 836 c 0,17,18
 783 887 783 887 780.5 936 c 128,-1,19
 778 985 778 985 772 1030 c 1,20,21
 724 1039 724 1039 646 1048 c 128,-1,22
 568 1057 568 1057 474.5 1064.5 c 128,-1,23
 381 1072 381 1072 279.5 1076.5 c 128,-1,24
 178 1081 178 1081 82 1081 c 2,25,-1
 55 1081 l 1,26,-1
 100 1323 l 1,27,-1
 121 1323 l 2,28,29
 179 1323 179 1323 247 1320.5 c 128,-1,30
 315 1318 315 1318 386.5 1313 c 128,-1,31
 458 1308 458 1308 529 1300.5 c 128,-1,32
 600 1293 600 1293 664.5 1283.5 c 128,-1,33
 729 1274 729 1274 782.5 1262.5 c 128,-1,34
 836 1251 836 1251 872 1237 c 0,35,36
 889 1231 889 1231 915 1207 c 128,-1,37
 941 1183 941 1183 965.5 1153.5 c 128,-1,38
 990 1124 990 1124 1008 1094.5 c 128,-1,39
 1026 1065 1026 1065 1028 1047 c 0,40,41
 1032 1009 1032 1009 1034 967.5 c 128,-1,42
 1036 926 1036 926 1036 881 c 0,43,44
 1036 788 1036 788 1028 686 c 128,-1,45
 1020 584 1020 584 1004.5 485 c 128,-1,46
 989 386 989 386 966.5 295 c 128,-1,47
 944 204 944 204 915 133 c 0,48,49
 903 102 903 102 888.5 88.5 c 128,-1,50
 874 75 874 75 842 64 c 0,51,52
 786 46 786 46 721.5 33 c 128,-1,53
 657 20 657 20 578 11 c 128,-1,54
 499 2 499 2 402.5 -5 c 128,-1,55
 306 -12 306 -12 186 -18 c 1,56,-1
 186 940 l 1,0,-1
EndSplineSet
EndChar

StartChar: E
Encoding: 69 69 35
Width: 970
Flags: W
LayerCount: 2
Fore
SplineSet
155 1196 m 1,0,1
 194 1206 194 1206 268.5 1222.5 c 128,-1,2
 343 1239 343 1239 436 1257 c 128,-1,3
 529 1275 529 1275 631 1291.5 c 128,-1,4
 733 1308 733 1308 827 1317 c 1,5,-1
 862 1079 l 1,6,-1
 383 1024 l 1,7,-1
 393 725 l 1,8,-1
 823 743 l 1,9,-1
 807 508 l 1,10,-1
 395 522 l 1,11,-1
 387 223 l 1,12,13
 508 202 508 202 631.5 185 c 128,-1,14
 755 168 755 168 872 150 c 1,15,-1
 819 -68 l 1,16,17
 751 -59 751 -59 667.5 -47.5 c 128,-1,18
 584 -36 584 -36 496.5 -22.5 c 128,-1,19
 409 -9 409 -9 324 7.5 c 128,-1,20
 239 24 239 24 168 43 c 1,21,-1
 155 1196 l 1,0,1
EndSplineSet
EndChar

StartChar: F
Encoding: 70 70 36
Width: 880
Flags: W
LayerCount: 2
Fore
SplineSet
149 1196 m 1,0,1
 189 1206 189 1206 259.5 1221.5 c 128,-1,2
 330 1237 330 1237 416.5 1253.5 c 128,-1,3
 503 1270 503 1270 598.5 1286 c 128,-1,4
 694 1302 694 1302 784 1313 c 1,5,-1
 825 1075 l 1,6,-1
 393 1028 l 1,7,-1
 405 709 l 1,8,-1
 772 725 l 1,9,-1
 762 487 l 1,10,-1
 409 498 l 1,11,-1
 393 0 l 1,12,-1
 178 -18 l 1,13,-1
 149 1196 l 1,0,1
EndSplineSet
EndChar

StartChar: G
Encoding: 71 71 37
Width: 1071
Flags: W
LayerCount: 2
Fore
SplineSet
186 158 m 0,0,1
 178 198 178 198 169 250.5 c 128,-1,2
 160 303 160 303 153 365 c 128,-1,3
 146 427 146 427 141.5 496 c 128,-1,4
 137 565 137 565 137 637 c 0,5,6
 137 682 137 682 138 729.5 c 128,-1,7
 139 777 139 777 141.5 823 c 128,-1,8
 144 869 144 869 147 911.5 c 128,-1,9
 150 954 150 954 155 989 c 0,10,11
 158 1014 158 1014 162.5 1034 c 128,-1,12
 167 1054 167 1054 172 1069 c 0,13,14
 180 1094 180 1094 192 1117.5 c 128,-1,15
 204 1141 204 1141 229 1155 c 0,16,17
 249 1167 249 1167 278.5 1178.5 c 128,-1,18
 308 1190 308 1190 342 1202 c 0,19,20
 385 1217 385 1217 435.5 1231.5 c 128,-1,21
 486 1246 486 1246 538.5 1259 c 128,-1,22
 591 1272 591 1272 643 1284 c 128,-1,23
 695 1296 695 1296 742 1305.5 c 128,-1,24
 789 1315 789 1315 828 1322 c 128,-1,25
 867 1329 867 1329 893 1333 c 1,26,-1
 946 1092 l 1,27,28
 917 1086 917 1086 872 1078.5 c 128,-1,29
 827 1071 827 1071 774.5 1062 c 128,-1,30
 722 1053 722 1053 667 1044 c 128,-1,31
 612 1035 612 1035 563 1026 c 128,-1,32
 514 1017 514 1017 476 1009 c 128,-1,33
 438 1001 438 1001 420 995 c 1,34,35
 404 932 404 932 397.5 845.5 c 128,-1,36
 391 759 391 759 391 665 c 0,37,38
 391 602 391 602 393.5 540.5 c 128,-1,39
 396 479 396 479 401 423.5 c 128,-1,40
 406 368 406 368 412 321.5 c 128,-1,41
 418 275 418 275 426 244 c 1,42,43
 448 236 448 236 478 228 c 128,-1,44
 508 220 508 220 540 214 c 128,-1,45
 572 208 572 208 605.5 204.5 c 128,-1,46
 639 201 639 201 669 201 c 0,47,48
 678 201 678 201 687.5 201 c 128,-1,49
 697 201 697 201 704 203 c 1,50,-1
 733 504 l 1,51,-1
 573 512 l 1,52,-1
 598 727 l 1,53,54
 646 724 646 724 691 720 c 128,-1,55
 736 716 736 716 781.5 709.5 c 128,-1,56
 827 703 827 703 874.5 694 c 128,-1,57
 922 685 922 685 975 672 c 1,58,-1
 897 -6 l 1,59,60
 863 -11 863 -11 827 -14 c 128,-1,61
 791 -17 791 -17 753 -17 c 0,62,63
 673 -17 673 -17 593 -7.5 c 128,-1,64
 513 2 513 2 444 16 c 128,-1,65
 375 30 375 30 323.5 46 c 128,-1,66
 272 62 272 62 250 74 c 0,67,68
 225 88 225 88 209.5 105.5 c 128,-1,69
 194 123 194 123 186 158 c 0,0,1
EndSplineSet
EndChar

StartChar: H
Encoding: 72 72 38
Width: 1228
Flags: W
LayerCount: 2
Fore
SplineSet
166 1268 m 1,0,-1
 409 1300 l 1,1,-1
 430 680 l 1,2,-1
 817 694 l 1,3,-1
 827 1264 l 1,4,-1
 1071 1298 l 1,5,-1
 1073 750 l 1,6,-1
 1030 0 l 1,7,-1
 813 -18 l 1,8,-1
 811 473 l 1,9,-1
 694 467 l 1,10,-1
 428 469 l 1,11,-1
 411 0 l 1,12,-1
 192 -18 l 1,13,-1
 166 1268 l 1,0,-1
EndSplineSet
EndChar

StartChar: I
Encoding: 73 73 39
Width: 784
Flags: W
LayerCount: 2
Fore
SplineSet
112 205 m 1,0,-1
 285 198 l 1,1,-1
 270 1061 l 1,2,3
 224 1059 224 1059 178 1056.5 c 128,-1,4
 132 1054 132 1054 86 1051 c 1,5,-1
 67 1243 l 1,6,7
 137 1254 137 1254 212.5 1262 c 128,-1,8
 288 1270 288 1270 365 1276.5 c 128,-1,9
 442 1283 442 1283 518.5 1288 c 128,-1,10
 595 1293 595 1293 669 1298 c 1,11,-1
 696 1096 l 1,12,13
 653 1091 653 1091 610 1087 c 128,-1,14
 567 1083 567 1083 524 1077 c 1,15,-1
 526 653 l 1,16,-1
 497 189 l 1,17,-1
 680 182 l 1,18,-1
 663 -25 l 1,19,20
 585 -24 585 -24 503 -20 c 128,-1,21
 421 -16 421 -16 344.5 -10 c 128,-1,22
 268 -4 268 -4 202.5 3 c 128,-1,23
 137 10 137 10 92 18 c 1,24,-1
 112 205 l 1,0,-1
EndSplineSet
EndChar

StartChar: J
Encoding: 74 74 40
Width: 716
Flags: W
LayerCount: 2
Fore
SplineSet
32 -55 m 1,0,1
 63 -39 63 -39 104 -14.5 c 128,-1,2
 145 10 145 10 187 38 c 128,-1,3
 229 66 229 66 266 93.5 c 128,-1,4
 303 121 303 121 325 143 c 1,5,-1
 311 711 l 1,6,-1
 311 1063 l 1,7,-1
 67 1090 l 1,8,-1
 104 1315 l 1,9,10
 165 1307 165 1307 228 1299 c 128,-1,11
 291 1291 291 1291 352.5 1281.5 c 128,-1,12
 414 1272 414 1272 470.5 1261 c 128,-1,13
 527 1250 527 1250 575 1235 c 1,14,-1
 551 113 l 2,15,16
 551 88 551 88 545 68.5 c 128,-1,17
 539 49 539 49 528 32.5 c 128,-1,18
 517 16 517 16 501.5 -0.5 c 128,-1,19
 486 -17 486 -17 466 -36 c 0,20,21
 448 -54 448 -54 413 -82 c 128,-1,22
 378 -110 378 -110 335.5 -140.5 c 128,-1,23
 293 -171 293 -171 247.5 -200 c 128,-1,24
 202 -229 202 -229 164 -248 c 1,25,-1
 32 -55 l 1,26,-1
 32 -55 l 1,0,1
EndSplineSet
EndChar

StartChar: K
Encoding: 75 75 41
Width: 1099
Flags: W
LayerCount: 2
Fore
SplineSet
162 1266 m 1,0,-1
 411 1300 l 1,1,-1
 418 653 l 1,2,-1
 465 645 l 1,3,-1
 841 1311 l 1,4,-1
 1059 1182 l 1,5,6
 1039 1139 1039 1139 1009 1087.5 c 128,-1,7
 979 1036 979 1036 943.5 980.5 c 128,-1,8
 908 925 908 925 868.5 868.5 c 128,-1,9
 829 812 829 812 790 760 c 128,-1,10
 751 708 751 708 714.5 663 c 128,-1,11
 678 618 678 618 647 586 c 1,12,13
 669 564 669 564 700.5 531 c 128,-1,14
 732 498 732 498 768 457.5 c 128,-1,15
 804 417 804 417 842 371 c 128,-1,16
 880 325 880 325 917 277.5 c 128,-1,17
 954 230 954 230 987 182.5 c 128,-1,18
 1020 135 1020 135 1046 92 c 1,19,-1
 841 -57 l 1,20,-1
 495 475 l 1,21,-1
 410 436 l 1,22,-1
 393 0 l 1,23,-1
 170 -20 l 1,24,-1
 162 1266 l 1,0,-1
305 389 m 1,25,26
 305 388 305 388 305.5 388 c 128,-1,27
 306 388 306 388 306 389 c 1,28,-1
 305 389 l 1,25,26
EndSplineSet
EndChar

StartChar: L
Encoding: 76 76 42
Width: 782
Flags: W
LayerCount: 2
Fore
SplineSet
166 1260 m 1,0,-1
 418 1300 l 1,1,-1
 418 752 l 1,2,-1
 387 264 l 1,3,4
 418 252 418 252 469.5 241 c 128,-1,5
 521 230 521 230 575 221 c 128,-1,6
 629 212 629 212 677.5 205.5 c 128,-1,7
 726 199 726 199 753 195 c 1,8,-1
 696 -27 l 1,9,10
 658 -22 658 -22 610 -15 c 128,-1,11
 562 -8 562 -8 510 1.5 c 128,-1,12
 458 11 458 11 406 21 c 128,-1,13
 354 31 354 31 308 42 c 128,-1,14
 262 53 262 53 224.5 63.5 c 128,-1,15
 187 74 187 74 166 84 c 1,16,-1
 166 1260 l 1,0,-1
EndSplineSet
EndChar

StartChar: M
Encoding: 77 77 43
Width: 1704
Flags: W
LayerCount: 2
Fore
SplineSet
164 705 m 1,0,1
 168 795 168 795 175 866 c 128,-1,2
 182 937 182 937 189 997 c 128,-1,3
 196 1057 196 1057 202.5 1111 c 128,-1,4
 209 1165 209 1165 214 1221 c 1,5,6
 232 1226 232 1226 263.5 1233 c 128,-1,7
 295 1240 295 1240 334.5 1248 c 128,-1,8
 374 1256 374 1256 418 1264 c 128,-1,9
 462 1272 462 1272 505.5 1278.5 c 128,-1,10
 549 1285 549 1285 588.5 1289.5 c 128,-1,11
 628 1294 628 1294 658 1296 c 1,12,-1
 803 696 l 1,13,-1
 850 225 l 1,14,-1
 893 229 l 1,15,-1
 986 1223 l 1,16,17
 1029 1238 1029 1238 1086 1251.5 c 128,-1,18
 1143 1265 1143 1265 1205 1276 c 128,-1,19
 1267 1287 1267 1287 1329.5 1293.5 c 128,-1,20
 1392 1300 1392 1300 1446 1300 c 1,21,-1
 1572 676 l 1,22,-1
 1662 2 l 1,23,-1
 1403 -25 l 1,24,-1
 1324 653 l 1,25,-1
 1258 1086 l 1,26,-1
 1197 1078 l 1,27,-1
 1156 643 l 1,28,-1
 1059 29 l 1,29,30
 1027 23 1027 23 980 16.5 c 128,-1,31
 933 10 933 10 880.5 5 c 128,-1,32
 828 0 828 0 775.5 -3.5 c 128,-1,33
 723 -7 723 -7 679 -8 c 1,34,-1
 470 1073 l 1,35,-1
 404 1063 l 1,36,-1
 396 662 l 1,37,-1
 336 -19 l 1,38,-1
 86 12 l 1,39,-1
 164 705 l 1,0,1
EndSplineSet
EndChar

StartChar: N
Encoding: 78 78 44
Width: 1350
Flags: W
LayerCount: 2
Fore
SplineSet
166 110 m 2,0,1
 166 287 166 287 168.5 452.5 c 128,-1,2
 171 618 171 618 175 780 c 1,3,-1
 156 1227 l 1,4,5
 175 1231 175 1231 206 1237 c 128,-1,6
 237 1243 237 1243 275.5 1250 c 128,-1,7
 314 1257 314 1257 356.5 1264 c 128,-1,8
 399 1271 399 1271 440.5 1277.5 c 128,-1,9
 482 1284 482 1284 521 1288 c 128,-1,10
 560 1292 560 1292 590 1294 c 1,11,-1
 854 459 l 1,12,-1
 915 172 l 1,13,-1
 973 178 l 1,14,-1
 960 500 l 1,15,-1
 969 1278 l 1,16,-1
 1225 1300 l 1,17,18
 1220 1120 1220 1120 1206.5 923 c 128,-1,19
 1193 726 1193 726 1175 518 c 1,20,-1
 1160 27 l 1,21,22
 1128 21 1128 21 1075 14 c 128,-1,23
 1022 7 1022 7 963.5 0.5 c 128,-1,24
 905 -6 905 -6 848 -11 c 128,-1,25
 791 -16 791 -16 751 -18 c 1,26,-1
 487 827 l 1,27,-1
 428 1091 l 1,28,-1
 375 1083 l 1,29,-1
 385 782 l 1,30,-1
 395 2 l 1,31,-1
 166 -18 l 1,32,-1
 166 110 l 2,0,1
EndSplineSet
EndChar

StartChar: O
Encoding: 79 79 45
Width: 1161
Flags: W
LayerCount: 2
Fore
SplineSet
223 78 m 0,0,1
 199 141 199 141 181.5 226.5 c 128,-1,2
 164 312 164 312 152 407 c 128,-1,3
 140 502 140 502 134.5 600.5 c 128,-1,4
 129 699 129 699 129 788 c 0,5,6
 129 851 129 851 131.5 911.5 c 128,-1,7
 134 972 134 972 145 1026 c 0,8,9
 153 1066 153 1066 166 1098 c 128,-1,10
 179 1130 179 1130 199.5 1155 c 128,-1,11
 220 1180 220 1180 248.5 1198.5 c 128,-1,12
 277 1217 277 1217 315 1231 c 0,13,14
 377 1253 377 1253 456 1269.5 c 128,-1,15
 535 1286 535 1286 624 1297 c 128,-1,16
 713 1308 713 1308 810 1314.5 c 128,-1,17
 907 1321 907 1321 1005 1323 c 1,18,-1
 1042 1081 l 1,19,20
 990 1079 990 1079 930 1075.5 c 128,-1,21
 870 1072 870 1072 808 1067 c 128,-1,22
 746 1062 746 1062 685 1055 c 128,-1,23
 624 1048 624 1048 569.5 1039.5 c 128,-1,24
 515 1031 515 1031 470.5 1021.5 c 128,-1,25
 426 1012 426 1012 397 1001 c 1,26,27
 394 984 394 984 391.5 952 c 128,-1,28
 389 920 389 920 387.5 883 c 128,-1,29
 386 846 386 846 385.5 809 c 128,-1,30
 385 772 385 772 385 745 c 0,31,32
 385 683 385 683 388 614 c 128,-1,33
 391 545 391 545 397 475.5 c 128,-1,34
 403 406 403 406 413 338 c 128,-1,35
 423 270 423 270 438 210 c 1,36,37
 452 208 452 208 467 208 c 128,-1,38
 482 208 482 208 497 208 c 0,39,40
 563 208 563 208 621.5 215.5 c 128,-1,41
 680 223 680 223 714 231 c 1,42,43
 726 309 726 309 735.5 404.5 c 128,-1,44
 745 500 745 500 751.5 597.5 c 128,-1,45
 758 695 758 695 761 787 c 128,-1,46
 764 879 764 879 764 950 c 1,47,-1
 1013 934 l 1,48,49
 1015 906 1015 906 1016.5 875.5 c 128,-1,50
 1018 845 1018 845 1018 811 c 0,51,52
 1018 759 1018 759 1014.5 699.5 c 128,-1,53
 1011 640 1011 640 1005 578.5 c 128,-1,54
 999 517 999 517 991 455.5 c 128,-1,55
 983 394 983 394 975 338.5 c 128,-1,56
 967 283 967 283 959 236.5 c 128,-1,57
 951 190 951 190 945 158 c 0,58,59
 940 133 940 133 934.5 112.5 c 128,-1,60
 929 92 929 92 920 75 c 128,-1,61
 911 58 911 58 898 45 c 128,-1,62
 885 32 885 32 864 23 c 0,63,64
 846 15 846 15 816 9 c 128,-1,65
 786 3 786 3 750.5 -1.5 c 128,-1,66
 715 -6 715 -6 676 -9 c 128,-1,67
 637 -12 637 -12 601 -13.5 c 128,-1,68
 565 -15 565 -15 534.5 -15.5 c 128,-1,69
 504 -16 504 -16 485 -16 c 0,70,71
 440 -16 440 -16 395 -13.5 c 128,-1,72
 350 -11 350 -11 313 -2 c 0,73,74
 287 4 287 4 262.5 21 c 128,-1,75
 238 38 238 38 223 78 c 0,0,1
EndSplineSet
EndChar

StartChar: P
Encoding: 80 80 46
Width: 1081
Flags: W
LayerCount: 2
Fore
SplineSet
176 924 m 1,0,-1
 432 965 l 1,1,-1
 432 764 l 1,2,-1
 424 485 l 1,3,4
 461 491 461 491 494 498.5 c 128,-1,5
 527 506 527 506 559 514 c 128,-1,6
 591 522 591 522 622.5 532.5 c 128,-1,7
 654 543 654 543 688 555 c 1,8,9
 700 593 700 593 709 640 c 128,-1,10
 718 687 718 687 724 735.5 c 128,-1,11
 730 784 730 784 732.5 831.5 c 128,-1,12
 735 879 735 879 735 919 c 0,13,14
 735 954 735 954 733.5 980.5 c 128,-1,15
 732 1007 732 1007 727 1020 c 1,16,17
 670 1038 670 1038 590.5 1048 c 128,-1,18
 511 1058 511 1058 423 1063.5 c 128,-1,19
 335 1069 335 1069 245 1071.5 c 128,-1,20
 155 1074 155 1074 78 1077 c 1,21,-1
 116 1313 l 1,22,23
 193 1310 193 1310 283.5 1305 c 128,-1,24
 374 1300 374 1300 466.5 1292 c 128,-1,25
 559 1284 559 1284 647 1272 c 128,-1,26
 735 1260 735 1260 807 1243 c 0,27,28
 823 1239 823 1239 851 1218 c 128,-1,29
 879 1197 879 1197 907 1169 c 128,-1,30
 935 1141 935 1141 956.5 1111 c 128,-1,31
 978 1081 978 1081 981 1059 c 0,32,33
 990 996 990 996 990 923 c 0,34,35
 990 805 990 805 965 672 c 128,-1,36
 940 539 940 539 884 408 c 0,37,38
 872 379 872 379 841.5 363.5 c 128,-1,39
 811 348 811 348 784 344 c 2,40,-1
 430 281 l 1,41,-1
 418 2 l 1,42,-1
 194 -20 l 1,43,-1
 176 924 l 1,0,-1
EndSplineSet
EndChar

StartChar: Q
Encoding: 81 81 47
Width: 1159
Flags: W
LayerCount: 2
Fore
SplineSet
223 78 m 0,0,1
 199 141 199 141 181.5 226.5 c 128,-1,2
 164 312 164 312 152 407 c 128,-1,3
 140 502 140 502 134.5 600.5 c 128,-1,4
 129 699 129 699 129 788 c 0,5,6
 129 819 129 819 130.5 857 c 128,-1,7
 132 895 132 895 135 931 c 128,-1,8
 138 967 138 967 141 997 c 128,-1,9
 144 1027 144 1027 147 1042 c 0,10,11
 152 1066 152 1066 158 1091.5 c 128,-1,12
 164 1117 164 1117 180.5 1141 c 128,-1,13
 197 1165 197 1165 228 1188 c 128,-1,14
 259 1211 259 1211 315 1231 c 0,15,16
 377 1253 377 1253 456 1269.5 c 128,-1,17
 535 1286 535 1286 624 1297 c 128,-1,18
 713 1308 713 1308 810 1314.5 c 128,-1,19
 907 1321 907 1321 1005 1323 c 1,20,-1
 1042 1081 l 1,21,22
 990 1079 990 1079 930.5 1075.5 c 128,-1,23
 871 1072 871 1072 809 1067 c 128,-1,24
 747 1062 747 1062 686 1055 c 128,-1,25
 625 1048 625 1048 571 1039.5 c 128,-1,26
 517 1031 517 1031 472.5 1021.5 c 128,-1,27
 428 1012 428 1012 399 1001 c 1,28,29
 396 984 396 984 393.5 952 c 128,-1,30
 391 920 391 920 389.5 883 c 128,-1,31
 388 846 388 846 387.5 809 c 128,-1,32
 387 772 387 772 387 745 c 0,33,34
 387 683 387 683 390 614.5 c 128,-1,35
 393 546 393 546 399 477 c 128,-1,36
 405 408 405 408 415 340.5 c 128,-1,37
 425 273 425 273 440 213 c 1,38,39
 454 211 454 211 469 211 c 128,-1,40
 484 211 484 211 499 211 c 0,41,42
 565 211 565 211 622.5 217 c 128,-1,43
 680 223 680 223 714 231 c 1,44,45
 726 309 726 309 735.5 404.5 c 128,-1,46
 745 500 745 500 751.5 597.5 c 128,-1,47
 758 695 758 695 761 787 c 128,-1,48
 764 879 764 879 764 950 c 1,49,-1
 1013 934 l 1,50,51
 1015 906 1015 906 1016.5 875.5 c 128,-1,52
 1018 845 1018 845 1018 811 c 0,53,54
 1018 733 1018 733 1011.5 645.5 c 128,-1,55
 1005 558 1005 558 994.5 471 c 128,-1,56
 984 384 984 384 971 303 c 128,-1,57
 958 222 958 222 945 158 c 0,58,59
 940 133 940 133 934.5 112.5 c 128,-1,60
 929 92 929 92 920 75 c 128,-1,61
 911 58 911 58 898 45 c 128,-1,62
 885 32 885 32 864 23 c 0,63,64
 838 11 838 11 788.5 3.5 c 128,-1,65
 739 -4 739 -4 683 -8 c 1,66,67
 699 -68 699 -68 717.5 -115.5 c 128,-1,68
 736 -163 736 -163 758.5 -207 c 128,-1,69
 781 -251 781 -251 808 -296 c 128,-1,70
 835 -341 835 -341 870 -395 c 1,71,-1
 647 -526 l 1,72,73
 611 -467 611 -467 585 -419.5 c 128,-1,74
 559 -372 559 -372 543 -327 c 128,-1,75
 527 -282 527 -282 519.5 -234 c 128,-1,76
 512 -186 512 -186 512 -124 c 0,77,78
 512 -92 512 -92 512.5 -63 c 128,-1,79
 513 -34 513 -34 514 -16 c 1,80,-1
 485 -16 l 2,81,82
 440 -16 440 -16 395 -13.5 c 128,-1,83
 350 -11 350 -11 313 -2 c 0,84,85
 287 4 287 4 262.5 21 c 128,-1,86
 238 38 238 38 223 78 c 0,0,1
EndSplineSet
EndChar

StartChar: R
Encoding: 82 82 48
Width: 1095
Flags: W
LayerCount: 2
Fore
SplineSet
164 932 m 1,0,-1
 407 973 l 1,1,-1
 407 772 l 1,2,-1
 401 530 l 1,3,-1
 688 600 l 1,4,5
 713 679 713 679 731 762.5 c 128,-1,6
 749 846 749 846 749 950 c 0,7,8
 749 960 749 960 748.5 975 c 128,-1,9
 748 990 748 990 745 1012 c 1,10,11
 707 1024 707 1024 657 1033.5 c 128,-1,12
 607 1043 607 1043 550 1050 c 128,-1,13
 493 1057 493 1057 431.5 1063 c 128,-1,14
 370 1069 370 1069 308.5 1073 c 128,-1,15
 247 1077 247 1077 188 1080 c 128,-1,16
 129 1083 129 1083 78 1085 c 1,17,-1
 116 1321 l 1,18,19
 167 1319 167 1319 228.5 1315 c 128,-1,20
 290 1311 290 1311 356 1305.5 c 128,-1,21
 422 1300 422 1300 490.5 1292.5 c 128,-1,22
 559 1285 559 1285 624 1276.5 c 128,-1,23
 689 1268 689 1268 748.5 1258.5 c 128,-1,24
 808 1249 808 1249 856 1239 c 0,25,26
 865 1237 865 1237 879.5 1225.5 c 128,-1,27
 894 1214 894 1214 910 1197 c 128,-1,28
 926 1180 926 1180 942.5 1159.5 c 128,-1,29
 959 1139 959 1139 972 1119 c 128,-1,30
 985 1099 985 1099 993.5 1082 c 128,-1,31
 1002 1065 1002 1065 1003 1055 c 0,32,33
 1005 1030 1005 1030 1005 1002.5 c 128,-1,34
 1005 975 1005 975 1005 946 c 0,35,36
 1005 911 1005 911 996.5 854.5 c 128,-1,37
 988 798 988 798 973.5 735 c 128,-1,38
 959 672 959 672 939 609.5 c 128,-1,39
 919 547 919 547 895 500 c 0,40,41
 885 481 885 481 868.5 466 c 128,-1,42
 852 451 852 451 839 444 c 1,43,-1
 741 412 l 1,44,45
 816 330 816 330 885 240 c 128,-1,46
 954 150 954 150 1011 63 c 1,47,-1
 803 -78 l 1,48,-1
 553 362 l 1,49,-1
 407 354 l 1,50,-1
 399 0 l 1,51,-1
 182 -18 l 1,52,-1
 164 932 l 1,0,-1
EndSplineSet
EndChar

StartChar: S
Encoding: 83 83 49
Width: 901
Flags: W
LayerCount: 2
Fore
SplineSet
98 205 m 1,0,1
 165 210 165 210 229.5 217.5 c 128,-1,2
 294 225 294 225 352 233.5 c 128,-1,3
 410 242 410 242 459.5 251.5 c 128,-1,4
 509 261 509 261 547 272 c 1,5,6
 551 298 551 298 552.5 327 c 128,-1,7
 554 356 554 356 554 385 c 0,8,9
 554 435 554 435 551 485 c 1,10,-1
 196 614 l 2,11,12
 160 627 160 627 142 661.5 c 128,-1,13
 124 696 124 696 114 756 c 0,14,15
 106 807 106 807 100.5 862.5 c 128,-1,16
 95 918 95 918 95 977 c 0,17,18
 95 1006 95 1006 96.5 1035.5 c 128,-1,19
 98 1065 98 1065 102 1094 c 1,20,21
 104 1134 104 1134 131 1160 c 128,-1,22
 158 1186 158 1186 205 1200 c 1,23,24
 338 1248 338 1248 472 1280 c 128,-1,25
 606 1312 606 1312 739 1335 c 1,26,-1
 800 1094 l 1,27,28
 731 1084 731 1084 672 1075.5 c 128,-1,29
 613 1067 613 1067 559.5 1058 c 128,-1,30
 506 1049 506 1049 456.5 1039 c 128,-1,31
 407 1029 407 1029 356 1016 c 1,32,33
 354 1003 354 1003 353 986.5 c 128,-1,34
 352 970 352 970 352 944 c 0,35,36
 352 907 352 907 352.5 878.5 c 128,-1,37
 353 850 353 850 356 813 c 1,38,-1
 725 651 l 2,39,40
 746 642 746 642 762.5 627 c 128,-1,41
 779 612 779 612 790 595 c 128,-1,42
 801 578 801 578 807 559.5 c 128,-1,43
 813 541 813 541 813 526 c 0,44,45
 813 525 813 525 811.5 498.5 c 128,-1,46
 810 472 810 472 807 428 c 128,-1,47
 804 384 804 384 798.5 326.5 c 128,-1,48
 793 269 793 269 784 207 c 0,49,50
 775 141 775 141 727 109 c 0,51,52
 682 80 682 80 615.5 56.5 c 128,-1,53
 549 33 549 33 471.5 14.5 c 128,-1,54
 394 -4 394 -4 309 -18.5 c 128,-1,55
 224 -33 224 -33 141 -45 c 1,56,-1
 98 205 l 1,0,1
EndSplineSet
EndChar

StartChar: T
Encoding: 84 84 50
Width: 883
Flags: W
LayerCount: 2
Fore
SplineSet
325 1038 m 1,0,1
 238 1036 238 1036 164.5 1032 c 128,-1,2
 91 1028 91 1028 40 1028 c 1,3,-1
 58 1245 l 1,4,5
 250 1270 250 1270 445 1280 c 128,-1,6
 640 1290 640 1290 833 1290 c 1,7,-1
 859 1065 l 1,8,9
 785 1062 785 1062 717.5 1057.5 c 128,-1,10
 650 1053 650 1053 574 1047 c 1,11,-1
 583 631 l 1,12,-1
 560 0 l 1,13,-1
 337 -18 l 1,14,-1
 325 1038 l 1,0,1
EndSplineSet
EndChar

StartChar: U
Encoding: 85 85 51
Width: 1151
Flags: W
LayerCount: 2
Fore
SplineSet
193 248 m 0,0,1
 175 410 175 410 162.5 563.5 c 128,-1,2
 150 717 150 717 142 849.5 c 128,-1,3
 134 982 134 982 130 1088 c 128,-1,4
 126 1194 126 1194 125 1260 c 1,5,-1
 379 1300 l 1,6,-1
 420 270 l 1,7,8
 444 256 444 256 473.5 246.5 c 128,-1,9
 503 237 503 237 534.5 231.5 c 128,-1,10
 566 226 566 226 598.5 224 c 128,-1,11
 631 222 631 222 662 222 c 0,12,13
 679 222 679 222 696.5 223.5 c 128,-1,14
 714 225 714 225 731 227 c 1,15,-1
 784 1307 l 1,16,-1
 1059 1272 l 1,17,-1
 966 285 l 2,18,19
 964 263 964 263 943.5 233 c 128,-1,20
 923 203 923 203 895.5 171.5 c 128,-1,21
 868 140 868 140 839 110 c 128,-1,22
 810 80 810 80 790 59 c 0,23,24
 772 41 772 41 756 26 c 128,-1,25
 740 11 740 11 723 10 c 0,26,27
 622 5 622 5 567 2.5 c 128,-1,28
 512 0 512 0 487 -1 c 0,29,30
 457 -3 457 -3 453 -2 c 1,31,32
 442 -2 442 -2 424 8.5 c 128,-1,33
 406 19 406 19 385.5 34 c 128,-1,34
 365 49 365 49 345.5 65.5 c 128,-1,35
 326 82 326 82 311 95 c 0,36,37
 290 114 290 114 270 131 c 128,-1,38
 250 148 250 148 233.5 166 c 128,-1,39
 217 184 217 184 206.5 203.5 c 128,-1,40
 196 223 196 223 193 248 c 0,0,1
EndSplineSet
EndChar

StartChar: V
Encoding: 86 86 52
Width: 1092
Flags: W
LayerCount: 2
Fore
SplineSet
244 520 m 1,0,-1
 72 1225 l 1,1,-1
 326 1298 l 1,2,-1
 481 530 l 1,3,-1
 522 205 l 1,4,-1
 580 211 l 1,5,6
 631 471 631 471 681.5 740 c 128,-1,7
 732 1009 732 1009 778 1298 c 1,8,-1
 1036 1233 l 1,9,-1
 999 1071 l 2,10,11
 991 1034 991 1034 976 971.5 c 128,-1,12
 961 909 961 909 942 831 c 128,-1,13
 923 753 923 753 901 664.5 c 128,-1,14
 879 576 879 576 857 488.5 c 128,-1,15
 835 401 835 401 813 318.5 c 128,-1,16
 791 236 791 236 772.5 170 c 128,-1,17
 754 104 754 104 740 58.5 c 128,-1,18
 726 13 726 13 718 0 c 1,19,20
 624 -6 624 -6 539.5 -11 c 128,-1,21
 455 -16 455 -16 368 -16 c 1,22,-1
 244 520 l 1,0,-1
EndSplineSet
EndChar

StartChar: W
Encoding: 87 87 53
Width: 1605
Flags: W
LayerCount: 2
Fore
SplineSet
232 430 m 1,0,-1
 60 1239 l 1,1,-1
 321 1300 l 1,2,-1
 467 446 l 1,3,-1
 488 180 l 1,4,-1
 533 178 l 1,5,-1
 710 754 l 1,6,-1
 634 1137 l 1,7,-1
 893 1182 l 1,8,-1
 1018 598 l 1,9,-1
 1088 184 l 1,10,-1
 1142 188 l 1,11,12
 1152 252 1152 252 1164.5 340.5 c 128,-1,13
 1177 429 1177 429 1190.5 529 c 128,-1,14
 1204 629 1204 629 1217.5 736 c 128,-1,15
 1231 843 1231 843 1243 945 c 128,-1,16
 1255 1047 1255 1047 1264.5 1138 c 128,-1,17
 1274 1229 1274 1229 1279 1298 c 1,18,-1
 1557 1257 l 1,19,20
 1545 1183 1545 1183 1530.5 1087 c 128,-1,21
 1516 991 1516 991 1497.5 883.5 c 128,-1,22
 1479 776 1479 776 1456 661 c 128,-1,23
 1433 546 1433 546 1404 434 c 2,24,-1
 1292 0 l 1,25,-1
 938 -16 l 1,26,-1
 828 422 l 1,27,-1
 802 422 l 1,28,-1
 687 0 l 1,29,-1
 323 -16 l 1,30,-1
 232 430 l 1,0,-1
EndSplineSet
EndChar

StartChar: X
Encoding: 88 88 54
Width: 1136
Flags: W
LayerCount: 2
Fore
SplineSet
106 51 m 1,0,1
 112 100 112 100 125.5 155.5 c 128,-1,2
 139 211 139 211 157 267.5 c 128,-1,3
 175 324 175 324 195.5 379.5 c 128,-1,4
 216 435 216 435 236.5 483 c 128,-1,5
 257 531 257 531 276 569.5 c 128,-1,6
 295 608 295 608 309 631 c 1,7,-1
 413 690 l 1,8,9
 388 724 388 724 356.5 767 c 128,-1,10
 325 810 325 810 292 857 c 128,-1,11
 259 904 259 904 226.5 951.5 c 128,-1,12
 194 999 194 999 166.5 1041.5 c 128,-1,13
 139 1084 139 1084 117.5 1119 c 128,-1,14
 96 1154 96 1154 86 1176 c 1,15,-1
 317 1319 l 1,16,17
 373 1220 373 1220 426 1122 c 0,18,19
 448 1080 448 1080 472.5 1034.5 c 128,-1,20
 497 989 497 989 520.5 943 c 128,-1,21
 544 897 544 897 566.5 853.5 c 128,-1,22
 589 810 589 810 607 772 c 1,23,-1
 610 774 l 1,24,25
 617 792 617 792 632 832 c 128,-1,26
 647 872 647 872 666 923.5 c 128,-1,27
 685 975 685 975 706.5 1033 c 128,-1,28
 728 1091 728 1091 747 1145 c 128,-1,29
 766 1199 766 1199 781 1243.5 c 128,-1,30
 796 1288 796 1288 803 1313 c 1,31,-1
 1042 1243 l 1,32,33
 1036 1214 1036 1214 1019.5 1166.5 c 128,-1,34
 1003 1119 1003 1119 980 1063 c 128,-1,35
 957 1007 957 1007 930 947 c 128,-1,36
 903 887 903 887 877 832.5 c 128,-1,37
 851 778 851 778 828 734.5 c 128,-1,38
 805 691 805 691 790 668 c 1,39,-1
 710 627 l 1,40,41
 734 597 734 597 767 555 c 128,-1,42
 800 513 800 513 836.5 465.5 c 128,-1,43
 873 418 873 418 909.5 368 c 128,-1,44
 946 318 946 318 977.5 273 c 128,-1,45
 1009 228 1009 228 1033.5 190 c 128,-1,46
 1058 152 1058 152 1069 129 c 1,47,-1
 846 -16 l 1,48,49
 782 93 782 93 722 196 c 0,50,51
 696 240 696 240 669.5 287 c 128,-1,52
 643 334 643 334 617 379 c 128,-1,53
 591 424 591 424 568 466 c 128,-1,54
 545 508 545 508 527 541 c 1,55,-1
 501 528 l 1,56,57
 492 501 492 501 472 442 c 128,-1,58
 452 383 452 383 428.5 308 c 128,-1,59
 405 233 405 233 381.5 151 c 128,-1,60
 358 69 358 69 342 -2 c 1,61,-1
 106 51 l 1,62,-1
 106 51 l 1,0,1
EndSplineSet
EndChar

StartChar: Y
Encoding: 89 89 55
Width: 1042
Flags: W
LayerCount: 2
Fore
SplineSet
404 439 m 1,0,1
 378 441 378 441 353 444 c 128,-1,2
 328 447 328 447 303 451 c 1,3,4
 232 630 232 630 168 834 c 128,-1,5
 104 1038 104 1038 39 1245 c 1,6,-1
 299 1311 l 1,7,-1
 347 1149 l 1,8,-1
 465 614 l 1,9,10
 476 613 476 613 487 613 c 128,-1,11
 498 613 498 613 509 613 c 0,12,13
 532 613 532 613 554 614.5 c 128,-1,14
 576 616 576 616 600 621 c 1,15,-1
 737 1298 l 1,16,-1
 1007 1270 l 1,17,18
 986 1186 986 1186 967 1113.5 c 128,-1,19
 948 1041 948 1041 929 976 c 128,-1,20
 910 911 910 911 890.5 849.5 c 128,-1,21
 871 788 871 788 849 725.5 c 128,-1,22
 827 663 827 663 801.5 595.5 c 128,-1,23
 776 528 776 528 746 451 c 1,24,25
 723 447 723 447 699.5 444.5 c 128,-1,26
 676 442 676 442 652 440 c 1,27,-1
 622 0 l 1,28,-1
 407 -16 l 1,29,-1
 404 439 l 1,0,1
EndSplineSet
EndChar

StartChar: Z
Encoding: 90 90 56
Width: 929
Flags: W
LayerCount: 2
Fore
SplineSet
57 279 m 1,0,-1
 626 1014 l 1,1,-1
 602 1061 l 1,2,-1
 575 1061 l 2,3,4
 446 1061 446 1061 321 1073 c 128,-1,5
 196 1085 196 1085 75 1106 c 1,6,-1
 114 1327 l 1,7,8
 186 1319 186 1319 270 1310 c 128,-1,9
 354 1301 354 1301 442.5 1293 c 128,-1,10
 531 1285 531 1285 621.5 1278.5 c 128,-1,11
 712 1272 712 1272 798 1270 c 1,12,-1
 889 993 l 1,13,14
 836 917 836 917 767.5 824 c 128,-1,15
 699 731 699 731 623.5 632.5 c 128,-1,16
 548 534 548 534 471 437 c 128,-1,17
 394 340 394 340 325 256 c 1,18,-1
 338 217 l 1,19,-1
 369 217 l 2,20,21
 440 217 440 217 504.5 213.5 c 128,-1,22
 569 210 569 210 630.5 204 c 128,-1,23
 692 198 692 198 752 189.5 c 128,-1,24
 812 181 812 181 874 170 c 1,25,-1
 837 -57 l 1,26,27
 750 -50 750 -50 658 -40.5 c 128,-1,28
 566 -31 566 -31 473.5 -22 c 128,-1,29
 381 -13 381 -13 291.5 -4.5 c 128,-1,30
 202 4 202 4 121 10 c 1,31,-1
 57 279 l 1,0,-1
EndSplineSet
EndChar

StartChar: ampersand
Encoding: 38 38 57
Width: 1203
Flags: W
LayerCount: 2
Fore
SplineSet
222 158 m 0,0,1
 201 235 201 235 189.5 313 c 128,-1,2
 178 391 178 391 178 458 c 0,3,4
 178 468 178 468 190.5 492.5 c 128,-1,5
 203 517 203 517 228 548 c 128,-1,6
 253 579 253 579 289 611 c 128,-1,7
 325 643 325 643 373 667 c 1,8,-1
 373 692 l 1,9,10
 355 704 355 704 329.5 720.5 c 128,-1,11
 304 737 304 737 280.5 754.5 c 128,-1,12
 257 772 257 772 240.5 789 c 128,-1,13
 224 806 224 806 224 820 c 0,14,15
 224 879 224 879 226 934 c 128,-1,16
 228 989 228 989 233 1032 c 0,17,18
 236 1051 236 1051 240 1075 c 128,-1,19
 244 1099 244 1099 252.5 1122.5 c 128,-1,20
 261 1146 261 1146 274 1166.5 c 128,-1,21
 287 1187 287 1187 308 1198 c 1,22,23
 402 1256 402 1256 503.5 1286 c 128,-1,24
 605 1316 605 1316 727 1331 c 1,25,26
 749 1331 749 1331 781.5 1317 c 128,-1,27
 814 1303 814 1303 844.5 1283 c 128,-1,28
 875 1263 875 1263 899 1241 c 128,-1,29
 923 1219 923 1219 929 1204 c 0,30,31
 937 1182 937 1182 947.5 1148.5 c 128,-1,32
 958 1115 958 1115 968 1077.5 c 128,-1,33
 978 1040 978 1040 986 1002 c 128,-1,34
 994 964 994 964 999 933 c 1,35,-1
 759 872 l 1,36,37
 754 901 754 901 747 933 c 128,-1,38
 740 965 740 965 732.5 995 c 128,-1,39
 725 1025 725 1025 717 1051.5 c 128,-1,40
 709 1078 709 1078 701 1097 c 1,41,-1
 492 1057 l 1,42,43
 481 1012 481 1012 475.5 956.5 c 128,-1,44
 470 901 470 901 469 852 c 1,45,46
 537 812 537 812 615 771.5 c 128,-1,47
 693 731 693 731 775 691.5 c 128,-1,48
 857 652 857 652 939.5 613.5 c 128,-1,49
 1022 575 1022 575 1100 540 c 1,50,-1
 981 326 l 1,51,52
 895 367 895 367 812 410 c 0,53,54
 776 428 776 428 738 448.5 c 128,-1,55
 700 469 700 469 662 490 c 128,-1,56
 624 511 624 511 588 532 c 128,-1,57
 552 553 552 553 522 573 c 1,58,59
 510 559 510 559 495.5 540 c 128,-1,60
 481 521 481 521 467.5 501.5 c 128,-1,61
 454 482 454 482 442.5 465 c 128,-1,62
 431 448 431 448 424 439 c 1,63,64
 425 421 425 421 428.5 395.5 c 128,-1,65
 432 370 432 370 437.5 343 c 128,-1,66
 443 316 443 316 450 291 c 128,-1,67
 457 266 457 266 463 248 c 1,68,69
 484 241 484 241 523 234.5 c 128,-1,70
 562 228 562 228 609.5 223 c 128,-1,71
 657 218 657 218 708.5 215 c 128,-1,72
 760 212 760 212 805 212 c 0,73,74
 860 212 860 212 919 215 c 1,75,-1
 904 -6 l 1,76,77
 870 -11 870 -11 834 -14 c 128,-1,78
 798 -17 798 -17 760 -17 c 0,79,80
 680 -17 680 -17 604.5 -8 c 128,-1,81
 529 1 529 1 466 14 c 128,-1,82
 403 27 403 27 356 42.5 c 128,-1,83
 309 58 309 58 287 70 c 0,84,85
 262 84 262 84 247 103.5 c 128,-1,86
 232 123 232 123 222 158 c 0,0,1
EndSplineSet
EndChar

StartChar: zero
Encoding: 48 48 58
Width: 1077
Flags: W
LayerCount: 2
Fore
SplineSet
191 147 m 0,0,1
 177 217 177 217 167.5 290 c 128,-1,2
 158 363 158 363 152 427.5 c 128,-1,3
 146 492 146 492 143.5 542.5 c 128,-1,4
 141 593 141 593 141 618 c 0,5,6
 141 655 141 655 142 686.5 c 128,-1,7
 143 718 143 718 145.5 747 c 128,-1,8
 148 776 148 776 151.5 803.5 c 128,-1,9
 155 831 155 831 160 860 c 0,10,11
 163 878 163 878 168.5 894 c 128,-1,12
 174 910 174 910 185 923 c 128,-1,13
 196 936 196 936 215 946 c 128,-1,14
 234 956 234 956 264 963 c 0,15,16
 422 998 422 998 572.5 1013 c 128,-1,17
 723 1028 723 1028 874 1028 c 0,18,19
 883 1028 883 1028 889.5 1027.5 c 128,-1,20
 896 1027 896 1027 900 1027 c 0,21,22
 904 1026 904 1026 907 1026 c 1,23,-1
 925 795 l 1,24,25
 901 797 901 797 882.5 797 c 128,-1,26
 864 797 864 797 835 797 c 0,27,28
 767 797 767 797 699.5 793 c 128,-1,29
 632 789 632 789 573.5 782.5 c 128,-1,30
 515 776 515 776 471 769 c 128,-1,31
 427 762 427 762 407 756 c 1,32,33
 399 697 399 697 396 646 c 128,-1,34
 393 595 393 595 393 547 c 0,35,36
 393 508 393 508 395 461 c 128,-1,37
 397 414 397 414 401.5 365.5 c 128,-1,38
 406 317 406 317 413 269.5 c 128,-1,39
 420 222 420 222 430 182 c 1,40,-1
 624 182 l 1,41,42
 646 284 646 284 655 383.5 c 128,-1,43
 664 483 664 483 669 582 c 2,44,-1
 672 641 l 1,45,-1
 911 674 l 1,46,47
 912 657 912 657 912.5 641 c 128,-1,48
 913 625 913 625 913 608 c 0,49,50
 913 536 913 536 906.5 463 c 128,-1,51
 900 390 900 390 890.5 323 c 128,-1,52
 881 256 881 256 869 199.5 c 128,-1,53
 857 143 857 143 845 104 c 0,54,55
 839 85 839 85 834.5 67 c 128,-1,56
 830 49 830 49 823 34 c 128,-1,57
 816 19 816 19 805 7 c 128,-1,58
 794 -5 794 -5 776 -11 c 0,59,60
 754 -19 754 -19 715.5 -23 c 128,-1,61
 677 -27 677 -27 637.5 -28.5 c 128,-1,62
 598 -30 598 -30 565 -30.5 c 128,-1,63
 532 -31 532 -31 520 -31 c 0,64,65
 488 -31 488 -31 437 -27 c 128,-1,66
 386 -23 386 -23 336 -15 c 0,67,68
 299 -9 299 -9 275 -0.5 c 128,-1,69
 251 8 251 8 235.5 25.5 c 128,-1,70
 220 43 220 43 210 72 c 128,-1,71
 200 101 200 101 191 147 c 0,0,1
EndSplineSet
EndChar

StartChar: one
Encoding: 49 49 59
Width: 853
Flags: W
LayerCount: 2
Fore
SplineSet
143 186 m 1,0,-1
 348 176 l 1,1,-1
 338 651 l 1,2,3
 312 651 312 651 280 652 c 128,-1,4
 248 653 248 653 215 654.5 c 128,-1,5
 182 656 182 656 150.5 659 c 128,-1,6
 119 662 119 662 94 666 c 1,7,-1
 139 895 l 1,8,-1
 338 856 l 1,9,-1
 338 1001 l 1,10,-1
 571 1032 l 1,11,12
 579 993 579 993 583 928.5 c 128,-1,13
 587 864 587 864 587 793 c 0,14,15
 587 755 587 755 586 718.5 c 128,-1,16
 585 682 585 682 583 649 c 2,17,-1
 551 166 l 1,18,-1
 755 156 l 1,19,-1
 739 -59 l 1,20,21
 645 -56 645 -56 554.5 -50 c 128,-1,22
 464 -44 464 -44 383.5 -36.5 c 128,-1,23
 303 -29 303 -29 236 -20.5 c 128,-1,24
 169 -12 169 -12 123 -4 c 1,25,-1
 143 186 l 1,0,-1
EndSplineSet
EndChar

StartChar: two
Encoding: 50 50 60
Width: 960
Flags: W
LayerCount: 2
Fore
SplineSet
131 57 m 1,0,1
 122 121 122 121 122 197 c 0,2,3
 122 254 122 254 127 310.5 c 128,-1,4
 132 367 132 367 141 418 c 1,5,6
 190 433 190 433 250 458 c 128,-1,7
 310 483 310 483 369.5 512 c 128,-1,8
 429 541 429 541 481 571 c 128,-1,9
 533 601 533 601 567 627 c 1,10,-1
 563 713 l 1,11,12
 523 727 523 727 470 740.5 c 128,-1,13
 417 754 417 754 360.5 765.5 c 128,-1,14
 304 777 304 777 248 786 c 128,-1,15
 192 795 192 795 145 801 c 1,16,-1
 213 1026 l 1,17,-1
 258 1019 l 2,18,19
 330 1008 330 1008 390 998 c 128,-1,20
 450 988 450 988 504.5 976.5 c 128,-1,21
 559 965 559 965 613 949.5 c 128,-1,22
 667 934 667 934 729 912 c 0,23,24
 749 905 749 905 761.5 893.5 c 128,-1,25
 774 882 774 882 781 869.5 c 128,-1,26
 788 857 788 857 791 845 c 128,-1,27
 794 833 794 833 796 825 c 0,28,29
 804 795 804 795 809 749.5 c 128,-1,30
 814 704 814 704 814 650 c 0,31,32
 814 618 814 618 811.5 585 c 128,-1,33
 809 552 809 552 804 517 c 0,34,35
 802 500 802 500 790 489.5 c 128,-1,36
 778 479 778 479 760 466 c 0,37,38
 724 440 724 440 672.5 415 c 128,-1,39
 621 390 621 390 565 367.5 c 128,-1,40
 509 345 509 345 452.5 327 c 128,-1,41
 396 309 396 309 351 297 c 1,42,-1
 345 221 l 1,43,44
 376 213 376 213 434 205 c 128,-1,45
 492 197 492 197 561 190 c 128,-1,46
 630 183 630 183 701.5 177.5 c 128,-1,47
 773 172 773 172 831 170 c 1,48,-1
 794 -63 l 1,49,50
 713 -59 713 -59 625.5 -49.5 c 128,-1,51
 538 -40 538 -40 451 -25 c 128,-1,52
 364 -10 364 -10 282 10.5 c 128,-1,53
 200 31 200 31 131 57 c 1,0,1
EndSplineSet
EndChar

StartChar: three
Encoding: 51 51 61
Width: 950
Flags: W
LayerCount: 2
Fore
SplineSet
69 -143 m 1,0,1
 124 -116 124 -116 184.5 -88 c 128,-1,2
 245 -60 245 -60 307 -28.5 c 128,-1,3
 369 3 369 3 431.5 38.5 c 128,-1,4
 494 74 494 74 553 115 c 1,5,6
 556 133 556 133 556 153 c 0,7,8
 556 172 556 172 553.5 189.5 c 128,-1,9
 551 207 551 207 547 219 c 1,10,-1
 391 315 l 1,11,12
 341 288 341 288 298.5 266 c 128,-1,13
 256 244 256 244 207 221 c 1,14,-1
 108 428 l 1,15,16
 196 465 196 465 298.5 508 c 128,-1,17
 401 551 401 551 516 616 c 1,18,19
 516 629 516 629 515.5 639.5 c 128,-1,20
 515 650 515 650 514 660.5 c 128,-1,21
 513 671 513 671 511 682.5 c 128,-1,22
 509 694 509 694 506 709 c 1,23,24
 421 740 421 740 330.5 757 c 128,-1,25
 240 774 240 774 155 787 c 2,26,-1
 88 797 l 1,27,-1
 160 1026 l 1,28,29
 241 1011 241 1011 312.5 997 c 128,-1,30
 384 983 384 983 448 967.5 c 128,-1,31
 512 952 512 952 569.5 934 c 128,-1,32
 627 916 627 916 680 895 c 1,33,34
 712 879 712 879 722.5 855.5 c 128,-1,35
 733 832 733 832 740 801 c 0,36,37
 753 746 753 746 753 674 c 0,38,39
 753 643 753 643 750.5 607 c 128,-1,40
 748 571 748 571 743 526 c 1,41,42
 724 515 724 515 702 501.5 c 128,-1,43
 680 488 680 488 658.5 475 c 128,-1,44
 637 462 637 462 616 449.5 c 128,-1,45
 595 437 595 437 577 428 c 1,46,-1
 575 412 l 1,47,-1
 729 358 l 1,48,49
 759 346 759 346 775 322.5 c 128,-1,50
 791 299 791 299 798.5 270.5 c 128,-1,51
 806 242 806 242 807.5 211.5 c 128,-1,52
 809 181 809 181 809 155 c 0,53,54
 809 113 809 113 805.5 89 c 128,-1,55
 802 65 802 65 798 52 c 0,56,57
 794 37 794 37 788 31 c 0,58,59
 751 -8 751 -8 701 -48.5 c 128,-1,60
 651 -89 651 -89 595 -127.5 c 128,-1,61
 539 -166 539 -166 480.5 -201 c 128,-1,62
 422 -236 422 -236 369.5 -265 c 128,-1,63
 317 -294 317 -294 274 -315.5 c 128,-1,64
 231 -337 231 -337 205 -348 c 1,65,-1
 69 -143 l 1,66,-1
 69 -143 l 1,0,1
EndSplineSet
EndChar

StartChar: four
Encoding: 52 52 62
Width: 1085
Flags: W
LayerCount: 2
Fore
SplineSet
78 268 m 1,0,1
 107 358 107 358 131 447 c 128,-1,2
 155 536 155 536 173.5 612.5 c 128,-1,3
 192 689 192 689 204.5 748 c 128,-1,4
 217 807 217 807 223 838 c 2,5,-1
 258 1016 l 1,6,-1
 489 981 l 1,7,8
 489 946 489 946 484 903.5 c 128,-1,9
 479 861 479 861 468.5 809.5 c 128,-1,10
 458 758 458 758 440.5 695.5 c 128,-1,11
 423 633 423 633 399 557 c 2,12,-1
 309 279 l 1,13,14
 322 276 322 276 349 272 c 128,-1,15
 376 268 376 268 413.5 264 c 128,-1,16
 451 260 451 260 496.5 255.5 c 128,-1,17
 542 251 542 251 592 247 c 1,18,-1
 600 674 l 1,19,-1
 833 713 l 1,20,21
 836 693 836 693 837.5 661.5 c 128,-1,22
 839 630 839 630 839 594 c 0,23,24
 839 539 839 539 837 483.5 c 128,-1,25
 835 428 835 428 833 393 c 2,26,-1
 823 232 l 1,27,28
 880 229 880 229 929 227 c 128,-1,29
 978 225 978 225 1016 225 c 1,30,-1
 989 4 l 1,31,32
 947 4 947 4 902.5 6 c 128,-1,33
 858 8 858 8 810 10 c 1,34,-1
 794 -262 l 1,35,-1
 583 -283 l 1,36,-1
 588 28 l 1,37,38
 514 35 514 35 441.5 44.5 c 128,-1,39
 369 54 369 54 303 64.5 c 128,-1,40
 237 75 237 75 180.5 87 c 128,-1,41
 124 99 124 99 82 111 c 1,42,-1
 78 268 l 1,0,1
EndSplineSet
EndChar

StartChar: five
Encoding: 53 53 63
Width: 901
Flags: W
LayerCount: 2
Fore
SplineSet
55 -131 m 1,0,1
 110 -105 110 -105 168.5 -78.5 c 128,-1,2
 227 -52 227 -52 286 -23 c 128,-1,3
 345 6 345 6 404.5 39 c 128,-1,4
 464 72 464 72 522 111 c 1,5,6
 524 125 524 125 525 146.5 c 128,-1,7
 526 168 526 168 526 188 c 0,8,9
 526 214 526 214 523 237 c 128,-1,10
 520 260 520 260 512 266 c 0,11,12
 493 280 493 280 447 296.5 c 128,-1,13
 401 313 401 313 344 329.5 c 128,-1,14
 287 346 287 346 226 362.5 c 128,-1,15
 165 379 165 379 116 393 c 1,16,-1
 149 956 l 1,17,18
 306 992 306 992 441 1009 c 128,-1,19
 576 1026 576 1026 702 1026 c 0,20,21
 713 1026 713 1026 721 1025.5 c 128,-1,22
 729 1025 729 1025 734 1025 c 0,23,24
 740 1024 740 1024 745 1024 c 1,25,-1
 755 788 l 1,26,27
 747 789 747 789 730.5 789.5 c 128,-1,28
 714 790 714 790 696 790.5 c 128,-1,29
 678 791 678 791 661 791 c 128,-1,30
 644 791 644 791 635 791 c 0,31,32
 599 791 599 791 562 789.5 c 128,-1,33
 525 788 525 788 489.5 785.5 c 128,-1,34
 454 783 454 783 422.5 779 c 128,-1,35
 391 775 391 775 366 771 c 1,36,-1
 341 554 l 1,37,38
 432 537 432 537 521 511 c 128,-1,39
 610 485 610 485 692 452 c 0,40,41
 714 443 714 443 728.5 426.5 c 128,-1,42
 743 410 743 410 751 379 c 0,43,44
 764 326 764 326 768 271 c 128,-1,45
 772 216 772 216 772 159 c 0,46,47
 772 122 772 122 769 97 c 128,-1,48
 766 72 766 72 762 57 c 0,49,50
 758 39 758 39 753 29 c 1,51,52
 720 -6 720 -6 671.5 -45.5 c 128,-1,53
 623 -85 623 -85 567 -123.5 c 128,-1,54
 511 -162 511 -162 451.5 -198.5 c 128,-1,55
 392 -235 392 -235 338 -265 c 128,-1,56
 284 -295 284 -295 238.5 -317.5 c 128,-1,57
 193 -340 193 -340 166 -350 c 1,58,-1
 162 -342 l 1,59,-1
 55 -131 l 1,60,-1
 55 -131 l 1,0,1
EndSplineSet
EndChar

StartChar: six
Encoding: 54 54 64
Width: 1003
Flags: W
LayerCount: 2
Fore
SplineSet
184 66 m 0,0,1
 169 101 169 101 157.5 149.5 c 128,-1,2
 146 198 146 198 137.5 253.5 c 128,-1,3
 129 309 129 309 123.5 369 c 128,-1,4
 118 429 118 429 114.5 486 c 128,-1,5
 111 543 111 543 109.5 594.5 c 128,-1,6
 108 646 108 646 108 686 c 2,7,-1
 108 713 l 2,8,9
 108 769 108 769 149.5 839 c 128,-1,10
 191 909 191 909 260.5 989.5 c 128,-1,11
 330 1070 330 1070 421.5 1159 c 128,-1,12
 513 1248 513 1248 614 1341 c 1,13,-1
 774 1174 l 1,14,15
 711 1114 711 1114 658 1063.5 c 128,-1,16
 605 1013 605 1013 556 965 c 128,-1,17
 507 917 507 917 460.5 868 c 128,-1,18
 414 819 414 819 364 762 c 1,19,20
 361 739 361 739 359.5 711 c 128,-1,21
 358 683 358 683 357 652.5 c 128,-1,22
 356 622 356 622 356 590 c 128,-1,23
 356 558 356 558 356 528 c 0,24,25
 356 478 356 478 358.5 428.5 c 128,-1,26
 361 379 361 379 365.5 334 c 128,-1,27
 370 289 370 289 377 249.5 c 128,-1,28
 384 210 384 210 393 180 c 1,29,-1
 620 190 l 1,30,31
 637 231 637 231 649 295.5 c 128,-1,32
 661 360 661 360 661 432 c 0,33,34
 661 449 661 449 660.5 464 c 128,-1,35
 660 479 660 479 659 490 c 0,36,37
 658 502 658 502 657 512 c 1,38,39
 640 519 640 519 610.5 527.5 c 128,-1,40
 581 536 581 536 548.5 544 c 128,-1,41
 516 552 516 552 485.5 558.5 c 128,-1,42
 455 565 455 565 436 569 c 1,43,-1
 502 788 l 1,44,45
 544 780 544 780 595.5 766.5 c 128,-1,46
 647 753 647 753 696.5 736.5 c 128,-1,47
 746 720 746 720 787.5 702.5 c 128,-1,48
 829 685 829 685 852 670 c 0,49,50
 866 660 866 660 876 645 c 128,-1,51
 886 630 886 630 892 604 c 0,52,53
 903 558 903 558 903 465 c 0,54,55
 903 400 903 400 892.5 331.5 c 128,-1,56
 882 263 882 263 867.5 203 c 128,-1,57
 853 143 853 143 837 98 c 128,-1,58
 821 53 821 53 811 35 c 1,59,60
 795 13 795 13 768.5 -0.5 c 128,-1,61
 742 -14 742 -14 708 -20 c 0,62,63
 674 -27 674 -27 610 -29 c 128,-1,64
 546 -31 546 -31 465 -31 c 0,65,66
 424 -31 424 -31 388.5 -28 c 128,-1,67
 353 -25 353 -25 325 -19 c 0,68,69
 310 -16 310 -16 289.5 -10.5 c 128,-1,70
 269 -5 269 -5 248.5 5 c 128,-1,71
 228 15 228 15 210.5 29.5 c 128,-1,72
 193 44 193 44 184 66 c 0,0,1
EndSplineSet
EndChar

StartChar: seven
Encoding: 55 55 65
Width: 831
Flags: W
LayerCount: 2
Fore
SplineSet
153 -223 m 1,0,1
 158 -201 158 -201 163.5 -174 c 128,-1,2
 169 -147 169 -147 178.5 -105.5 c 128,-1,3
 188 -64 188 -64 203 -2 c 128,-1,4
 218 60 218 60 242 152 c 0,5,6
 258 212 258 212 279 268.5 c 128,-1,7
 300 325 300 325 321 371.5 c 128,-1,8
 342 418 342 418 360 452.5 c 128,-1,9
 378 487 378 487 387 504 c 2,10,-1
 510 727 l 1,11,-1
 504 756 l 1,12,13
 439 766 439 766 375 773 c 128,-1,14
 311 780 311 780 251.5 784.5 c 128,-1,15
 192 789 192 789 139 792 c 128,-1,16
 86 795 86 795 45 797 c 1,17,-1
 92 1026 l 1,18,19
 141 1021 141 1021 185 1017 c 128,-1,20
 229 1013 229 1013 270 1009 c 128,-1,21
 311 1005 311 1005 350 1000.5 c 128,-1,22
 389 996 389 996 428 991 c 0,23,24
 491 983 491 983 557.5 972 c 128,-1,25
 624 961 624 961 710 938 c 1,26,-1
 737 715 l 1,27,-1
 516 266 l 1,28,-1
 383 -266 l 1,29,-1
 153 -223 l 1,30,-1
 153 -223 l 1,0,1
EndSplineSet
EndChar

StartChar: eight
Encoding: 56 56 66
Width: 1069
Flags: W
LayerCount: 2
Fore
SplineSet
185 82 m 0,0,1
 170 136 170 136 159.5 198.5 c 128,-1,2
 149 261 149 261 149 318 c 0,3,4
 149 337 149 337 150.5 359 c 128,-1,5
 152 381 152 381 157.5 403 c 128,-1,6
 163 425 163 425 174 444 c 128,-1,7
 185 463 185 463 204 477 c 2,8,-1
 343 575 l 1,9,-1
 228 651 l 2,10,11
 203 667 203 667 186.5 680.5 c 128,-1,12
 170 694 170 694 160.5 710 c 128,-1,13
 151 726 151 726 147.5 746.5 c 128,-1,14
 144 767 144 767 144 799 c 0,15,16
 144 841 144 841 146.5 896 c 128,-1,17
 149 951 149 951 155 1004 c 128,-1,18
 161 1057 161 1057 170 1102 c 128,-1,19
 179 1147 179 1147 193 1169 c 0,20,21
 204 1186 204 1186 223.5 1197.5 c 128,-1,22
 243 1209 243 1209 277 1219 c 0,23,24
 323 1232 323 1232 391 1246.5 c 128,-1,25
 459 1261 459 1261 537 1272 c 128,-1,26
 615 1283 615 1283 697.5 1290.5 c 128,-1,27
 780 1298 780 1298 855 1298 c 0,28,29
 863 1298 863 1298 868.5 1297.5 c 128,-1,30
 874 1297 874 1297 878 1297 c 0,31,32
 882 1296 882 1296 885 1296 c 1,33,-1
 910 1067 l 1,34,-1
 822 1063 l 2,35,36
 754 1060 754 1060 685.5 1055.5 c 128,-1,37
 617 1051 617 1051 557.5 1045.5 c 128,-1,38
 498 1040 498 1040 453 1033.5 c 128,-1,39
 408 1027 408 1027 388 1020 c 1,40,41
 386 1009 386 1009 383.5 991 c 128,-1,42
 381 973 381 973 379 951 c 128,-1,43
 377 929 377 929 375.5 906 c 128,-1,44
 374 883 374 883 374 861 c 2,45,-1
 374 844 l 1,46,47
 412 805 412 805 458 768 c 128,-1,48
 504 731 504 731 551 696 c 1,49,-1
 646 797 l 1,50,51
 649 824 649 824 649 853 c 0,52,53
 649 876 649 876 648 899 c 128,-1,54
 647 922 647 922 646 946 c 1,55,56
 646 946 646 946 656 947.5 c 128,-1,57
 666 949 666 949 682.5 950.5 c 128,-1,58
 699 952 699 952 719.5 954.5 c 128,-1,59
 740 957 740 957 761 959 c 2,60,-1
 875 971 l 1,61,62
 870 900 870 900 867 842 c 128,-1,63
 864 784 864 784 854 750 c 0,64,65
 846 724 846 724 835 707 c 128,-1,66
 824 690 824 690 801 676 c 2,67,-1
 686 602 l 1,68,69
 724 575 724 575 762.5 548 c 128,-1,70
 801 521 801 521 837 495 c 0,71,72
 879 465 879 465 896.5 437.5 c 128,-1,73
 914 410 914 410 914 379 c 0,74,75
 914 363 914 363 911.5 334 c 128,-1,76
 909 305 909 305 904.5 269 c 128,-1,77
 900 233 900 233 892 193.5 c 128,-1,78
 884 154 884 154 873.5 117.5 c 128,-1,79
 863 81 863 81 848.5 50 c 128,-1,80
 834 19 834 19 816 0 c 1,81,82
 804 -8 804 -8 775.5 -14 c 128,-1,83
 747 -20 747 -20 712.5 -23.5 c 128,-1,84
 678 -27 678 -27 644 -29 c 128,-1,85
 610 -31 610 -31 588 -31 c 2,86,-1
 541 -31 l 2,87,88
 484 -31 484 -31 409 -24.5 c 128,-1,89
 334 -18 334 -18 261 2 c 0,90,91
 241 7 241 7 227.5 16.5 c 128,-1,92
 214 26 214 26 205.5 37 c 128,-1,93
 197 48 197 48 192 60 c 128,-1,94
 187 72 187 72 185 82 c 0,0,1
400 197 m 1,95,96
 412 194 412 194 434 191.5 c 128,-1,97
 456 189 456 189 483 186.5 c 128,-1,98
 510 184 510 184 539 182.5 c 128,-1,99
 568 181 568 181 593 181 c 0,100,101
 626 181 626 181 650 184 c 1,102,103
 654 201 654 201 658 223.5 c 128,-1,104
 662 246 662 246 665 269.5 c 128,-1,105
 668 293 668 293 670 315.5 c 128,-1,106
 672 338 672 338 672 356 c 2,107,-1
 672 367 l 1,108,-1
 502 489 l 1,109,-1
 384 375 l 1,110,111
 384 321 384 321 389 274.5 c 128,-1,112
 394 228 394 228 400 197 c 1,95,96
EndSplineSet
EndChar

StartChar: nine
Encoding: 57 57 67
Width: 1038
Flags: W
LayerCount: 2
Fore
SplineSet
200 -193 m 1,0,1
 267 -132 267 -132 325 -75.5 c 128,-1,2
 383 -19 383 -19 435.5 36.5 c 128,-1,3
 488 92 488 92 537 148.5 c 128,-1,4
 586 205 586 205 636 267 c 1,5,6
 648 330 648 330 653.5 393 c 128,-1,7
 659 456 659 456 659 520 c 0,8,9
 659 592 659 592 652.5 662.5 c 128,-1,10
 646 733 646 733 633 801 c 1,11,12
 622 801 622 801 610 802 c 128,-1,13
 598 803 598 803 567 803 c 0,14,15
 513 803 513 803 456.5 797 c 128,-1,16
 400 791 400 791 360 780 c 1,17,18
 356 762 356 762 353 747 c 128,-1,19
 350 732 350 732 348 716.5 c 128,-1,20
 346 701 346 701 345 683.5 c 128,-1,21
 344 666 344 666 344 645 c 0,22,23
 344 599 344 599 348 546.5 c 128,-1,24
 352 494 352 494 358 451 c 1,25,26
 376 443 376 443 401 436 c 128,-1,27
 426 429 426 429 452 422.5 c 128,-1,28
 478 416 478 416 504 410.5 c 128,-1,29
 530 405 530 405 551 401 c 1,30,-1
 483 184 l 1,31,32
 435 193 435 193 390.5 205.5 c 128,-1,33
 346 218 346 218 307 232 c 128,-1,34
 268 246 268 246 236.5 261 c 128,-1,35
 205 276 205 276 184 291 c 0,36,37
 169 302 169 302 160 316 c 128,-1,38
 151 330 151 330 143 356 c 0,39,40
 134 387 134 387 127 424.5 c 128,-1,41
 120 462 120 462 115.5 502 c 128,-1,42
 111 542 111 542 108.5 583.5 c 128,-1,43
 106 625 106 625 106 664 c 0,44,45
 106 699 106 699 108.5 737 c 128,-1,46
 111 775 111 775 116.5 809.5 c 128,-1,47
 122 844 122 844 130 872.5 c 128,-1,48
 138 901 138 901 149 918 c 0,49,50
 162 938 162 938 187.5 955 c 128,-1,51
 213 972 213 972 243 982 c 0,52,53
 272 992 272 992 325 1000 c 128,-1,54
 378 1008 378 1008 439.5 1014 c 128,-1,55
 501 1020 501 1020 562 1023 c 128,-1,56
 623 1026 623 1026 669 1026 c 0,57,58
 708 1026 708 1026 738 1023.5 c 128,-1,59
 768 1021 768 1021 791 1012 c 128,-1,60
 814 1003 814 1003 830.5 986 c 128,-1,61
 847 969 847 969 858 940 c 0,62,63
 869 910 869 910 877 872 c 128,-1,64
 885 834 885 834 890.5 793 c 128,-1,65
 896 752 896 752 898.5 709.5 c 128,-1,66
 901 667 901 667 901 627 c 0,67,68
 901 527 901 527 896 445 c 128,-1,69
 891 363 891 363 884 301 c 0,70,71
 878 241 878 241 836 167.5 c 128,-1,72
 794 94 794 94 725 10.5 c 128,-1,73
 656 -73 656 -73 565.5 -163 c 128,-1,74
 475 -253 475 -253 372 -346 c 1,75,-1
 200 -193 l 1,76,-1
 200 -193 l 1,0,1
EndSplineSet
EndChar

StartChar: period
Encoding: 46 46 68
Width: 503
Flags: W
LayerCount: 2
Fore
SplineSet
129 -2 m 1,0,1
 132 48 132 48 134.5 98 c 128,-1,2
 137 148 137 148 137 194 c 0,3,4
 137 211 137 211 136.5 228 c 128,-1,5
 136 245 136 245 135 260 c 1,6,-1
 377 285 l 1,7,8
 383 262 383 262 385.5 234 c 128,-1,9
 388 206 388 206 388 175 c 256,10,11
 388 144 388 144 385.5 113 c 128,-1,12
 383 82 383 82 379 55 c 128,-1,13
 375 28 375 28 369.5 7 c 128,-1,14
 364 -14 364 -14 358 -25 c 1,15,-1
 129 -2 l 1,16,-1
 129 -2 l 1,0,1
EndSplineSet
EndChar

StartChar: periodcentered
Encoding: 183 183 69
Width: 588
Flags: W
LayerCount: 2
Fore
SplineSet
169 457 m 1,0,1
 172 507 172 507 174.5 557 c 128,-1,2
 177 607 177 607 177 653 c 0,3,4
 177 670 177 670 176.5 687 c 128,-1,5
 176 704 176 704 175 719 c 1,6,-1
 417 744 l 1,7,8
 423 721 423 721 425.5 693 c 128,-1,9
 428 665 428 665 428 634 c 256,10,11
 428 603 428 603 425.5 572 c 128,-1,12
 423 541 423 541 419 514 c 128,-1,13
 415 487 415 487 409.5 466 c 128,-1,14
 404 445 404 445 398 434 c 1,15,-1
 169 457 l 1,16,-1
 169 457 l 1,0,1
EndSplineSet
EndChar

StartChar: bullet
Encoding: 8226 8226 70
Width: 721
Flags: W
LayerCount: 2
Fore
SplineSet
193 423 m 1,0,1
 198 486 198 486 200.5 556.5 c 128,-1,2
 203 627 203 627 203 689 c 0,3,4
 203 712 203 712 202.5 732 c 128,-1,5
 202 752 202 752 201 769 c 1,6,-1
 522 800 l 1,7,8
 530 772 530 772 533 735 c 128,-1,9
 536 698 536 698 536 656 c 0,10,11
 536 615 536 615 533 574 c 128,-1,12
 530 533 530 533 525.5 497.5 c 128,-1,13
 521 462 521 462 514.5 435 c 128,-1,14
 508 408 508 408 501 395 c 1,15,-1
 193 423 l 1,16,-1
 193 423 l 1,0,1
EndSplineSet
EndChar

StartChar: comma
Encoding: 44 44 71
Width: 483
Flags: W
LayerCount: 2
Fore
SplineSet
94 236 m 1,0,-1
 370 270 l 1,1,2
 378 253 378 253 388 209.5 c 128,-1,3
 398 166 398 166 398 109 c 0,4,5
 398 39 398 39 389 -17 c 128,-1,6
 380 -73 380 -73 361 -123.5 c 128,-1,7
 342 -174 342 -174 312.5 -224 c 128,-1,8
 283 -274 283 -274 241 -332 c 1,9,-1
 96 -322 l 1,10,11
 117 -286 117 -286 135 -245 c 128,-1,12
 153 -204 153 -204 166 -163 c 128,-1,13
 179 -122 179 -122 186.5 -83 c 128,-1,14
 194 -44 194 -44 194 -12 c 1,15,-1
 116 -4 l 1,16,-1
 94 236 l 1,0,-1
EndSplineSet
EndChar

StartChar: colon
Encoding: 58 58 72
Width: 501
Flags: W
LayerCount: 2
Fore
SplineSet
116 1012 m 1,0,-1
 370 1042 l 1,1,2
 394 962 394 962 394 870 c 0,3,4
 394 837 394 837 390.5 803.5 c 128,-1,5
 387 770 387 770 381 737 c 1,6,-1
 135 743 l 1,7,-1
 116 1012 l 1,0,-1
123 -23 m 1,8,9
 128 31 128 31 130.5 84 c 128,-1,10
 133 137 133 137 133 185 c 0,11,12
 133 202 133 202 132.5 218.5 c 128,-1,13
 132 235 132 235 131 250 c 1,14,-1
 381 276 l 1,15,16
 388 253 388 253 390.5 223.5 c 128,-1,17
 393 194 393 194 393 162 c 256,18,19
 393 130 393 130 390.5 98 c 128,-1,20
 388 66 388 66 384 38 c 128,-1,21
 380 10 380 10 374 -12 c 128,-1,22
 368 -34 368 -34 362 -45 c 1,23,-1
 123 -23 l 1,8,9
EndSplineSet
EndChar

StartChar: semicolon
Encoding: 59 59 73
Width: 557
Flags: W
LayerCount: 2
Fore
SplineSet
123 991 m 1,0,-1
 366 1022 l 1,1,2
 377 983 377 983 382.5 941 c 128,-1,3
 388 899 388 899 388 854 c 0,4,5
 388 793 388 793 377 729 c 1,6,-1
 139 733 l 1,7,-1
 123 991 l 1,0,-1
135 236 m 1,8,-1
 411 270 l 1,9,10
 419 253 419 253 429 209.5 c 128,-1,11
 439 166 439 166 439 109 c 0,12,13
 439 39 439 39 430 -17 c 128,-1,14
 421 -73 421 -73 402 -123.5 c 128,-1,15
 383 -174 383 -174 353.5 -224 c 128,-1,16
 324 -274 324 -274 282 -332 c 1,17,-1
 137 -322 l 1,18,19
 158 -286 158 -286 176 -245 c 128,-1,20
 194 -204 194 -204 207 -163 c 128,-1,21
 220 -122 220 -122 227.5 -83 c 128,-1,22
 235 -44 235 -44 235 -12 c 1,23,-1
 157 -4 l 1,24,-1
 135 236 l 1,8,-1
EndSplineSet
EndChar

StartChar: exclam
Encoding: 33 33 74
Width: 600
Flags: W
LayerCount: 2
Fore
SplineSet
186 1326 m 1,0,-1
 430 1371 l 1,1,-1
 434 1087 l 1,2,-1
 387 448 l 1,3,-1
 196 460 l 1,4,-1
 186 1326 l 1,0,-1
166 -6 m 1,5,6
 170 25 170 25 172.5 60 c 128,-1,7
 175 95 175 95 176.5 129.5 c 128,-1,8
 178 164 178 164 179 197 c 128,-1,9
 180 230 180 230 182 256 c 1,10,-1
 411 268 l 1,11,12
 417 247 417 247 419.5 222 c 128,-1,13
 422 197 422 197 422 170 c 0,14,15
 422 139 422 139 419 108 c 128,-1,16
 416 77 416 77 411.5 50 c 128,-1,17
 407 23 407 23 401 1.5 c 128,-1,18
 395 -20 395 -20 389 -31 c 1,19,-1
 166 -6 l 1,5,6
EndSplineSet
EndChar

StartChar: exclamdown
Encoding: 161 161 75
Width: 589
Flags: W
LayerCount: 2
Fore
SplineSet
164 693 m 1,0,1
 158 714 158 714 155.5 739 c 128,-1,2
 153 764 153 764 153 791 c 0,3,4
 153 822 153 822 156 853 c 128,-1,5
 159 884 159 884 163.5 911 c 128,-1,6
 168 938 168 938 174 959.5 c 128,-1,7
 180 981 180 981 186 992 c 1,8,-1
 409 967 l 1,9,10
 405 936 405 936 402.5 901 c 128,-1,11
 400 866 400 866 398.5 831.5 c 128,-1,12
 397 797 397 797 395.5 764 c 128,-1,13
 394 731 394 731 393 705 c 1,14,-1
 164 693 l 1,0,1
188 513 m 1,15,-1
 379 501 l 1,16,-1
 389 -365 l 1,17,-1
 145 -410 l 1,18,-1
 141 -126 l 1,19,-1
 188 513 l 1,15,-1
EndSplineSet
EndChar

StartChar: question
Encoding: 63 63 76
Width: 780
Flags: W
LayerCount: 2
Fore
SplineSet
161 453 m 1,0,1
 157 473 157 473 155.5 490 c 128,-1,2
 154 507 154 507 154 521 c 0,3,4
 154 553 154 553 162 565 c 0,5,6
 180 590 180 590 213.5 620.5 c 128,-1,7
 247 651 247 651 287 683.5 c 128,-1,8
 327 716 327 716 368.5 747.5 c 128,-1,9
 410 779 410 779 442 807 c 1,10,11
 444 824 444 824 445 840.5 c 128,-1,12
 446 857 446 857 446 872 c 0,13,14
 446 970 446 970 428 1068 c 1,15,16
 389 1072 389 1072 344 1079.5 c 128,-1,17
 299 1087 299 1087 252.5 1096.5 c 128,-1,18
 206 1106 206 1106 160.5 1116 c 128,-1,19
 115 1126 115 1126 74 1137 c 1,20,-1
 107 1380 l 1,21,-1
 638 1277 l 2,22,23
 666 1272 666 1272 680 1254 c 128,-1,24
 694 1236 694 1236 692 1207 c 2,25,-1
 672 768 l 2,26,27
 672 749 672 749 660.5 735 c 128,-1,28
 649 721 649 721 633 707 c 2,29,-1
 386 501 l 1,30,31
 371 486 371 486 368 461.5 c 128,-1,32
 365 437 365 437 365 417 c 1,33,-1
 161 453 l 1,0,1
157 -16 m 1,34,35
 157 53 157 53 155 122.5 c 128,-1,36
 153 192 153 192 147 246 c 1,37,-1
 387 285 l 1,38,39
 398 254 398 254 402.5 212 c 128,-1,40
 407 170 407 170 407 127 c 0,41,42
 407 102 407 102 405.5 78.5 c 128,-1,43
 404 55 404 55 401.5 35 c 128,-1,44
 399 15 399 15 395 -0.5 c 128,-1,45
 391 -16 391 -16 387 -25 c 1,46,-1
 157 -16 l 1,34,35
EndSplineSet
EndChar

StartChar: questiondown
Encoding: 191 191 77
Width: 723
Flags: W
LayerCount: 2
Fore
SplineSet
336 671 m 1,0,1
 325 702 325 702 320.5 744 c 128,-1,2
 316 786 316 786 316 829 c 0,3,4
 316 854 316 854 317.5 877.5 c 128,-1,5
 319 901 319 901 321.5 921 c 128,-1,6
 324 941 324 941 327.5 956.5 c 128,-1,7
 331 972 331 972 336 981 c 1,8,-1
 566 972 l 1,9,10
 566 903 566 903 568 833.5 c 128,-1,11
 570 764 570 764 576 710 c 1,12,-1
 336 671 l 1,0,1
51 188 m 2,13,14
 51 207 51 207 62.5 221 c 128,-1,15
 74 235 74 235 90 249 c 2,16,-1
 337 455 l 1,17,18
 352 470 352 470 355 494.5 c 128,-1,19
 358 519 358 519 358 539 c 1,20,-1
 562 503 l 1,21,22
 566 483 566 483 567.5 466 c 128,-1,23
 569 449 569 449 569 435 c 0,24,25
 569 403 569 403 561 391 c 0,26,27
 543 366 543 366 509.5 335.5 c 128,-1,28
 476 305 476 305 436 272.5 c 128,-1,29
 396 240 396 240 354.5 208.5 c 128,-1,30
 313 177 313 177 281 149 c 1,31,32
 279 132 279 132 278 115.5 c 128,-1,33
 277 99 277 99 277 84 c 0,34,35
 277 36 277 36 281.5 -15 c 128,-1,36
 286 -66 286 -66 295 -115 c 1,37,38
 334 -120 334 -120 379 -127 c 128,-1,39
 424 -134 424 -134 470.5 -143.5 c 128,-1,40
 517 -153 517 -153 562.5 -163.5 c 128,-1,41
 608 -174 608 -174 649 -184 c 1,42,-1
 616 -424 l 1,43,-1
 85 -321 l 2,44,45
 57 -316 57 -316 43 -298 c 128,-1,46
 29 -280 29 -280 31 -251 c 2,47,-1
 51 188 l 2,13,14
EndSplineSet
EndChar

StartChar: quoteleft
Encoding: 8216 8216 78
Width: 520
Flags: W
LayerCount: 2
Fore
SplineSet
147 748 m 1,0,1
 141 765 141 765 129.5 807 c 128,-1,2
 118 849 118 849 118 905 c 0,3,4
 118 1013 118 1013 144 1108 c 128,-1,5
 170 1203 170 1203 239 1298 c 1,6,-1
 407 1327 l 1,7,8
 386 1291 386 1291 369.5 1251 c 128,-1,9
 353 1211 353 1211 342 1171.5 c 128,-1,10
 331 1132 331 1132 325.5 1095 c 128,-1,11
 320 1058 320 1058 319 1028 c 1,12,-1
 395 1016 l 1,13,-1
 418 782 l 1,14,-1
 147 748 l 1,15,-1
 147 748 l 1,0,1
EndSplineSet
EndChar

StartChar: quoteright
Encoding: 8217 8217 79
Width: 520
Flags: W
LayerCount: 2
Fore
SplineSet
155 786 m 1,0,1
 170 818 170 818 181 853.5 c 128,-1,2
 192 889 192 889 200 924 c 128,-1,3
 208 959 208 959 212 990.5 c 128,-1,4
 216 1022 216 1022 217 1047 c 1,5,-1
 141 1059 l 1,6,-1
 118 1292 l 1,7,-1
 389 1327 l 1,8,9
 395 1310 395 1310 406.5 1267.5 c 128,-1,10
 418 1225 418 1225 418 1169 c 0,11,12
 418 1061 418 1061 391 959.5 c 128,-1,13
 364 858 364 858 295 762 c 1,14,-1
 291 762 l 1,15,-1
 155 786 l 1,16,-1
 155 786 l 1,0,1
EndSplineSet
EndChar

StartChar: quotedblleft
Encoding: 8220 8220 80
Width: 954
Flags: W
LayerCount: 2
Fore
SplineSet
581 748 m 1,0,1
 575 765 575 765 563.5 807 c 128,-1,2
 552 849 552 849 552 905 c 0,3,4
 552 1013 552 1013 578 1108 c 128,-1,5
 604 1203 604 1203 673 1298 c 1,6,-1
 841 1327 l 1,7,8
 820 1291 820 1291 803.5 1251 c 128,-1,9
 787 1211 787 1211 776 1171.5 c 128,-1,10
 765 1132 765 1132 759.5 1095 c 128,-1,11
 754 1058 754 1058 753 1028 c 1,12,-1
 829 1016 l 1,13,-1
 852 782 l 1,14,-1
 581 748 l 1,0,1
147 748 m 1,15,16
 141 765 141 765 129.5 807 c 128,-1,17
 118 849 118 849 118 905 c 0,18,19
 118 1013 118 1013 144 1108 c 128,-1,20
 170 1203 170 1203 239 1298 c 1,21,-1
 407 1327 l 1,22,23
 386 1291 386 1291 369.5 1251 c 128,-1,24
 353 1211 353 1211 342 1171.5 c 128,-1,25
 331 1132 331 1132 325.5 1095 c 128,-1,26
 320 1058 320 1058 319 1028 c 1,27,-1
 395 1016 l 1,28,-1
 418 782 l 1,29,-1
 147 748 l 1,15,16
EndSplineSet
EndChar

StartChar: quotedblright
Encoding: 8221 8221 81
Width: 954
Flags: W
LayerCount: 2
Fore
SplineSet
539 748 m 1,0,1
 560 784 560 784 576.5 824 c 128,-1,2
 593 864 593 864 604 903.5 c 128,-1,3
 615 943 615 943 620.5 980 c 128,-1,4
 626 1017 626 1017 627 1047 c 1,5,-1
 551 1059 l 1,6,-1
 528 1293 l 1,7,-1
 799 1327 l 1,8,9
 805 1310 805 1310 816.5 1268 c 128,-1,10
 828 1226 828 1226 828 1170 c 0,11,12
 828 1062 828 1062 802 967 c 128,-1,13
 776 872 776 872 707 777 c 1,14,-1
 539 748 l 1,0,1
105 748 m 1,15,16
 126 784 126 784 142.5 824 c 128,-1,17
 159 864 159 864 170 903.5 c 128,-1,18
 181 943 181 943 186.5 980 c 128,-1,19
 192 1017 192 1017 193 1047 c 1,20,-1
 117 1059 l 1,21,-1
 94 1293 l 1,22,-1
 365 1327 l 1,23,24
 371 1310 371 1310 382.5 1268 c 128,-1,25
 394 1226 394 1226 394 1170 c 0,26,27
 394 1062 394 1062 368 967 c 128,-1,28
 342 872 342 872 273 777 c 1,29,-1
 105 748 l 1,15,16
EndSplineSet
EndChar

StartChar: quotesingle
Encoding: 39 39 82
Width: 430
Flags: W
LayerCount: 2
Fore
SplineSet
137 793 m 1,0,1
 140 836 140 836 140 881 c 0,2,3
 140 987 140 987 127 1094 c 128,-1,4
 114 1201 114 1201 94 1292 c 1,5,-1
 313 1329 l 1,6,7
 327 1287 327 1287 333 1238.5 c 128,-1,8
 339 1190 339 1190 339 1138 c 0,9,10
 339 1059 339 1059 327.5 977.5 c 128,-1,11
 316 896 316 896 297 821 c 1,12,-1
 137 793 l 1,13,-1
 137 793 l 1,0,1
EndSplineSet
EndChar

StartChar: quotesinglbase
Encoding: 8218 8218 83
Width: 520
Flags: W
LayerCount: 2
Fore
SplineSet
118 268 m 1,0,-1
 389 303 l 1,1,2
 395 286 395 286 406.5 243.5 c 128,-1,3
 418 201 418 201 418 145 c 0,4,5
 418 37 418 37 391 -64.5 c 128,-1,6
 364 -166 364 -166 295 -262 c 1,7,-1
 291 -262 l 1,8,-1
 155 -238 l 1,9,10
 170 -206 170 -206 181 -170.5 c 128,-1,11
 192 -135 192 -135 200 -100 c 128,-1,12
 208 -65 208 -65 212 -33.5 c 128,-1,13
 216 -2 216 -2 217 23 c 1,14,-1
 141 35 l 1,15,-1
 118 268 l 1,0,-1
EndSplineSet
EndChar

StartChar: quotedbl
Encoding: 34 34 84
Width: 819
Flags: W
LayerCount: 2
Fore
SplineSet
526 793 m 1,0,1
 529 836 529 836 529 881 c 0,2,3
 529 987 529 987 516 1094 c 128,-1,4
 503 1201 503 1201 483 1292 c 1,5,-1
 702 1329 l 1,6,7
 716 1287 716 1287 722 1238.5 c 128,-1,8
 728 1190 728 1190 728 1138 c 0,9,10
 728 1059 728 1059 716.5 977.5 c 128,-1,11
 705 896 705 896 686 821 c 1,12,-1
 526 793 l 1,0,1
137 793 m 1,13,14
 140 836 140 836 140 881 c 0,15,16
 140 987 140 987 127 1094 c 128,-1,17
 114 1201 114 1201 94 1292 c 1,18,-1
 313 1329 l 1,19,20
 327 1287 327 1287 333 1238.5 c 128,-1,21
 339 1190 339 1190 339 1138 c 0,22,23
 339 1059 339 1059 327.5 977.5 c 128,-1,24
 316 896 316 896 297 821 c 1,25,-1
 137 793 l 1,13,14
EndSplineSet
EndChar

StartChar: quotedblbase
Encoding: 8222 8222 85
Width: 954
Flags: W
LayerCount: 2
Fore
SplineSet
528 262 m 1,0,-1
 799 296 l 1,1,2
 805 279 805 279 816.5 237 c 128,-1,3
 828 195 828 195 828 139 c 0,4,5
 828 31 828 31 802 -64 c 128,-1,6
 776 -159 776 -159 707 -254 c 1,7,-1
 539 -283 l 1,8,9
 560 -247 560 -247 576.5 -207 c 128,-1,10
 593 -167 593 -167 604 -127.5 c 128,-1,11
 615 -88 615 -88 620.5 -51 c 128,-1,12
 626 -14 626 -14 627 16 c 1,13,-1
 551 28 l 1,14,-1
 528 262 l 1,0,-1
94 262 m 1,15,-1
 365 296 l 1,16,17
 371 279 371 279 382.5 237 c 128,-1,18
 394 195 394 195 394 139 c 0,19,20
 394 31 394 31 368 -64 c 128,-1,21
 342 -159 342 -159 273 -254 c 1,22,-1
 105 -283 l 1,23,24
 126 -247 126 -247 142.5 -207 c 128,-1,25
 159 -167 159 -167 170 -127.5 c 128,-1,26
 181 -88 181 -88 186.5 -51 c 128,-1,27
 192 -14 192 -14 193 16 c 1,28,-1
 117 28 l 1,29,-1
 94 262 l 1,15,-1
EndSplineSet
EndChar

StartChar: guilsinglleft
Encoding: 8249 8249 86
Width: 684
Flags: W
LayerCount: 2
Fore
SplineSet
102 569 m 1,0,-1
 436 973 l 1,1,-1
 581 854 l 1,2,-1
 348 498 l 1,3,-1
 585 139 l 1,4,-1
 444 23 l 1,5,-1
 80 428 l 1,6,-1
 102 569 l 1,0,-1
EndSplineSet
EndChar

StartChar: guilsinglright
Encoding: 8250 8250 87
Width: 684
Flags: W
LayerCount: 2
Fore
SplineSet
322 510 m 1,0,-1
 85 869 l 1,1,-1
 226 985 l 1,2,-1
 590 580 l 1,3,-1
 568 439 l 1,4,-1
 234 35 l 1,5,-1
 89 154 l 1,6,-1
 322 510 l 1,0,-1
EndSplineSet
EndChar

StartChar: guillemotleft
Encoding: 171 171 88
Width: 1206
Flags: W
LayerCount: 2
Fore
SplineSet
624 587 m 1,0,-1
 958 991 l 1,1,-1
 1103 872 l 1,2,-1
 870 516 l 1,3,-1
 1107 157 l 1,4,-1
 966 41 l 1,5,-1
 602 446 l 1,6,-1
 624 587 l 1,0,-1
80 446 m 1,7,-1
 102 587 l 1,8,-1
 436 991 l 1,9,-1
 581 872 l 1,10,-1
 348 516 l 1,11,-1
 585 157 l 1,12,-1
 444 41 l 1,13,-1
 80 446 l 1,7,-1
EndSplineSet
EndChar

StartChar: guillemotright
Encoding: 187 187 89
Width: 1209
Flags: W
LayerCount: 2
Fore
SplineSet
847 510 m 1,0,-1
 610 869 l 1,1,-1
 751 985 l 1,2,-1
 1115 580 l 1,3,-1
 1093 439 l 1,4,-1
 759 35 l 1,5,-1
 614 154 l 1,6,-1
 847 510 l 1,0,-1
322 510 m 1,7,-1
 85 869 l 1,8,-1
 226 985 l 1,9,-1
 590 580 l 1,10,-1
 568 439 l 1,11,-1
 234 35 l 1,12,-1
 89 154 l 1,13,-1
 322 510 l 1,7,-1
EndSplineSet
EndChar

StartChar: onesuperior
Encoding: 185 185 90
Width: 661
Flags: W
LayerCount: 2
Fore
SplineSet
76 801 m 1,0,-1
 253 792 l 1,1,-1
 246 1174 l 1,2,3
 223 1174 223 1174 195 1175 c 128,-1,4
 167 1176 167 1176 137.5 1178 c 128,-1,5
 108 1180 108 1180 81 1182.5 c 128,-1,6
 54 1185 54 1185 33 1188 c 1,7,-1
 71 1386 l 1,8,-1
 246 1356 l 1,9,-1
 246 1481 l 1,10,-1
 448 1509 l 1,11,12
 455 1472 455 1472 459 1411 c 128,-1,13
 463 1350 463 1350 463 1284 c 0,14,15
 463 1255 463 1255 462 1226 c 128,-1,16
 461 1197 461 1197 459 1171 c 2,17,-1
 431 783 l 1,18,-1
 608 774 l 1,19,-1
 596 586 l 1,20,21
 515 588 515 588 435.5 593 c 128,-1,22
 356 598 356 598 285.5 604.5 c 128,-1,23
 215 611 215 611 156 618.5 c 128,-1,24
 97 626 97 626 55 633 c 1,25,-1
 76 801 l 1,0,-1
EndSplineSet
EndChar

StartChar: twosuperior
Encoding: 178 178 91
Width: 751
Flags: W
LayerCount: 2
Fore
SplineSet
86 692 m 1,0,1
 82 720 82 720 80.5 749.5 c 128,-1,2
 79 779 79 779 79 810 c 0,3,4
 79 861 79 861 83.5 912 c 128,-1,5
 88 963 88 963 96 1010 c 1,6,7
 139 1023 139 1023 192 1044.5 c 128,-1,8
 245 1066 245 1066 297 1091.5 c 128,-1,9
 349 1117 349 1117 395 1143.5 c 128,-1,10
 441 1170 441 1170 471 1192 c 1,11,-1
 467 1268 l 1,12,13
 431 1280 431 1280 384.5 1292 c 128,-1,14
 338 1304 338 1304 288.5 1314.5 c 128,-1,15
 239 1325 239 1325 189.5 1333 c 128,-1,16
 140 1341 140 1341 98 1346 c 1,17,-1
 157 1544 l 1,18,19
 230 1532 230 1532 288.5 1523 c 128,-1,20
 347 1514 347 1514 399.5 1503 c 128,-1,21
 452 1492 452 1492 502.5 1478.5 c 128,-1,22
 553 1465 553 1465 612 1444 c 0,23,24
 628 1438 628 1438 638.5 1429 c 128,-1,25
 649 1420 649 1420 655.5 1410 c 128,-1,26
 662 1400 662 1400 665.5 1390 c 128,-1,27
 669 1380 669 1380 671 1373 c 0,28,29
 672 1371 672 1371 672 1368 c 0,30,31
 679 1341 679 1341 683 1300 c 128,-1,32
 687 1259 687 1259 687 1211 c 0,33,34
 687 1183 687 1183 685.5 1153.5 c 128,-1,35
 684 1124 684 1124 680 1094 c 0,36,37
 677 1078 677 1078 661.5 1065.5 c 128,-1,38
 646 1053 646 1053 639 1049 c 0,39,40
 608 1029 608 1029 564 1008 c 128,-1,41
 520 987 520 987 471 967 c 128,-1,42
 422 947 422 947 373 930 c 128,-1,43
 324 913 324 913 284 903 c 1,44,-1
 278 836 l 1,45,46
 306 829 306 829 356.5 822 c 128,-1,47
 407 815 407 815 466.5 809 c 128,-1,48
 526 803 526 803 588.5 798 c 128,-1,49
 651 793 651 793 702 791 c 1,50,-1
 669 586 l 1,51,52
 598 589 598 589 521 597.5 c 128,-1,53
 444 606 444 606 367.5 619.5 c 128,-1,54
 291 633 291 633 219 651 c 128,-1,55
 147 669 147 669 86 692 c 1,0,1
EndSplineSet
EndChar

StartChar: threesuperior
Encoding: 179 179 92
Width: 747
Flags: W
LayerCount: 2
Fore
SplineSet
84 782 m 1,0,1
 124 786 124 786 168 792 c 128,-1,2
 212 798 212 798 257 805 c 128,-1,3
 302 812 302 812 345 820.5 c 128,-1,4
 388 829 388 829 426 838 c 1,5,6
 427 843 427 843 427 849.5 c 128,-1,7
 427 856 427 856 427 863 c 0,8,9
 427 887 427 887 424.5 914 c 128,-1,10
 422 941 422 941 418 954 c 1,11,-1
 332 997 l 1,12,13
 294 982 294 982 252.5 969.5 c 128,-1,14
 211 957 211 957 166 944 c 1,15,-1
 112 1139 l 1,16,17
 188 1150 188 1150 261.5 1164 c 128,-1,18
 335 1178 335 1178 420 1204 c 1,19,-1
 420 1280 l 1,20,21
 382 1295 382 1295 340 1305 c 128,-1,22
 298 1315 298 1315 255.5 1322 c 128,-1,23
 213 1329 213 1329 172 1334.5 c 128,-1,24
 131 1340 131 1340 94 1346 c 1,25,-1
 149 1542 l 1,26,27
 224 1530 224 1530 281.5 1521 c 128,-1,28
 339 1512 339 1512 389.5 1502 c 128,-1,29
 440 1492 440 1492 488.5 1479 c 128,-1,30
 537 1466 537 1466 594 1446 c 1,31,32
 617 1396 617 1396 626.5 1332.5 c 128,-1,33
 636 1269 636 1269 636 1203 c 0,34,35
 636 1192 636 1192 636 1180 c 128,-1,36
 636 1168 636 1168 635 1157 c 1,37,38
 600 1132 600 1132 566.5 1111.5 c 128,-1,39
 533 1091 533 1091 504 1075 c 1,40,-1
 504 1063 l 1,41,-1
 635 997 l 1,42,43
 641 990 641 990 645 977 c 0,44,45
 649 966 649 966 652 946 c 128,-1,46
 655 926 655 926 655 894 c 0,47,48
 655 850 655 850 649 807 c 128,-1,49
 643 764 643 764 633 721 c 1,50,51
 579 686 579 686 504.5 660.5 c 128,-1,52
 430 635 430 635 354.5 619 c 128,-1,53
 279 603 279 603 212.5 595.5 c 128,-1,54
 146 588 146 588 108 588 c 1,55,-1
 84 782 l 1,0,1
EndSplineSet
EndChar

StartChar: onequarter
Encoding: 188 188 93
Width: 1895
Flags: W
LayerCount: 2
Fore
SplineSet
114 801 m 1,0,-1
 292 792 l 1,1,-1
 284 1174 l 1,2,3
 262 1174 262 1174 234 1175 c 128,-1,4
 206 1176 206 1176 176.5 1178 c 128,-1,5
 147 1180 147 1180 119.5 1182.5 c 128,-1,6
 92 1185 92 1185 71 1188 c 1,7,-1
 110 1386 l 1,8,-1
 284 1356 l 1,9,-1
 284 1481 l 1,10,-1
 487 1509 l 1,11,12
 493 1472 493 1472 497 1412 c 128,-1,13
 501 1352 501 1352 501 1286 c 0,14,15
 501 1256 501 1256 500 1227 c 128,-1,16
 499 1198 499 1198 497 1171 c 2,17,-1
 469 783 l 1,18,-1
 647 774 l 1,19,-1
 635 586 l 1,20,21
 554 588 554 588 474.5 593 c 128,-1,22
 395 598 395 598 324.5 604.5 c 128,-1,23
 254 611 254 611 195 618.5 c 128,-1,24
 136 626 136 626 94 633 c 1,25,-1
 114 801 l 1,0,-1
1177 1436 m 1,26,-1
 1370 1327 l 1,27,-1
 567 -98 l 1,28,-1
 418 -14 l 1,29,-1
 1177 1436 l 1,26,-1
1075 225 m 1,30,31
 1098 295 1098 295 1118 364 c 128,-1,32
 1138 433 1138 433 1153.5 492.5 c 128,-1,33
 1169 552 1169 552 1180 598 c 128,-1,34
 1191 644 1191 644 1196 668 c 2,35,-1
 1224 805 l 1,36,-1
 1421 778 l 1,37,38
 1421 724 1421 724 1406.5 646 c 128,-1,39
 1392 568 1392 568 1353 451 c 2,40,-1
 1284 248 l 1,41,42
 1294 245 1294 245 1315 242 c 128,-1,43
 1336 239 1336 239 1365 236 c 128,-1,44
 1394 233 1394 233 1429.5 230 c 128,-1,45
 1465 227 1465 227 1504 224 c 1,46,-1
 1509 541 l 1,47,-1
 1710 571 l 1,48,49
 1712 554 1712 554 1713.5 527 c 128,-1,50
 1715 500 1715 500 1715 470 c 0,51,52
 1715 428 1715 428 1713.5 388.5 c 128,-1,53
 1712 349 1712 349 1710 324 c 2,54,-1
 1703 211 l 1,55,56
 1740 209 1740 209 1772.5 208 c 128,-1,57
 1805 207 1805 207 1831 207 c 1,58,-1
 1808 23 l 1,59,60
 1753 23 1753 23 1692 26 c 1,61,-1
 1679 -186 l 1,62,-1
 1497 -201 l 1,63,-1
 1501 39 l 1,64,65
 1439 45 1439 45 1377.5 52 c 128,-1,66
 1316 59 1316 59 1260.5 67.5 c 128,-1,67
 1205 76 1205 76 1158 85 c 128,-1,68
 1111 94 1111 94 1077 104 c 1,69,-1
 1075 225 l 1,30,31
EndSplineSet
EndChar

StartChar: onehalf
Encoding: 189 189 94
Width: 1814
Flags: W
LayerCount: 2
Fore
SplineSet
114 801 m 1,0,-1
 292 792 l 1,1,-1
 284 1174 l 1,2,3
 262 1174 262 1174 234 1175 c 128,-1,4
 206 1176 206 1176 176.5 1178 c 128,-1,5
 147 1180 147 1180 119.5 1182.5 c 128,-1,6
 92 1185 92 1185 71 1188 c 1,7,-1
 110 1386 l 1,8,-1
 284 1356 l 1,9,-1
 284 1481 l 1,10,-1
 487 1509 l 1,11,12
 493 1472 493 1472 497 1412 c 128,-1,13
 501 1352 501 1352 501 1286 c 0,14,15
 501 1256 501 1256 500 1227 c 128,-1,16
 499 1198 499 1198 497 1171 c 2,17,-1
 469 783 l 1,18,-1
 647 774 l 1,19,-1
 635 586 l 1,20,21
 554 588 554 588 474.5 593 c 128,-1,22
 395 598 395 598 324.5 604.5 c 128,-1,23
 254 611 254 611 195 618.5 c 128,-1,24
 136 626 136 626 94 633 c 1,25,-1
 114 801 l 1,0,-1
1177 1436 m 1,26,-1
 1370 1327 l 1,27,-1
 567 -98 l 1,28,-1
 418 -14 l 1,29,-1
 1177 1436 l 1,26,-1
1098 29 m 0,30,31
 1098 79 1098 79 1102.5 129 c 128,-1,32
 1107 179 1107 179 1116 225 c 1,33,34
 1159 238 1159 238 1212 260 c 128,-1,35
 1265 282 1265 282 1317 307.5 c 128,-1,36
 1369 333 1369 333 1415 359 c 128,-1,37
 1461 385 1461 385 1491 408 c 1,38,-1
 1487 483 l 1,39,40
 1451 495 1451 495 1404.5 507 c 128,-1,41
 1358 519 1358 519 1308.5 529.5 c 128,-1,42
 1259 540 1259 540 1209.5 548 c 128,-1,43
 1160 556 1160 556 1118 561 c 1,44,-1
 1177 760 l 1,45,46
 1250 748 1250 748 1308.5 739 c 128,-1,47
 1367 730 1367 730 1419.5 719 c 128,-1,48
 1472 708 1472 708 1522.5 694.5 c 128,-1,49
 1573 681 1573 681 1632 660 c 0,50,51
 1654 652 1654 652 1669.5 631 c 128,-1,52
 1685 610 1685 610 1691 584 c 0,53,54
 1698 556 1698 556 1702.5 515 c 128,-1,55
 1707 474 1707 474 1707 425 c 0,56,57
 1707 397 1707 397 1705.5 368 c 128,-1,58
 1704 339 1704 339 1700 309 c 0,59,60
 1697 294 1697 294 1684 282 c 128,-1,61
 1671 270 1671 270 1659 264 c 1,62,63
 1627 243 1627 243 1583 221.5 c 128,-1,64
 1539 200 1539 200 1490 180.5 c 128,-1,65
 1441 161 1441 161 1392.5 145 c 128,-1,66
 1344 129 1344 129 1304 119 c 1,67,-1
 1298 51 l 1,68,69
 1326 44 1326 44 1376.5 37 c 128,-1,70
 1427 30 1427 30 1486.5 24 c 128,-1,71
 1546 18 1546 18 1608.5 13 c 128,-1,72
 1671 8 1671 8 1722 6 c 1,73,-1
 1689 -199 l 1,74,75
 1618 -196 1618 -196 1541 -187.5 c 128,-1,76
 1464 -179 1464 -179 1387.5 -165.5 c 128,-1,77
 1311 -152 1311 -152 1238.5 -133.5 c 128,-1,78
 1166 -115 1166 -115 1106 -92 c 1,79,80
 1102 -63 1102 -63 1100 -33 c 128,-1,81
 1098 -3 1098 -3 1098 29 c 0,30,31
EndSplineSet
EndChar

StartChar: threequarters
Encoding: 190 190 95
Width: 1822
Flags: W
LayerCount: 2
Fore
SplineSet
114 801 m 1,0,-1
 292 792 l 1,1,-1
 284 1174 l 1,2,3
 262 1174 262 1174 234 1175 c 128,-1,4
 206 1176 206 1176 176.5 1178 c 128,-1,5
 147 1180 147 1180 119.5 1182.5 c 128,-1,6
 92 1185 92 1185 71 1188 c 1,7,-1
 110 1386 l 1,8,-1
 284 1356 l 1,9,-1
 284 1481 l 1,10,-1
 487 1509 l 1,11,12
 493 1472 493 1472 497 1412 c 128,-1,13
 501 1352 501 1352 501 1286 c 0,14,15
 501 1256 501 1256 500 1227 c 128,-1,16
 499 1198 499 1198 497 1171 c 2,17,-1
 469 783 l 1,18,-1
 647 774 l 1,19,-1
 635 586 l 1,20,21
 554 588 554 588 474.5 593 c 128,-1,22
 395 598 395 598 324.5 604.5 c 128,-1,23
 254 611 254 611 195 618.5 c 128,-1,24
 136 626 136 626 94 633 c 1,25,-1
 114 801 l 1,0,-1
1177 1436 m 1,26,-1
 1370 1327 l 1,27,-1
 567 -98 l 1,28,-1
 418 -14 l 1,29,-1
 1177 1436 l 1,26,-1
1110 -16 m 1,30,31
 1150 -12 1150 -12 1194 -6.5 c 128,-1,32
 1238 -1 1238 -1 1283 6 c 128,-1,33
 1328 13 1328 13 1371 21.5 c 128,-1,34
 1414 30 1414 30 1452 39 c 1,35,36
 1453 44 1453 44 1453 50.5 c 128,-1,37
 1453 57 1453 57 1453 64 c 0,38,39
 1453 88 1453 88 1450.5 115 c 128,-1,40
 1448 142 1448 142 1444 156 c 1,41,-1
 1358 199 l 1,42,43
 1320 183 1320 183 1278.5 170.5 c 128,-1,44
 1237 158 1237 158 1192 145 c 1,45,-1
 1138 340 l 1,46,47
 1214 351 1214 351 1287.5 365.5 c 128,-1,48
 1361 380 1361 380 1446 406 c 1,49,-1
 1446 481 l 1,50,51
 1408 496 1408 496 1366 506 c 128,-1,52
 1324 516 1324 516 1281.5 523 c 128,-1,53
 1239 530 1239 530 1198 535.5 c 128,-1,54
 1157 541 1157 541 1120 547 c 1,55,-1
 1175 743 l 1,56,57
 1250 732 1250 732 1307.5 723 c 128,-1,58
 1365 714 1365 714 1415.5 703.5 c 128,-1,59
 1466 693 1466 693 1514.5 680 c 128,-1,60
 1563 667 1563 667 1620 647 c 1,61,62
 1643 597 1643 597 1652.5 533.5 c 128,-1,63
 1662 470 1662 470 1662 404 c 0,64,65
 1662 393 1662 393 1662 381 c 128,-1,66
 1662 369 1662 369 1661 358 c 1,67,68
 1626 334 1626 334 1592.5 313 c 128,-1,69
 1559 292 1559 292 1530 276 c 1,70,-1
 1530 264 l 1,71,-1
 1661 199 l 1,72,73
 1667 192 1667 192 1671 179 c 0,74,75
 1675 168 1675 168 1678 147.5 c 128,-1,76
 1681 127 1681 127 1681 95 c 0,77,78
 1681 80 1681 80 1678 51 c 128,-1,79
 1675 22 1675 22 1671.5 -6.5 c 128,-1,80
 1668 -35 1668 -35 1664 -56.5 c 128,-1,81
 1660 -78 1660 -78 1659 -78 c 0,82,83
 1605 -113 1605 -113 1530.5 -138.5 c 128,-1,84
 1456 -164 1456 -164 1380.5 -180 c 128,-1,85
 1305 -196 1305 -196 1238.5 -203.5 c 128,-1,86
 1172 -211 1172 -211 1134 -211 c 1,87,-1
 1110 -16 l 1,30,31
EndSplineSet
EndChar

StartChar: ordfeminine
Encoding: 170 170 96
Width: 786
Flags: W
LayerCount: 2
Fore
SplineSet
147 531 m 0,0,1
 133 536 133 536 124.5 559.5 c 128,-1,2
 116 583 116 583 111 614.5 c 128,-1,3
 106 646 106 646 104 680 c 128,-1,4
 102 714 102 714 102 738 c 0,5,6
 102 757 102 757 104.5 786.5 c 128,-1,7
 107 816 107 816 113 844.5 c 128,-1,8
 119 873 119 873 128.5 895 c 128,-1,9
 138 917 138 917 151 920 c 0,10,11
 222 940 222 940 295.5 947.5 c 128,-1,12
 369 955 369 955 444 965 c 1,13,-1
 444 1036 l 1,14,15
 363 1052 363 1052 284 1062.5 c 128,-1,16
 205 1073 205 1073 125 1085 c 1,17,-1
 166 1286 l 1,18,19
 284 1268 284 1268 390.5 1250.5 c 128,-1,20
 497 1233 497 1233 585 1202 c 0,21,22
 619 1190 619 1190 628 1169 c 128,-1,23
 637 1148 637 1148 637 1128 c 2,24,-1
 639 733 l 1,25,-1
 456 719 l 1,26,-1
 450 813 l 1,27,28
 412 807 412 807 377.5 798 c 128,-1,29
 343 789 343 789 303 776 c 1,30,31
 300 759 300 759 298 748 c 128,-1,32
 296 737 296 737 296 723 c 0,33,34
 296 710 296 710 299 688 c 1,35,36
 389 668 389 668 483.5 656.5 c 128,-1,37
 578 645 578 645 684 633 c 1,38,-1
 649 438 l 1,39,40
 598 443 598 443 532 451 c 128,-1,41
 466 459 466 459 397.5 470.5 c 128,-1,42
 329 482 329 482 263.5 497 c 128,-1,43
 198 512 198 512 147 531 c 0,0,1
123 316 m 1,44,45
 170 306 170 306 224 297.5 c 128,-1,46
 278 289 278 289 333.5 282 c 128,-1,47
 389 275 389 275 444 269.5 c 128,-1,48
 499 264 499 264 547.5 259.5 c 128,-1,49
 596 255 596 255 636 252.5 c 128,-1,50
 676 250 676 250 702 249 c 1,51,-1
 678 48 l 1,52,53
 598 51 598 51 518 59 c 128,-1,54
 438 67 438 67 363.5 78.5 c 128,-1,55
 289 90 289 90 221.5 105 c 128,-1,56
 154 120 154 120 100 138 c 1,57,-1
 123 316 l 1,44,45
EndSplineSet
EndChar

StartChar: ordmasculine
Encoding: 186 186 97
Width: 800
Flags: W
LayerCount: 2
Fore
SplineSet
207 489 m 0,0,1
 181 499 181 499 172.5 520 c 128,-1,2
 164 541 164 541 159 569 c 0,3,4
 145 638 145 638 139 705.5 c 128,-1,5
 133 773 133 773 133 841 c 0,6,7
 133 870 133 870 134 898 c 128,-1,8
 135 926 135 926 137 954 c 1,9,-1
 331 987 l 1,10,11
 331 970 331 970 330.5 953.5 c 128,-1,12
 330 937 330 937 330 920 c 0,13,14
 330 855 330 855 333.5 792.5 c 128,-1,15
 337 730 337 730 346 655 c 1,16,-1
 461 664 l 1,17,18
 477 734 477 734 488 797.5 c 128,-1,19
 499 861 499 861 499 936 c 0,20,21
 499 970 499 970 498.5 988 c 128,-1,22
 498 1006 498 1006 493 1026 c 1,23,24
 485 1031 485 1031 454 1035.5 c 128,-1,25
 423 1040 423 1040 379.5 1043 c 128,-1,26
 336 1046 336 1046 285.5 1048 c 128,-1,27
 235 1050 235 1050 187 1050 c 0,28,29
 167 1050 167 1050 149 1050 c 128,-1,30
 131 1050 131 1050 114 1049 c 1,31,-1
 137 1237 l 1,32,33
 161 1239 161 1239 186.5 1240 c 128,-1,34
 212 1241 212 1241 240 1241 c 0,35,36
 331 1241 331 1241 434 1230 c 128,-1,37
 537 1219 537 1219 637 1199 c 0,38,39
 665 1194 665 1194 676.5 1176 c 128,-1,40
 688 1158 688 1158 692 1130 c 0,41,42
 696 1103 696 1103 699 1081.5 c 128,-1,43
 702 1060 702 1060 703.5 1040 c 128,-1,44
 705 1020 705 1020 705.5 999.5 c 128,-1,45
 706 979 706 979 706 954 c 0,46,47
 706 851 706 851 689.5 750 c 128,-1,48
 673 649 673 649 638 543 c 0,49,50
 632 524 632 524 624.5 510.5 c 128,-1,51
 617 497 617 497 600 494 c 1,52,53
 579 489 579 489 550 485.5 c 128,-1,54
 521 482 521 482 491 479.5 c 128,-1,55
 461 477 461 477 434 476 c 128,-1,56
 407 475 407 475 391 475 c 0,57,58
 383 475 383 475 359 475 c 128,-1,59
 335 475 335 475 306.5 476.5 c 128,-1,60
 278 478 278 478 250 481 c 128,-1,61
 222 484 222 484 207 489 c 0,0,1
120 300 m 1,62,63
 192 288 192 288 274.5 279 c 128,-1,64
 357 270 357 270 435 265 c 128,-1,65
 513 260 513 260 579 257.5 c 128,-1,66
 645 255 645 255 684 255 c 1,67,-1
 666 54 l 1,68,69
 505 54 505 54 361.5 73.5 c 128,-1,70
 218 93 218 93 106 124 c 1,71,-1
 120 300 l 1,62,63
EndSplineSet
EndChar

StartChar: degree
Encoding: 176 176 98
Width: 682
Flags: W
LayerCount: 2
Fore
SplineSet
344 729 m 0,0,1
 275 729 275 729 219 752.5 c 128,-1,2
 163 776 163 776 124 819.5 c 128,-1,3
 85 863 85 863 64 924.5 c 128,-1,4
 43 986 43 986 43 1061 c 0,5,6
 43 1126 43 1126 66 1175 c 128,-1,7
 89 1224 89 1224 130.5 1257 c 128,-1,8
 172 1290 172 1290 228.5 1306.5 c 128,-1,9
 285 1323 285 1323 352 1323 c 0,10,11
 410 1323 410 1323 463 1308 c 128,-1,12
 516 1293 516 1293 556.5 1262 c 128,-1,13
 597 1231 597 1231 621 1183 c 128,-1,14
 645 1135 645 1135 645 1069 c 0,15,16
 645 1001 645 1001 626.5 939 c 128,-1,17
 608 877 608 877 570.5 830.5 c 128,-1,18
 533 784 533 784 476.5 756.5 c 128,-1,19
 420 729 420 729 344 729 c 0,0,1
338 913 m 0,20,21
 362 913 362 913 383.5 918 c 128,-1,22
 405 923 405 923 420.5 937 c 128,-1,23
 436 951 436 951 445 975.5 c 128,-1,24
 454 1000 454 1000 454 1040 c 0,25,26
 454 1097 454 1097 426 1118 c 128,-1,27
 398 1139 398 1139 346 1139 c 0,28,29
 325 1139 325 1139 304.5 1134.5 c 128,-1,30
 284 1130 284 1130 267.5 1119.5 c 128,-1,31
 251 1109 251 1109 241 1092 c 128,-1,32
 231 1075 231 1075 231 1049 c 0,33,34
 231 1020 231 1020 236 995 c 128,-1,35
 241 970 241 970 253.5 952 c 128,-1,36
 266 934 266 934 286.5 923.5 c 128,-1,37
 307 913 307 913 338 913 c 0,20,21
EndSplineSet
EndChar

StartChar: less
Encoding: 60 60 99
Width: 1050
Flags: W
LayerCount: 2
Fore
SplineSet
147 602 m 1,0,-1
 782 1038 l 1,1,-1
 899 877 l 1,2,-1
 346 504 l 1,3,-1
 899 152 l 1,4,-1
 778 -18 l 1,5,-1
 106 430 l 1,6,-1
 147 602 l 1,0,-1
EndSplineSet
EndChar

StartChar: greater
Encoding: 62 62 100
Width: 1050
Flags: W
LayerCount: 2
Fore
SplineSet
690 506 m 1,0,-1
 137 858 l 1,1,-1
 258 1028 l 1,2,-1
 930 580 l 1,3,-1
 889 408 l 1,4,-1
 254 -28 l 1,5,-1
 137 133 l 1,6,-1
 690 506 l 1,0,-1
EndSplineSet
EndChar

StartChar: plus
Encoding: 43 43 101
Width: 1155
Flags: W
LayerCount: 2
Fore
SplineSet
153 600 m 1,0,-1
 479 603 l 1,1,-1
 471 977 l 1,2,-1
 700 1022 l 1,3,-1
 700 799 l 1,4,-1
 694 606 l 1,5,-1
 1040 610 l 1,6,-1
 1030 422 l 1,7,8
 939 418 939 418 859 414 c 128,-1,9
 779 410 779 410 694 407 c 1,10,-1
 694 406 l 1,11,-1
 678 -4 l 1,12,-1
 483 -20 l 1,13,-1
 481 403 l 1,14,-1
 458 403 l 2,15,16
 408 403 408 403 368 403.5 c 128,-1,17
 328 404 328 404 290 405.5 c 128,-1,18
 252 407 252 407 212.5 409 c 128,-1,19
 173 411 173 411 125 414 c 1,20,-1
 153 600 l 1,0,-1
EndSplineSet
EndChar

StartChar: plusminus
Encoding: 177 177 102
Width: 1153
Flags: W
LayerCount: 2
Fore
SplineSet
471 522 m 1,0,-1
 471 530 l 1,1,-1
 450 530 l 2,2,3
 400 530 400 530 364.5 530.5 c 128,-1,4
 329 531 329 531 296 532 c 128,-1,5
 263 533 263 533 228 535.5 c 128,-1,6
 193 538 193 538 145 541 c 1,7,-1
 166 719 l 1,8,-1
 476 722 l 1,9,-1
 469 977 l 1,10,-1
 688 1022 l 1,11,-1
 688 860 l 1,12,-1
 682 725 l 1,13,-1
 1018 729 l 1,14,-1
 1007 549 l 1,15,16
 915 545 915 545 836.5 541 c 128,-1,17
 758 537 758 537 674 534 c 1,18,-1
 674 522 l 1,19,-1
 657 256 l 1,20,-1
 473 240 l 1,21,-1
 471 522 l 1,0,-1
145 141 m 1,22,-1
 1038 152 l 1,23,-1
 1028 -29 l 1,24,25
 954 -32 954 -32 886.5 -35 c 128,-1,26
 819 -38 819 -38 750 -41 c 128,-1,27
 681 -44 681 -44 608 -45.5 c 128,-1,28
 535 -47 535 -47 450 -47 c 0,29,30
 400 -47 400 -47 361 -46.5 c 128,-1,31
 322 -46 322 -46 286 -45 c 128,-1,32
 250 -44 250 -44 211.5 -42 c 128,-1,33
 173 -40 173 -40 125 -37 c 1,34,-1
 145 141 l 1,22,-1
EndSplineSet
EndChar

StartChar: hyphen
Encoding: 45 45 103
Width: 943
Flags: W
LayerCount: 2
Fore
SplineSet
153 629 m 1,0,-1
 828 639 l 1,1,-1
 818 432 l 1,2,3
 769 430 769 430 732.5 428 c 128,-1,4
 696 426 696 426 665.5 423.5 c 128,-1,5
 635 421 635 421 607 419.5 c 128,-1,6
 579 418 579 418 546 416.5 c 128,-1,7
 513 415 513 415 472 414 c 128,-1,8
 431 413 431 413 375 413 c 0,9,10
 325 413 325 413 297.5 413.5 c 128,-1,11
 270 414 270 414 248 415.5 c 128,-1,12
 226 417 226 417 199.5 419 c 128,-1,13
 173 421 173 421 125 424 c 1,14,-1
 153 629 l 1,0,-1
EndSplineSet
EndChar

StartChar: equal
Encoding: 61 61 104
Width: 1104
Flags: W
LayerCount: 2
Fore
SplineSet
215 827 m 1,0,-1
 938 827 l 1,1,-1
 923 647 l 1,2,3
 848 641 848 641 765.5 639 c 128,-1,4
 683 637 683 637 587 637 c 0,5,6
 534 637 534 637 476 637.5 c 128,-1,7
 418 638 418 638 362.5 638.5 c 128,-1,8
 307 639 307 639 258.5 640 c 128,-1,9
 210 641 210 641 176 643 c 1,10,-1
 215 827 l 1,0,-1
215 436 m 1,11,-1
 938 436 l 1,12,-1
 923 256 l 1,13,14
 835 250 835 250 734 246 c 128,-1,15
 633 242 633 242 524 242 c 0,16,17
 479 242 479 242 430 242.5 c 128,-1,18
 381 243 381 243 334.5 244.5 c 128,-1,19
 288 246 288 246 246.5 247 c 128,-1,20
 205 248 205 248 176 250 c 1,21,-1
 215 436 l 1,11,-1
EndSplineSet
EndChar

StartChar: multiply
Encoding: 215 215 105
Width: 1104
Flags: W
LayerCount: 2
Fore
SplineSet
142 211 m 1,0,1
 194 264 194 264 248 319 c 0,2,3
 294 366 294 366 346.5 419.5 c 128,-1,4
 399 473 399 473 447 520 c 1,5,6
 417 548 417 548 373 593 c 128,-1,7
 329 638 329 638 283.5 686.5 c 128,-1,8
 238 735 238 735 197.5 781.5 c 128,-1,9
 157 828 157 828 134 860 c 1,10,11
 176 895 176 895 218.5 932 c 128,-1,12
 261 969 261 969 303 1004 c 1,13,14
 346 946 346 946 390 886 c 0,15,16
 409 860 409 860 429.5 832 c 128,-1,17
 450 804 450 804 471 774.5 c 128,-1,18
 492 745 492 745 513 716 c 128,-1,19
 534 687 534 687 553 660 c 1,20,21
 578 695 578 695 612.5 742 c 128,-1,22
 647 789 647 789 683 836 c 128,-1,23
 719 883 719 883 753.5 925.5 c 128,-1,24
 788 968 788 968 814 994 c 1,25,-1
 983 860 l 1,26,27
 929 803 929 803 874 747 c 0,28,29
 827 699 827 699 773 643.5 c 128,-1,30
 719 588 719 588 672 541 c 1,31,32
 702 514 702 514 745.5 473.5 c 128,-1,33
 789 433 789 433 833 389.5 c 128,-1,34
 877 346 877 346 915.5 304 c 128,-1,35
 954 262 954 262 975 232 c 1,36,37
 939 200 939 200 913 177.5 c 128,-1,38
 887 155 887 155 867.5 138.5 c 128,-1,39
 848 122 848 122 833.5 109.5 c 128,-1,40
 819 97 819 97 805 85 c 1,41,42
 764 135 764 135 723 188 c 0,43,44
 688 233 688 233 645.5 287 c 128,-1,45
 603 341 603 341 565 392 c 1,46,47
 538 353 538 353 504 307 c 128,-1,48
 470 261 470 261 435.5 216.5 c 128,-1,49
 401 172 401 172 369.5 135 c 128,-1,50
 338 98 338 98 315 77 c 1,51,-1
 142 211 l 1,52,-1
 142 211 l 1,0,1
EndSplineSet
EndChar

StartChar: divide
Encoding: 247 247 106
Width: 957
Flags: W
LayerCount: 2
Fore
SplineSet
361 1057 m 1,0,-1
 615 1087 l 1,1,2
 638 1006 638 1006 638 917 c 0,3,4
 638 884 638 884 635 850 c 128,-1,5
 632 816 632 816 625 782 c 1,6,-1
 380 788 l 1,7,-1
 361 1057 l 1,0,-1
95 612 m 1,8,-1
 900 622 l 1,9,-1
 890 434 l 1,10,11
 816 431 816 431 755.5 427.5 c 128,-1,12
 695 424 695 424 635.5 421.5 c 128,-1,13
 576 419 576 419 510 417 c 128,-1,14
 444 415 444 415 360 415 c 0,15,16
 310 415 310 415 276 415.5 c 128,-1,17
 242 416 242 416 211.5 417.5 c 128,-1,18
 181 419 181 419 148 421 c 128,-1,19
 115 423 115 423 67 426 c 1,20,-1
 95 612 l 1,8,-1
367 -23 m 1,21,22
 372 31 372 31 375 84.5 c 128,-1,23
 378 138 378 138 378 186 c 0,24,25
 378 203 378 203 377.5 219.5 c 128,-1,26
 377 236 377 236 376 250 c 1,27,-1
 625 276 l 1,28,29
 632 252 632 252 635 221.5 c 128,-1,30
 638 191 638 191 638 159 c 256,31,32
 638 127 638 127 635.5 95.5 c 128,-1,33
 633 64 633 64 629 36.5 c 128,-1,34
 625 9 625 9 619 -12.5 c 128,-1,35
 613 -34 613 -34 607 -45 c 1,36,-1
 367 -23 l 1,21,22
EndSplineSet
EndChar

StartChar: logicalnot
Encoding: 172 172 107
Width: 1271
Flags: W
LayerCount: 2
Fore
SplineSet
139 715 m 1,0,-1
 1157 715 l 1,1,-1
 1157 98 l 1,2,-1
 960 78 l 1,3,-1
 960 522 l 1,4,-1
 125 522 l 1,5,-1
 139 715 l 1,0,-1
EndSplineSet
EndChar

StartChar: mu
Encoding: 181 181 108
AltUni2: 0003bc.ffffffff.0
Width: 1265
Flags: W
LayerCount: 2
Fore
SplineSet
179 -145 m 0,0,1
 179 15 179 15 183.5 155 c 128,-1,2
 188 295 188 295 194 429 c 128,-1,3
 200 563 200 563 206 697 c 128,-1,4
 212 831 212 831 215 979 c 1,5,-1
 446 1004 l 1,6,-1
 465 250 l 1,7,8
 481 241 481 241 500 235 c 0,9,10
 517 230 517 230 538 225.5 c 128,-1,11
 559 221 559 221 585 221 c 0,12,13
 613 221 613 221 654.5 233.5 c 128,-1,14
 696 246 696 246 745 270 c 1,15,-1
 772 985 l 1,16,-1
 999 985 l 1,17,-1
 987 193 l 1,18,-1
 1007 184 l 1,19,-1
 1163 246 l 1,20,-1
 1222 55 l 1,21,22
 1170 29 1170 29 1104.5 14.5 c 128,-1,23
 1039 0 1039 0 973 0 c 0,24,25
 938 0 938 0 904.5 4.5 c 128,-1,26
 871 9 871 9 841 18 c 1,27,-1
 764 170 l 1,28,-1
 630 2 l 1,29,30
 619 0 619 0 601.5 -0.5 c 128,-1,31
 584 -1 584 -1 564 -1 c 0,32,33
 536 -1 536 -1 513 0.5 c 128,-1,34
 490 2 490 2 485 6 c 0,35,36
 470 18 470 18 455.5 36 c 128,-1,37
 441 54 441 54 428.5 73.5 c 128,-1,38
 416 93 416 93 404.5 113 c 128,-1,39
 393 133 393 133 383 150 c 1,40,-1
 370 147 l 1,41,42
 370 140 370 140 373 108 c 128,-1,43
 376 76 376 76 381.5 26 c 128,-1,44
 387 -24 387 -24 393.5 -87.5 c 128,-1,45
 400 -151 400 -151 406.5 -221 c 128,-1,46
 413 -291 413 -291 420 -362 c 128,-1,47
 427 -433 427 -433 432 -498 c 1,48,-1
 186 -524 l 1,49,50
 182 -420 182 -420 180.5 -326.5 c 128,-1,51
 179 -233 179 -233 179 -145 c 0,0,1
EndSplineSet
EndChar

StartChar: percent
Encoding: 37 37 109
Width: 1510
Flags: W
LayerCount: 2
Fore
SplineSet
1005 1345 m 1,0,-1
 1203 1253 l 1,1,-1
 492 -92 l 1,2,-1
 332 -15 l 1,3,-1
 1005 1345 l 1,0,-1
405 659 m 0,4,5
 336 659 336 659 280 682.5 c 128,-1,6
 224 706 224 706 185 749.5 c 128,-1,7
 146 793 146 793 125 854.5 c 128,-1,8
 104 916 104 916 104 991 c 0,9,10
 104 1056 104 1056 127 1105 c 128,-1,11
 150 1154 150 1154 191.5 1187 c 128,-1,12
 233 1220 233 1220 289.5 1236.5 c 128,-1,13
 346 1253 346 1253 413 1253 c 0,14,15
 471 1253 471 1253 524 1238 c 128,-1,16
 577 1223 577 1223 617.5 1192 c 128,-1,17
 658 1161 658 1161 682 1113 c 128,-1,18
 706 1065 706 1065 706 999 c 0,19,20
 706 931 706 931 687.5 869 c 128,-1,21
 669 807 669 807 631.5 760.5 c 128,-1,22
 594 714 594 714 537.5 686.5 c 128,-1,23
 481 659 481 659 405 659 c 0,4,5
399 843 m 0,24,25
 423 843 423 843 444.5 848 c 128,-1,26
 466 853 466 853 481.5 867 c 128,-1,27
 497 881 497 881 506 905.5 c 128,-1,28
 515 930 515 930 515 970 c 0,29,30
 515 1027 515 1027 487 1048 c 128,-1,31
 459 1069 459 1069 407 1069 c 0,32,33
 386 1069 386 1069 365.5 1064.5 c 128,-1,34
 345 1060 345 1060 328.5 1049.5 c 128,-1,35
 312 1039 312 1039 302 1022 c 128,-1,36
 292 1005 292 1005 292 979 c 0,37,38
 292 950 292 950 297 925 c 128,-1,39
 302 900 302 900 314.5 882 c 128,-1,40
 327 864 327 864 347.5 853.5 c 128,-1,41
 368 843 368 843 399 843 c 0,24,25
813 300 m 0,42,43
 813 365 813 365 836 414 c 128,-1,44
 859 463 859 463 900.5 496 c 128,-1,45
 942 529 942 529 998.5 545.5 c 128,-1,46
 1055 562 1055 562 1122 562 c 0,47,48
 1180 562 1180 562 1233 547 c 128,-1,49
 1286 532 1286 532 1326.5 501 c 128,-1,50
 1367 470 1367 470 1391 422 c 128,-1,51
 1415 374 1415 374 1415 308 c 0,52,53
 1415 240 1415 240 1396.5 178 c 128,-1,54
 1378 116 1378 116 1340.5 69.5 c 128,-1,55
 1303 23 1303 23 1246.5 -4.5 c 128,-1,56
 1190 -32 1190 -32 1114 -32 c 0,57,58
 1045 -32 1045 -32 989 -8.5 c 128,-1,59
 933 15 933 15 894 58.5 c 128,-1,60
 855 102 855 102 834 163.5 c 128,-1,61
 813 225 813 225 813 300 c 0,42,43
1001 288 m 0,62,63
 1001 259 1001 259 1006 234 c 128,-1,64
 1011 209 1011 209 1023.5 191 c 128,-1,65
 1036 173 1036 173 1056.5 162.5 c 128,-1,66
 1077 152 1077 152 1108 152 c 0,67,68
 1132 152 1132 152 1153.5 157 c 128,-1,69
 1175 162 1175 162 1190.5 176 c 128,-1,70
 1206 190 1206 190 1215 214.5 c 128,-1,71
 1224 239 1224 239 1224 279 c 0,72,73
 1224 336 1224 336 1196 357 c 128,-1,74
 1168 378 1168 378 1116 378 c 0,75,76
 1095 378 1095 378 1074.5 373.5 c 128,-1,77
 1054 369 1054 369 1037.5 358.5 c 128,-1,78
 1021 348 1021 348 1011 331 c 128,-1,79
 1001 314 1001 314 1001 288 c 0,62,63
EndSplineSet
EndChar

StartChar: numbersign
Encoding: 35 35 110
Width: 1294
Flags: W
LayerCount: 2
Fore
SplineSet
277 242 m 1,0,1
 225 243 225 243 174.5 245 c 128,-1,2
 124 247 124 247 73 250 c 1,3,-1
 102 416 l 1,4,-1
 323 416 l 1,5,-1
 383 644 l 1,6,7
 265 646 265 646 151 653 c 1,8,-1
 178 819 l 1,9,-1
 429 819 l 1,10,-1
 516 1149 l 1,11,-1
 694 1110 l 1,12,-1
 611 819 l 1,13,-1
 849 819 l 1,14,-1
 936 1149 l 1,15,-1
 1114 1110 l 1,16,-1
 1031 819 l 1,17,-1
 1231 819 l 1,18,-1
 1212 662 l 1,19,20
 1156 659 1156 659 1099.5 656.5 c 128,-1,21
 1043 654 1043 654 983 652 c 1,22,-1
 912 416 l 1,23,-1
 1153 416 l 1,24,-1
 1134 258 l 1,25,26
 1069 255 1069 255 1001.5 252 c 128,-1,27
 934 249 934 249 862 247 c 1,28,-1
 774 -49 l 1,29,-1
 630 -12 l 1,30,-1
 697 242 l 1,31,32
 642 241 642 241 587.5 240.5 c 128,-1,33
 533 240 533 240 477 240 c 2,34,-1
 440 240 l 1,35,-1
 354 -49 l 1,36,-1
 211 -12 l 1,37,-1
 277 242 l 1,0,1
743 416 m 1,38,-1
 803 646 l 1,39,40
 683 643 683 643 560 643 c 1,41,-1
 492 416 l 1,42,-1
 743 416 l 1,38,-1
EndSplineSet
EndChar

StartChar: asterisk
Encoding: 42 42 111
Width: 899
Flags: W
LayerCount: 2
Fore
SplineSet
119 1075 m 1,0,1
 146 1100 146 1100 176 1126.5 c 128,-1,2
 206 1153 206 1153 237 1177.5 c 128,-1,3
 268 1202 268 1202 298.5 1222.5 c 128,-1,4
 329 1243 329 1243 357 1258 c 1,5,6
 269 1266 269 1266 191.5 1287 c 128,-1,7
 114 1308 114 1308 60 1339 c 1,8,-1
 167 1551 l 1,9,10
 194 1531 194 1531 225 1509 c 128,-1,11
 256 1487 256 1487 287 1464 c 128,-1,12
 318 1441 318 1441 347.5 1417.5 c 128,-1,13
 377 1394 377 1394 402 1372 c 1,14,15
 391 1408 391 1408 382.5 1447.5 c 128,-1,16
 374 1487 374 1487 368 1526.5 c 128,-1,17
 362 1566 362 1566 358 1605 c 128,-1,18
 354 1644 354 1644 351 1680 c 1,19,-1
 606 1660 l 1,20,21
 598 1624 598 1624 587.5 1585 c 128,-1,22
 577 1546 577 1546 564 1507.5 c 128,-1,23
 551 1469 551 1469 536.5 1431.5 c 128,-1,24
 522 1394 522 1394 506 1361 c 1,25,26
 578 1416 578 1416 642.5 1456.5 c 128,-1,27
 707 1497 707 1497 772 1531 c 1,28,-1
 849 1284 l 1,29,30
 775 1270 775 1270 703.5 1264 c 128,-1,31
 632 1258 632 1258 560 1258 c 1,32,33
 611 1219 611 1219 676 1168 c 128,-1,34
 741 1117 741 1117 809 1050 c 1,35,-1
 596 917 l 1,36,37
 578 946 578 946 558.5 978 c 128,-1,38
 539 1010 539 1010 520.5 1044.5 c 128,-1,39
 502 1079 502 1079 484.5 1114 c 128,-1,40
 467 1149 467 1149 454 1184 c 1,41,42
 413 1098 413 1098 374 1035.5 c 128,-1,43
 335 973 335 973 294 922 c 1,44,-1
 119 1075 l 1,0,1
EndSplineSet
EndChar

StartChar: endash
Encoding: 8211 8211 112
Width: 1298
Flags: W
LayerCount: 2
Fore
SplineSet
153 629 m 1,0,-1
 1183 629 l 1,1,-1
 1165 438 l 1,2,3
 1016 432 1016 432 853 426 c 128,-1,4
 690 420 690 420 520 420 c 0,5,6
 420 420 420 420 321 422 c 128,-1,7
 222 424 222 424 125 430 c 1,8,-1
 153 629 l 1,0,-1
EndSplineSet
EndChar

StartChar: emdash
Encoding: 8212 8212 113
Width: 2320
Flags: W
LayerCount: 2
Fore
SplineSet
153 629 m 1,0,-1
 2205 629 l 1,1,-1
 2187 438 l 1,2,3
 2092 435 2092 435 1976 432.5 c 128,-1,4
 1860 430 1860 430 1734 428 c 128,-1,5
 1608 426 1608 426 1476.5 424.5 c 128,-1,6
 1345 423 1345 423 1218.5 422 c 128,-1,7
 1092 421 1092 421 976 420.5 c 128,-1,8
 860 420 860 420 764 420 c 0,9,10
 645 420 645 420 556.5 421.5 c 128,-1,11
 468 423 468 423 395 425.5 c 128,-1,12
 322 428 322 428 258 431 c 128,-1,13
 194 434 194 434 125 436 c 1,14,-1
 153 629 l 1,0,-1
EndSplineSet
EndChar

StartChar: slash
Encoding: 47 47 114
Width: 759
Flags: W
LayerCount: 2
Fore
SplineSet
522 1393 m 1,0,-1
 741 1333 l 1,1,-1
 217 -174 l 1,2,-1
 26 -135 l 1,3,-1
 522 1393 l 1,0,-1
EndSplineSet
EndChar

StartChar: backslash
Encoding: 92 92 115
Width: 759
Flags: W
LayerCount: 2
Fore
SplineSet
30 1333 m 1,0,-1
 237 1417 l 1,1,-1
 737 -119 l 1,2,-1
 555 -174 l 1,3,-1
 30 1333 l 1,0,-1
EndSplineSet
EndChar

StartChar: bar
Encoding: 124 124 116
Width: 626
Flags: W
LayerCount: 2
Fore
SplineSet
211 1468 m 1,0,-1
 426 1513 l 1,1,-1
 426 752 l 1,2,-1
 395 -588 l 1,3,-1
 215 -604 l 1,4,-1
 211 1468 l 1,0,-1
EndSplineSet
EndChar

StartChar: brokenbar
Encoding: 166 166 117
Width: 626
Flags: W
LayerCount: 2
Fore
SplineSet
213 1468 m 1,0,-1
 426 1513 l 1,1,-1
 430 989 l 1,2,-1
 415 680 l 1,3,-1
 215 645 l 1,4,-1
 213 1468 l 1,0,-1
422 270 m 1,5,-1
 399 -588 l 1,6,-1
 217 -604 l 1,7,-1
 215 236 l 1,8,-1
 422 270 l 1,5,-1
EndSplineSet
EndChar

StartChar: paragraph
Encoding: 182 182 118
Width: 1175
Flags: W
LayerCount: 2
Fore
SplineSet
225 295 m 0,0,1
 214 323 214 323 203 366.5 c 128,-1,2
 192 410 192 410 182 464.5 c 128,-1,3
 172 519 172 519 163.5 581.5 c 128,-1,4
 155 644 155 644 148.5 710 c 128,-1,5
 142 776 142 776 138.5 842.5 c 128,-1,6
 135 909 135 909 135 971 c 0,7,8
 135 1008 135 1008 137 1044.5 c 128,-1,9
 139 1081 139 1081 147 1112 c 128,-1,10
 155 1143 155 1143 170.5 1165 c 128,-1,11
 186 1187 186 1187 213 1195 c 0,12,13
 262 1209 262 1209 323.5 1222.5 c 128,-1,14
 385 1236 385 1236 452.5 1248 c 128,-1,15
 520 1260 520 1260 591 1271 c 128,-1,16
 662 1282 662 1282 730.5 1292.5 c 128,-1,17
 799 1303 799 1303 863 1313 c 128,-1,18
 927 1323 927 1323 981 1333 c 1,19,-1
 1030 1104 l 1,20,21
 956 1092 956 1092 872.5 1079.5 c 128,-1,22
 789 1067 789 1067 713.5 1056 c 128,-1,23
 638 1045 638 1045 579 1034.5 c 128,-1,24
 520 1024 520 1024 495 1016 c 1,25,26
 490 994 490 994 487.5 965 c 128,-1,27
 485 936 485 936 485 901 c 0,28,29
 485 854 485 854 487.5 788.5 c 128,-1,30
 490 723 490 723 495.5 654 c 128,-1,31
 501 585 501 585 510.5 520 c 128,-1,32
 520 455 520 455 534 410 c 1,33,34
 563 403 563 403 594 400 c 128,-1,35
 625 397 625 397 651 397 c 1,36,-1
 651 926 l 1,37,-1
 870 967 l 1,38,-1
 886 -164 l 2,39,40
 886 -190 886 -190 864.5 -216 c 128,-1,41
 843 -242 843 -242 815 -270 c 0,42,43
 785 -300 785 -300 742.5 -336.5 c 128,-1,44
 700 -373 700 -373 652 -410.5 c 128,-1,45
 604 -448 604 -448 553.5 -484.5 c 128,-1,46
 503 -521 503 -521 458 -551 c 1,47,-1
 331 -346 l 1,48,49
 383 -314 383 -314 426.5 -284.5 c 128,-1,50
 470 -255 470 -255 510 -226 c 128,-1,51
 550 -197 550 -197 589 -165.5 c 128,-1,52
 628 -134 628 -134 671 -98 c 1,53,-1
 657 197 l 1,54,-1
 334 217 l 2,55,56
 306 218 306 218 288 224.5 c 128,-1,57
 270 231 270 231 258.5 241.5 c 128,-1,58
 247 252 247 252 239.5 265.5 c 128,-1,59
 232 279 232 279 225 295 c 0,0,1
EndSplineSet
EndChar

StartChar: braceleft
Encoding: 123 123 119
Width: 680
Flags: W
LayerCount: 2
Fore
SplineSet
194 -266 m 0,0,1
 194 -246 194 -246 200 -200 c 128,-1,2
 206 -154 206 -154 215 -94.5 c 128,-1,3
 224 -35 224 -35 235 33 c 128,-1,4
 246 101 246 101 255 164 c 128,-1,5
 264 227 264 227 270 279.5 c 128,-1,6
 276 332 276 332 276 362 c 0,7,8
 276 369 276 369 275 374.5 c 128,-1,9
 274 380 274 380 274 385 c 1,10,-1
 112 530 l 1,11,-1
 137 657 l 1,12,-1
 291 750 l 1,13,14
 291 792 291 792 283 850.5 c 128,-1,15
 275 909 275 909 262.5 973 c 128,-1,16
 250 1037 250 1037 235.5 1102 c 128,-1,17
 221 1167 221 1167 208.5 1223 c 128,-1,18
 196 1279 196 1279 188 1322 c 128,-1,19
 180 1365 180 1365 180 1384 c 0,20,21
 180 1426 180 1426 192.5 1452.5 c 128,-1,22
 205 1479 205 1479 237 1491 c 1,23,-1
 518 1616 l 1,24,-1
 606 1421 l 1,25,26
 542 1396 542 1396 507.5 1383 c 128,-1,27
 473 1370 473 1370 457 1363 c 2,28,-1
 436 1354 l 1,29,30
 436 1339 436 1339 442 1301 c 128,-1,31
 448 1263 448 1263 456.5 1212 c 128,-1,32
 465 1161 465 1161 475 1101.5 c 128,-1,33
 485 1042 485 1042 493.5 983.5 c 128,-1,34
 502 925 502 925 508 871.5 c 128,-1,35
 514 818 514 818 514 779 c 0,36,37
 514 755 514 755 513 735 c 128,-1,38
 512 715 512 715 507 698.5 c 128,-1,39
 502 682 502 682 491.5 668.5 c 128,-1,40
 481 655 481 655 463 645 c 2,41,-1
 352 584 l 1,42,-1
 352 567 l 1,43,-1
 458 498 l 2,44,45
 478 485 478 485 491 451.5 c 128,-1,46
 504 418 504 418 504 369 c 0,47,48
 504 300 504 300 494.5 225.5 c 128,-1,49
 485 151 485 151 473 74 c 128,-1,50
 461 -3 461 -3 451.5 -81.5 c 128,-1,51
 442 -160 442 -160 442 -238 c 1,52,-1
 643 -279 l 1,53,-1
 587 -485 l 1,54,-1
 284 -416 l 1,55,56
 256 -405 256 -405 238.5 -389.5 c 128,-1,57
 221 -374 221 -374 211 -355 c 128,-1,58
 201 -336 201 -336 197.5 -313.5 c 128,-1,59
 194 -291 194 -291 194 -266 c 0,0,1
EndSplineSet
EndChar

StartChar: braceright
Encoding: 125 125 120
Width: 680
Flags: W
LayerCount: 2
Fore
SplineSet
60 -291 m 1,0,1
 124 -267 124 -267 158.5 -253.5 c 128,-1,2
 193 -240 193 -240 209 -233 c 2,3,-1
 230 -224 l 1,4,5
 230 -209 230 -209 224 -171 c 128,-1,6
 218 -133 218 -133 209.5 -82 c 128,-1,7
 201 -31 201 -31 191 28.5 c 128,-1,8
 181 88 181 88 172.5 146.5 c 128,-1,9
 164 205 164 205 158 258.5 c 128,-1,10
 152 312 152 312 152 351 c 0,11,12
 152 375 152 375 153 395 c 128,-1,13
 154 415 154 415 159 431.5 c 128,-1,14
 164 448 164 448 174.5 461.5 c 128,-1,15
 185 475 185 475 203 485 c 2,16,-1
 314 546 l 1,17,-1
 314 563 l 1,18,-1
 208 632 l 2,19,20
 188 645 188 645 175 678.5 c 128,-1,21
 162 712 162 712 162 761 c 0,22,23
 162 830 162 830 171.5 904.5 c 128,-1,24
 181 979 181 979 193 1056 c 128,-1,25
 205 1133 205 1133 214.5 1211.5 c 128,-1,26
 224 1290 224 1290 224 1368 c 1,27,-1
 23 1409 l 1,28,-1
 79 1615 l 1,29,-1
 382 1546 l 1,30,31
 410 1535 410 1535 427.5 1519.5 c 128,-1,32
 445 1504 445 1504 455 1485 c 128,-1,33
 465 1466 465 1466 468.5 1443.5 c 128,-1,34
 472 1421 472 1421 472 1396 c 0,35,36
 472 1376 472 1376 466 1330 c 128,-1,37
 460 1284 460 1284 451 1224.5 c 128,-1,38
 442 1165 442 1165 431 1097 c 128,-1,39
 420 1029 420 1029 411 966 c 128,-1,40
 402 903 402 903 396 850.5 c 128,-1,41
 390 798 390 798 390 768 c 0,42,43
 390 761 390 761 391 755.5 c 128,-1,44
 392 750 392 750 392 745 c 1,45,-1
 554 600 l 1,46,-1
 529 473 l 1,47,-1
 375 380 l 1,48,49
 375 338 375 338 383 279.5 c 128,-1,50
 391 221 391 221 403.5 157 c 128,-1,51
 416 93 416 93 430.5 28 c 128,-1,52
 445 -37 445 -37 457.5 -93 c 128,-1,53
 470 -149 470 -149 478 -192 c 128,-1,54
 486 -235 486 -235 486 -254 c 0,55,56
 486 -296 486 -296 473.5 -322.5 c 128,-1,57
 461 -349 461 -349 429 -361 c 1,58,-1
 148 -486 l 1,59,-1
 60 -291 l 1,60,-1
 60 -291 l 1,0,1
EndSplineSet
EndChar

StartChar: parenleft
Encoding: 40 40 121
Width: 620
Flags: W
LayerCount: 2
Fore
SplineSet
143 549 m 1,0,1
 147 687 147 687 167 825 c 128,-1,2
 187 963 187 963 220.5 1097.5 c 128,-1,3
 254 1232 254 1232 299.5 1362 c 128,-1,4
 345 1492 345 1492 401 1614 c 1,5,-1
 585 1542 l 1,6,7
 543 1425 543 1425 511.5 1313 c 128,-1,8
 480 1201 480 1201 458 1100 c 128,-1,9
 436 999 436 999 421.5 910 c 128,-1,10
 407 821 407 821 398 750 c 128,-1,11
 389 679 389 679 385 627.5 c 128,-1,12
 381 576 381 576 379 549 c 1,13,14
 379 414 379 414 394 294.5 c 128,-1,15
 409 175 409 175 435 60 c 128,-1,16
 461 -55 461 -55 496.5 -170 c 128,-1,17
 532 -285 532 -285 573 -410 c 1,18,-1
 379 -483 l 1,19,20
 313 -327 313 -327 270.5 -189.5 c 128,-1,21
 228 -52 228 -52 202 73.5 c 128,-1,22
 176 199 176 199 163 316 c 128,-1,23
 150 433 150 433 143 549 c 1,0,1
EndSplineSet
EndChar

StartChar: parenright
Encoding: 41 41 122
Width: 641
Flags: W
LayerCount: 2
Fore
SplineSet
25 -385 m 1,0,1
 89 -209 89 -209 128 -47 c 128,-1,2
 167 115 167 115 189 247 c 128,-1,3
 211 379 211 379 219.5 473 c 128,-1,4
 228 567 228 567 231 608 c 1,5,6
 231 743 231 743 216 862.5 c 128,-1,7
 201 982 201 982 175 1097 c 128,-1,8
 149 1212 149 1212 113.5 1327 c 128,-1,9
 78 1442 78 1442 37 1567 c 1,10,-1
 231 1640 l 1,11,12
 297 1484 297 1484 342 1346.5 c 128,-1,13
 387 1209 387 1209 415 1084 c 128,-1,14
 443 959 443 959 456.5 841.5 c 128,-1,15
 470 724 470 724 473 608 c 1,16,17
 460 330 460 330 390 59.5 c 128,-1,18
 320 -211 320 -211 209 -457 c 1,19,-1
 25 -385 l 1,20,-1
 25 -385 l 1,0,1
EndSplineSet
EndChar

StartChar: bracketleft
Encoding: 91 91 123
Width: 639
Flags: W
LayerCount: 2
Fore
SplineSet
215 -403 m 1,0,1
 206 -169 206 -169 200 66.5 c 128,-1,2
 194 302 194 302 189.5 543 c 128,-1,3
 185 784 185 784 183 1033 c 128,-1,4
 181 1282 181 1282 180 1544 c 1,5,-1
 569 1612 l 1,6,-1
 598 1395 l 1,7,-1
 422 1378 l 1,8,-1
 401 625 l 1,9,-1
 422 -240 l 1,10,-1
 618 -266 l 1,11,-1
 567 -485 l 1,12,-1
 215 -403 l 1,13,-1
 215 -403 l 1,0,1
EndSplineSet
EndChar

StartChar: bracketright
Encoding: 93 93 124
Width: 565
Flags: W
LayerCount: 2
Fore
SplineSet
239 -252 m 1,0,-1
 250 502 l 1,1,-1
 239 1366 l 1,2,-1
 39 1397 l 1,3,-1
 94 1614 l 1,4,-1
 452 1526 l 1,5,6
 456 1312 456 1312 457.5 1099 c 128,-1,7
 459 886 459 886 459 666 c 0,8,9
 459 404 459 404 456.5 133.5 c 128,-1,10
 454 -137 454 -137 450 -422 c 1,11,-1
 69 -481 l 1,12,-1
 45 -264 l 1,13,-1
 239 -252 l 1,0,-1
EndSplineSet
EndChar

StartChar: currency
Encoding: 164 164 125
Width: 1058
Flags: W
LayerCount: 2
Fore
SplineSet
78 137 m 1,0,1
 104 162 104 162 133 191 c 0,2,3
 158 215 158 215 189 246.5 c 128,-1,4
 220 278 220 278 252 310 c 1,5,6
 243 333 243 333 235 360 c 128,-1,7
 227 387 227 387 221 414 c 128,-1,8
 215 441 215 441 212 466 c 128,-1,9
 209 491 209 491 209 510 c 0,10,11
 209 555 209 555 212.5 607 c 128,-1,12
 216 659 216 659 231 701 c 1,13,14
 208 725 208 725 184 750 c 128,-1,15
 160 775 160 775 138.5 798.5 c 128,-1,16
 117 822 117 822 99.5 843 c 128,-1,17
 82 864 82 864 73 879 c 1,18,-1
 207 1004 l 1,19,20
 229 975 229 975 253 942 c 0,21,22
 273 914 273 914 299 878.5 c 128,-1,23
 325 843 325 843 351 806 c 1,24,25
 366 812 366 812 390.5 818.5 c 128,-1,26
 415 825 415 825 444.5 829.5 c 128,-1,27
 474 834 474 834 505.5 837 c 128,-1,28
 537 840 537 840 567 840 c 0,29,30
 604 840 604 840 642 833.5 c 128,-1,31
 680 827 680 827 711 817 c 1,32,33
 730 843 730 843 751 870.5 c 128,-1,34
 772 898 772 898 792 922.5 c 128,-1,35
 812 947 812 947 830 967 c 128,-1,36
 848 987 848 987 862 999 c 1,37,-1
 995 885 l 1,38,39
 970 860 970 860 943 832 c 0,40,41
 920 808 920 808 890 778 c 128,-1,42
 860 748 860 748 830 716 c 1,43,44
 860 651 860 651 860 541 c 0,45,46
 860 514 860 514 855.5 482 c 128,-1,47
 851 450 851 450 843 416.5 c 128,-1,48
 835 383 835 383 824.5 350.5 c 128,-1,49
 814 318 814 318 801 290 c 1,50,51
 825 266 825 266 849.5 240.5 c 128,-1,52
 874 215 874 215 896 191 c 128,-1,53
 918 167 918 167 935.5 145.5 c 128,-1,54
 953 124 953 124 962 109 c 1,55,-1
 831 -18 l 1,56,57
 809 14 809 14 784 48 c 0,58,59
 763 77 763 77 736 114 c 128,-1,60
 709 151 709 151 683 189 c 1,61,62
 656 183 656 183 627 181.5 c 128,-1,63
 598 180 598 180 575 180 c 0,64,65
 515 180 515 180 465 188.5 c 128,-1,66
 415 197 415 197 375 211 c 1,67,68
 355 184 355 184 333.5 156 c 128,-1,69
 312 128 312 128 291 102.5 c 128,-1,70
 270 77 270 77 251.5 56 c 128,-1,71
 233 35 233 35 219 23 c 1,72,-1
 78 137 l 1,0,1
413 393 m 0,73,74
 423 381 423 381 440 373 c 128,-1,75
 457 365 457 365 477.5 360 c 128,-1,76
 498 355 498 355 521 352.5 c 128,-1,77
 544 350 544 350 567 350 c 0,78,79
 587 350 587 350 606.5 352 c 128,-1,80
 626 354 626 354 639 360 c 1,81,82
 657 388 657 388 670.5 432.5 c 128,-1,83
 684 477 684 477 684 532 c 0,84,85
 684 557 684 557 677.5 589.5 c 128,-1,86
 671 622 671 622 651 645 c 1,87,88
 641 649 641 649 627 652 c 128,-1,89
 613 655 613 655 598.5 656.5 c 128,-1,90
 584 658 584 658 572 658.5 c 128,-1,91
 560 659 560 659 553 659 c 0,92,93
 536 659 536 659 516.5 658 c 128,-1,94
 497 657 497 657 477.5 654 c 128,-1,95
 458 651 458 651 440 646 c 128,-1,96
 422 641 422 641 409 633 c 1,97,98
 401 624 401 624 396 610.5 c 128,-1,99
 391 597 391 597 388 583 c 128,-1,100
 385 569 385 569 384 555.5 c 128,-1,101
 383 542 383 542 383 532 c 0,102,103
 383 514 383 514 384.5 494.5 c 128,-1,104
 386 475 386 475 389 456.5 c 128,-1,105
 392 438 392 438 398 421.5 c 128,-1,106
 404 405 404 405 413 393 c 0,73,74
EndSplineSet
EndChar

StartChar: dollar
Encoding: 36 36 126
Width: 833
Flags: W
LayerCount: 2
Fore
SplineSet
84 160 m 1,0,1
 199 168 199 168 298 175.5 c 128,-1,2
 397 183 397 183 497 197 c 1,3,-1
 504 319 l 1,4,-1
 153 457 l 2,5,6
 122 469 122 469 106 503.5 c 128,-1,7
 90 538 90 538 90 575 c 0,8,9
 90 578 90 578 90.5 585 c 128,-1,10
 91 592 91 592 93.5 615 c 128,-1,11
 96 638 96 638 101 683.5 c 128,-1,12
 106 729 106 729 114 808 c 0,13,14
 118 840 118 840 131 861.5 c 128,-1,15
 144 883 144 883 160.5 897.5 c 128,-1,16
 177 912 177 912 196 920.5 c 128,-1,17
 215 929 215 929 231 935 c 0,18,19
 244 940 244 940 281.5 948.5 c 128,-1,20
 319 957 319 957 370 968 c 1,21,-1
 388 1278 l 1,22,-1
 582 1284 l 1,23,-1
 543 1002 l 1,24,25
 588 1011 588 1011 629 1019 c 128,-1,26
 670 1027 670 1027 701 1032 c 1,27,-1
 746 802 l 1,28,-1
 327 752 l 1,29,-1
 311 651 l 1,30,-1
 680 479 l 2,31,32
 693 473 693 473 704.5 463.5 c 128,-1,33
 716 454 716 454 724 439.5 c 128,-1,34
 732 425 732 425 736 405.5 c 128,-1,35
 740 386 740 386 737 360 c 2,36,-1
 710 109 l 2,37,38
 707 84 707 84 694 66.5 c 128,-1,39
 681 49 681 49 662.5 37 c 128,-1,40
 644 25 644 25 623.5 17.5 c 128,-1,41
 603 10 603 10 585 6 c 0,42,43
 559 -1 559 -1 528 -7.5 c 128,-1,44
 497 -14 497 -14 462 -20 c 1,45,-1
 445 -273 l 1,46,-1
 260 -257 l 1,47,-1
 287 -47 l 1,48,49
 238 -53 238 -53 193 -57 c 128,-1,50
 148 -61 148 -61 112 -63 c 1,51,-1
 84 160 l 1,0,1
EndSplineSet
EndChar

StartChar: cent
Encoding: 162 162 127
Width: 796
Flags: W
LayerCount: 2
Fore
SplineSet
137 131 m 0,0,1
 132 165 132 165 128 203.5 c 128,-1,2
 124 242 124 242 121.5 282 c 128,-1,3
 119 322 119 322 117.5 361 c 128,-1,4
 116 400 116 400 116 435 c 0,5,6
 116 458 116 458 116.5 479 c 128,-1,7
 117 500 117 500 118 518 c 0,8,9
 120 614 120 614 129 701 c 128,-1,10
 138 788 138 788 153 868 c 1,11,12
 156 893 156 893 166.5 910.5 c 128,-1,13
 177 928 177 928 200 936 c 0,14,15
 237 948 237 948 289 958.5 c 128,-1,16
 341 969 341 969 401 978 c 1,17,-1
 418 1278 l 1,18,-1
 612 1284 l 1,19,-1
 573 1003 l 1,20,21
 620 1009 620 1009 661 1014 c 128,-1,22
 702 1019 702 1019 732 1024 c 1,23,-1
 766 805 l 1,24,25
 748 803 748 803 717 799.5 c 128,-1,26
 686 796 686 796 649.5 791.5 c 128,-1,27
 613 787 613 787 573 781.5 c 128,-1,28
 533 776 533 776 497.5 771 c 128,-1,29
 462 766 462 766 433 761 c 128,-1,30
 404 756 404 756 389 752 c 1,31,32
 383 714 383 714 376 649.5 c 128,-1,33
 369 585 369 585 366 504 c 0,34,35
 365 482 365 482 364.5 460.5 c 128,-1,36
 364 439 364 439 364 418 c 0,37,38
 364 361 364 361 366.5 311.5 c 128,-1,39
 369 262 369 262 374 229 c 1,40,41
 464 208 464 208 559 187.5 c 128,-1,42
 654 167 654 167 753 147 c 1,43,-1
 694 -63 l 1,44,45
 653 -56 653 -56 602 -46.5 c 128,-1,46
 551 -37 551 -37 497 -26 c 1,47,-1
 481 -273 l 1,48,-1
 296 -257 l 1,49,-1
 330 8 l 1,50,-1
 337 8 l 1,51,52
 291 19 291 19 255 29 c 128,-1,53
 219 39 219 39 200 47 c 1,54,55
 173 56 173 56 157.5 76 c 128,-1,56
 142 96 142 96 137 131 c 0,0,1
EndSplineSet
EndChar

StartChar: sterling
Encoding: 163 163 128
Width: 839
Flags: W
LayerCount: 2
Fore
SplineSet
92 33 m 1,0,1
 72 75 72 75 57.5 127.5 c 128,-1,2
 43 180 43 180 36 231 c 1,3,-1
 255 424 l 1,4,5
 208 428 208 428 167 433.5 c 128,-1,6
 126 439 126 439 92 445 c 1,7,-1
 112 594 l 1,8,9
 159 591 159 591 213 589.5 c 128,-1,10
 267 588 267 588 324 588 c 1,11,-1
 233 871 l 1,12,13
 236 879 236 879 240.5 890.5 c 128,-1,14
 245 902 245 902 250 914 c 128,-1,15
 255 926 255 926 260 936 c 128,-1,16
 265 946 265 946 270 951 c 1,17,18
 318 976 318 976 381 997 c 128,-1,19
 444 1018 444 1018 510.5 1034 c 128,-1,20
 577 1050 577 1050 642 1061 c 128,-1,21
 707 1072 707 1072 761 1079 c 1,22,-1
 786 838 l 1,23,24
 760 838 760 838 716 834 c 128,-1,25
 672 830 672 830 624 823.5 c 128,-1,26
 576 817 576 817 533 810 c 128,-1,27
 490 803 490 803 467 797 c 1,28,29
 474 740 474 740 487 691 c 128,-1,30
 500 642 500 642 515 591 c 1,31,32
 581 593 581 593 634.5 595.5 c 128,-1,33
 688 598 688 598 717 600 c 1,34,-1
 708 414 l 1,35,36
 673 411 673 411 635 410.5 c 128,-1,37
 597 410 597 410 557 410 c 0,38,39
 534 410 534 410 511 410 c 128,-1,40
 488 410 488 410 465 411 c 1,41,-1
 334 226 l 1,42,43
 336 218 336 218 338.5 206 c 128,-1,44
 341 194 341 194 347 188 c 1,45,46
 405 188 405 188 468 183.5 c 128,-1,47
 531 179 531 179 591.5 172 c 128,-1,48
 652 165 652 165 705.5 156 c 128,-1,49
 759 147 759 147 799 137 c 1,50,-1
 753 -88 l 1,51,-1
 92 33 l 1,52,-1
 92 33 l 1,0,1
EndSplineSet
EndChar

StartChar: Euro
Encoding: 8364 8364 129
Width: 956
Flags: W
LayerCount: 2
Fore
SplineSet
216 71 m 0,0,1
 209 113 209 113 205 175.5 c 128,-1,2
 201 238 201 238 199 301 c 1,3,4
 161 305 161 305 127.5 310 c 128,-1,5
 94 315 94 315 66 321 c 1,6,-1
 87 448 l 1,7,8
 134 442 134 442 196 439 c 1,9,-1
 196 442 l 2,10,11
 196 464 196 464 196 487 c 128,-1,12
 196 510 196 510 197 533 c 1,13,14
 165 536 165 536 137 540 c 128,-1,15
 109 544 109 544 85 549 c 1,16,-1
 100 682 l 1,17,18
 146 678 146 678 205 676 c 1,19,20
 210 733 210 733 215.5 783.5 c 128,-1,21
 221 834 221 834 228 870 c 0,22,23
 233 897 233 897 239.5 915 c 128,-1,24
 246 933 246 933 255 944 c 128,-1,25
 264 955 264 955 276.5 962 c 128,-1,26
 289 969 289 969 307 974 c 0,27,28
 344 985 344 985 405.5 997 c 128,-1,29
 467 1009 467 1009 535.5 1020 c 128,-1,30
 604 1031 604 1031 670.5 1041 c 128,-1,31
 737 1051 737 1051 784 1058 c 1,32,-1
 819 833 l 1,33,34
 800 831 800 831 770.5 827.5 c 128,-1,35
 741 824 741 824 705.5 820 c 128,-1,36
 670 816 670 816 632 811.5 c 128,-1,37
 594 807 594 807 560 802 c 128,-1,38
 526 797 526 797 498 792.5 c 128,-1,39
 470 788 470 788 455 784 c 1,40,41
 451 769 451 769 447.5 739.5 c 128,-1,42
 444 710 444 710 441 674 c 1,43,44
 489 675 489 675 534 676 c 128,-1,45
 579 677 579 677 617.5 678 c 128,-1,46
 656 679 656 679 686.5 680 c 128,-1,47
 717 681 717 681 736 682 c 1,48,-1
 720 528 l 1,49,50
 665 525 665 525 603.5 523.5 c 128,-1,51
 542 522 542 522 479 522 c 2,52,-1
 432 522 l 1,53,54
 430 498 430 498 430 478 c 128,-1,55
 430 458 430 458 430 444 c 2,56,-1
 430 432 l 1,57,58
 473 431 473 431 513.5 431 c 128,-1,59
 554 431 554 431 591 431 c 0,60,61
 641 431 641 431 679.5 431 c 128,-1,62
 718 431 718 431 741 432 c 1,63,-1
 721 280 l 1,64,65
 704 280 704 280 686.5 279.5 c 128,-1,66
 669 279 669 279 650 279 c 0,67,68
 599 279 599 279 544 280 c 128,-1,69
 489 281 489 281 432 284 c 1,70,71
 434 245 434 245 436 214 c 128,-1,72
 438 183 438 183 440 167 c 1,73,-1
 833 92 l 1,74,-1
 774 -123 l 1,75,76
 737 -117 737 -117 691 -108.5 c 128,-1,77
 645 -100 645 -100 596 -90 c 128,-1,78
 547 -80 547 -80 498.5 -69.5 c 128,-1,79
 450 -59 450 -59 407.5 -49 c 128,-1,80
 365 -39 365 -39 331.5 -29.5 c 128,-1,81
 298 -20 298 -20 280 -13 c 1,82,83
 252 -4 252 -4 236.5 16 c 128,-1,84
 221 36 221 36 216 71 c 0,0,1
EndSplineSet
EndChar

StartChar: yen
Encoding: 165 165 130
Width: 942
Flags: W
LayerCount: 2
Fore
SplineSet
67 350 m 1,0,1
 118 345 118 345 195 341.5 c 128,-1,2
 272 338 272 338 362 336 c 1,3,-1
 361 455 l 1,4,5
 261 457 261 457 178 463 c 128,-1,6
 95 469 95 469 48 479 c 1,7,-1
 63 607 l 1,8,9
 98 604 98 604 149 602.5 c 128,-1,10
 200 601 200 601 260 601 c 1,11,12
 238 649 238 649 212.5 702 c 128,-1,13
 187 755 187 755 161 810.5 c 128,-1,14
 135 866 135 866 109.5 922 c 128,-1,15
 84 978 84 978 62 1033 c 1,16,-1
 309 1090 l 1,17,-1
 450 631 l 1,18,-1
 478 631 l 2,19,20
 485 631 485 631 490.5 631.5 c 128,-1,21
 496 632 496 632 513 635 c 1,22,-1
 658 1085 l 1,23,-1
 897 1048 l 1,24,25
 878 989 878 989 853.5 934 c 128,-1,26
 829 879 829 879 803 824.5 c 128,-1,27
 777 770 777 770 749.5 716 c 128,-1,28
 722 662 722 662 697 606 c 1,29,30
 769 608 769 608 822.5 609 c 128,-1,31
 876 610 876 610 899 612 c 1,32,-1
 883 458 l 1,33,34
 830 455 830 455 756.5 453.5 c 128,-1,35
 683 452 683 452 598 452 c 1,36,-1
 598 446 l 1,37,-1
 590 333 l 1,38,-1
 704 333 l 2,39,40
 770 333 770 333 819 333 c 128,-1,41
 868 333 868 333 891 334 c 1,42,-1
 871 182 l 1,43,44
 854 182 854 182 835 181.5 c 128,-1,45
 816 181 816 181 795 181 c 0,46,47
 748 181 748 181 694 181.5 c 128,-1,48
 640 182 640 182 581 184 c 1,49,-1
 569 0 l 1,50,-1
 364 -17 l 1,51,-1
 363 192 l 1,52,53
 313 195 313 195 266.5 198 c 128,-1,54
 220 201 220 201 179 205 c 128,-1,55
 138 209 138 209 104 213.5 c 128,-1,56
 70 218 70 218 46 223 c 1,57,-1
 67 350 l 1,0,1
EndSplineSet
EndChar

StartChar: at
Encoding: 64 64 131
Width: 1775
Flags: W
LayerCount: 2
Fore
SplineSet
258 -174 m 1,0,1
 226 -130 226 -130 200 -52.5 c 128,-1,2
 174 25 174 25 154.5 119 c 128,-1,3
 135 213 135 213 124.5 313.5 c 128,-1,4
 114 414 114 414 114 504 c 0,5,6
 114 615 114 615 123 700.5 c 128,-1,7
 132 786 132 786 148.5 853.5 c 128,-1,8
 165 921 165 921 188 975 c 128,-1,9
 211 1029 211 1029 240 1076 c 0,10,11
 287 1155 287 1155 363.5 1210 c 128,-1,12
 440 1265 440 1265 533 1299.5 c 128,-1,13
 626 1334 626 1334 728.5 1350 c 128,-1,14
 831 1366 831 1366 930 1366 c 0,15,16
 1020 1366 1020 1366 1102.5 1353 c 128,-1,17
 1185 1340 1185 1340 1253.5 1321 c 128,-1,18
 1322 1302 1322 1302 1374 1279.5 c 128,-1,19
 1426 1257 1426 1257 1456 1239 c 0,20,21
 1565 1173 1565 1173 1618 1019 c 128,-1,22
 1671 865 1671 865 1671 621 c 0,23,24
 1671 578 1671 578 1665 503.5 c 128,-1,25
 1659 429 1659 429 1637.5 342 c 128,-1,26
 1616 255 1616 255 1574 165.5 c 128,-1,27
 1532 76 1532 76 1460 2 c 1,28,29
 1446 0 1446 0 1432 -1 c 128,-1,30
 1418 -2 1418 -2 1402 -2 c 0,31,32
 1351 -2 1351 -2 1294.5 7.5 c 128,-1,33
 1238 17 1238 17 1186.5 33 c 128,-1,34
 1135 49 1135 49 1092.5 70 c 128,-1,35
 1050 91 1050 91 1026 115 c 1,36,-1
 1022 176 l 1,37,-1
 1016 770 l 1,38,-1
 813 754 l 1,39,40
 803 734 803 734 795.5 699.5 c 128,-1,41
 788 665 788 665 782.5 622 c 128,-1,42
 777 579 777 579 774.5 530.5 c 128,-1,43
 772 482 772 482 772 434 c 0,44,45
 772 369 772 369 777.5 311.5 c 128,-1,46
 783 254 783 254 794 217 c 1,47,-1
 973 186 l 1,48,-1
 911 -27 l 1,49,-1
 633 41 l 2,50,51
 608 48 608 48 596.5 73.5 c 128,-1,52
 585 99 585 99 578 126 c 0,53,54
 561 190 561 190 551.5 270.5 c 128,-1,55
 542 351 542 351 542 440 c 0,56,57
 542 556 542 556 559 673 c 128,-1,58
 576 790 576 790 614 887 c 0,59,60
 624 913 624 913 632.5 928.5 c 128,-1,61
 641 944 641 944 659 946 c 2,62,-1
 940 981 l 1,63,-1
 1028 891 l 1,64,-1
 1071 987 l 1,65,-1
 1241 987 l 1,66,-1
 1233 594 l 1,67,-1
 1214 221 l 1,68,69
 1261 204 1261 204 1309.5 201.5 c 128,-1,70
 1358 199 1358 199 1398 199 c 1,71,72
 1412 239 1412 239 1423.5 291 c 128,-1,73
 1435 343 1435 343 1443 400 c 128,-1,74
 1451 457 1451 457 1455.5 516 c 128,-1,75
 1460 575 1460 575 1460 629 c 0,76,77
 1460 676 1460 676 1452.5 738.5 c 128,-1,78
 1445 801 1445 801 1431 864.5 c 128,-1,79
 1417 928 1417 928 1395 984 c 128,-1,80
 1373 1040 1373 1040 1345 1075 c 1,81,82
 1308 1091 1308 1091 1259.5 1105.5 c 128,-1,83
 1211 1120 1211 1120 1156.5 1131 c 128,-1,84
 1102 1142 1102 1142 1045.5 1148.5 c 128,-1,85
 989 1155 989 1155 936 1155 c 0,86,87
 886 1155 886 1155 823.5 1149 c 128,-1,88
 761 1143 761 1143 696.5 1131.5 c 128,-1,89
 632 1120 632 1120 570.5 1103 c 128,-1,90
 509 1086 509 1086 461 1063 c 1,91,92
 445 1040 445 1040 430 1003 c 128,-1,93
 415 966 415 966 401.5 920.5 c 128,-1,94
 388 875 388 875 377.5 822.5 c 128,-1,95
 367 770 367 770 359 716.5 c 128,-1,96
 351 663 351 663 346.5 610 c 128,-1,97
 342 557 342 557 342 510 c 0,98,99
 342 454 342 454 346.5 378 c 128,-1,100
 351 302 351 302 361.5 225 c 128,-1,101
 372 148 372 148 389 79.5 c 128,-1,102
 406 11 406 11 432 -31 c 1,103,104
 462 -51 462 -51 510 -72 c 128,-1,105
 558 -93 558 -93 617.5 -113 c 128,-1,106
 677 -133 677 -133 744.5 -152 c 128,-1,107
 812 -171 812 -171 882 -187 c 128,-1,108
 952 -203 952 -203 1020.5 -216 c 128,-1,109
 1089 -229 1089 -229 1151 -238 c 1,110,-1
 1108 -453 l 1,111,112
 1047 -444 1047 -444 976.5 -430 c 128,-1,113
 906 -416 906 -416 830 -396.5 c 128,-1,114
 754 -377 754 -377 676.5 -353 c 128,-1,115
 599 -329 599 -329 524.5 -301 c 128,-1,116
 450 -273 450 -273 382 -241 c 128,-1,117
 314 -209 314 -209 258 -174 c 1,0,1
EndSplineSet
EndChar

StartChar: copyright
Encoding: 169 169 132
Width: 1687
Flags: W
LayerCount: 2
Fore
SplineSet
323 123 m 1,0,1
 294 163 294 163 269.5 226.5 c 128,-1,2
 245 290 245 290 228 360.5 c 128,-1,3
 211 431 211 431 201.5 498.5 c 128,-1,4
 192 566 192 566 192 614 c 0,5,6
 192 670 192 670 194.5 731.5 c 128,-1,7
 197 793 197 793 205 852.5 c 128,-1,8
 213 912 213 912 228.5 967 c 128,-1,9
 244 1022 244 1022 270 1065 c 0,10,11
 301 1116 301 1116 350.5 1156 c 128,-1,12
 400 1196 400 1196 452 1222 c 0,13,14
 478 1235 478 1235 530 1249.5 c 128,-1,15
 582 1264 582 1264 646.5 1276 c 128,-1,16
 711 1288 711 1288 781.5 1295.5 c 128,-1,17
 852 1303 852 1303 917 1303 c 0,18,19
 975 1303 975 1303 1035 1295 c 128,-1,20
 1095 1287 1095 1287 1149 1274.5 c 128,-1,21
 1203 1262 1203 1262 1247 1245.5 c 128,-1,22
 1291 1229 1291 1229 1319 1212 c 0,23,24
 1368 1182 1368 1182 1404.5 1136 c 128,-1,25
 1441 1090 1441 1090 1465 1025 c 128,-1,26
 1489 960 1489 960 1501 874 c 128,-1,27
 1513 788 1513 788 1513 678 c 0,28,29
 1513 628 1513 628 1505 565.5 c 128,-1,30
 1497 503 1497 503 1482 436.5 c 128,-1,31
 1467 370 1467 370 1447 304 c 128,-1,32
 1427 238 1427 238 1402.5 181.5 c 128,-1,33
 1378 125 1378 125 1351 82 c 128,-1,34
 1324 39 1324 39 1296 18 c 0,35,36
 1270 -2 1270 -2 1228 -15 c 128,-1,37
 1186 -28 1186 -28 1138 -36.5 c 128,-1,38
 1090 -45 1090 -45 1039.5 -48.5 c 128,-1,39
 989 -52 989 -52 946 -53 c 1,40,41
 835 -53 835 -53 739 -37 c 128,-1,42
 643 -21 643 -21 564 4.5 c 128,-1,43
 485 30 485 30 424 61 c 128,-1,44
 363 92 363 92 323 123 c 1,0,1
479 256 m 1,45,46
 512 229 512 229 565 207 c 128,-1,47
 618 185 618 185 682 170 c 128,-1,48
 746 155 746 155 816 147 c 128,-1,49
 886 139 886 139 953 139 c 256,50,51
 1020 139 1020 139 1077.5 147.5 c 128,-1,52
 1135 156 1135 156 1177 174 c 1,53,54
 1204 213 1204 213 1227 267 c 128,-1,55
 1250 321 1250 321 1267.5 386.5 c 128,-1,56
 1285 452 1285 452 1294.5 526.5 c 128,-1,57
 1304 601 1304 601 1304 682 c 0,58,59
 1304 724 1304 724 1300 773.5 c 128,-1,60
 1296 823 1296 823 1286 872 c 128,-1,61
 1276 921 1276 921 1259 964.5 c 128,-1,62
 1242 1008 1242 1008 1216 1040 c 1,63,64
 1182 1055 1182 1055 1139 1065 c 128,-1,65
 1096 1075 1096 1075 1052.5 1081.5 c 128,-1,66
 1009 1088 1009 1088 969.5 1091 c 128,-1,67
 930 1094 930 1094 903 1094 c 0,68,69
 858 1094 858 1094 801 1089 c 128,-1,70
 744 1084 744 1084 684.5 1073.5 c 128,-1,71
 625 1063 625 1063 568 1048 c 128,-1,72
 511 1033 511 1033 467 1012 c 1,73,74
 447 983 447 983 433.5 941.5 c 128,-1,75
 420 900 420 900 412 854 c 128,-1,76
 404 808 404 808 400 762.5 c 128,-1,77
 396 717 396 717 396 681 c 0,78,79
 396 631 396 631 399.5 576 c 128,-1,80
 403 521 403 521 412 465.5 c 128,-1,81
 421 410 421 410 437 356.5 c 128,-1,82
 453 303 453 303 479 256 c 1,45,46
630 412 m 1,83,84
 627 438 627 438 625 467.5 c 128,-1,85
 623 497 623 497 622 525 c 128,-1,86
 621 553 621 553 620.5 577.5 c 128,-1,87
 620 602 620 602 620 618 c 0,88,89
 620 630 620 630 621.5 655 c 128,-1,90
 623 680 623 680 625.5 710 c 128,-1,91
 628 740 628 740 631.5 772 c 128,-1,92
 635 804 635 804 640 831 c 0,93,94
 643 851 643 851 648 864 c 128,-1,95
 653 877 653 877 660 885 c 128,-1,96
 667 893 667 893 676.5 898.5 c 128,-1,97
 686 904 686 904 698 909 c 1,98,99
 725 915 725 915 768.5 923 c 128,-1,100
 812 931 812 931 860.5 939 c 128,-1,101
 909 947 909 947 957 954 c 128,-1,102
 1005 961 1005 961 1040 965 c 1,103,-1
 1065 793 l 1,104,105
 1045 791 1045 791 1010.5 787.5 c 128,-1,106
 976 784 976 784 938.5 780 c 128,-1,107
 901 776 901 776 868 771 c 128,-1,108
 835 766 835 766 819 762 c 1,109,110
 813 731 813 731 809 695.5 c 128,-1,111
 805 660 805 660 805 618 c 0,112,113
 805 590 805 590 805 571 c 128,-1,114
 805 552 805 552 805.5 538 c 128,-1,115
 806 524 806 524 806.5 513.5 c 128,-1,116
 807 503 807 503 809 492 c 1,117,-1
 1071 432 l 1,118,-1
 1030 270 l 1,119,120
 990 276 990 276 937.5 286.5 c 128,-1,121
 885 297 885 297 834.5 308 c 128,-1,122
 784 319 784 319 741.5 330.5 c 128,-1,123
 699 342 699 342 678 350 c 0,124,125
 658 358 658 358 646.5 372 c 128,-1,126
 635 386 635 386 630 412 c 1,83,84
EndSplineSet
EndChar

StartChar: registered
Encoding: 174 174 133
Width: 1687
Flags: W
LayerCount: 2
Fore
SplineSet
323 123 m 1,0,1
 294 163 294 163 269.5 226.5 c 128,-1,2
 245 290 245 290 228 360.5 c 128,-1,3
 211 431 211 431 201.5 498.5 c 128,-1,4
 192 566 192 566 192 614 c 0,5,6
 192 670 192 670 194.5 731.5 c 128,-1,7
 197 793 197 793 205 852.5 c 128,-1,8
 213 912 213 912 228.5 967 c 128,-1,9
 244 1022 244 1022 270 1065 c 0,10,11
 301 1116 301 1116 350.5 1156 c 128,-1,12
 400 1196 400 1196 452 1222 c 0,13,14
 478 1235 478 1235 530 1249.5 c 128,-1,15
 582 1264 582 1264 646.5 1276 c 128,-1,16
 711 1288 711 1288 781.5 1295.5 c 128,-1,17
 852 1303 852 1303 917 1303 c 0,18,19
 975 1303 975 1303 1035 1295 c 128,-1,20
 1095 1287 1095 1287 1149 1274.5 c 128,-1,21
 1203 1262 1203 1262 1247 1245.5 c 128,-1,22
 1291 1229 1291 1229 1319 1212 c 0,23,24
 1368 1182 1368 1182 1404.5 1136 c 128,-1,25
 1441 1090 1441 1090 1465 1025 c 128,-1,26
 1489 960 1489 960 1501 874 c 128,-1,27
 1513 788 1513 788 1513 678 c 0,28,29
 1513 628 1513 628 1505 565.5 c 128,-1,30
 1497 503 1497 503 1482 436.5 c 128,-1,31
 1467 370 1467 370 1447 304 c 128,-1,32
 1427 238 1427 238 1402.5 181.5 c 128,-1,33
 1378 125 1378 125 1351 82 c 128,-1,34
 1324 39 1324 39 1296 18 c 0,35,36
 1270 -2 1270 -2 1228 -15 c 128,-1,37
 1186 -28 1186 -28 1138 -36.5 c 128,-1,38
 1090 -45 1090 -45 1039.5 -48.5 c 128,-1,39
 989 -52 989 -52 946 -53 c 1,40,41
 835 -53 835 -53 739 -37 c 128,-1,42
 643 -21 643 -21 564 4.5 c 128,-1,43
 485 30 485 30 424 61 c 128,-1,44
 363 92 363 92 323 123 c 1,0,1
479 256 m 1,45,46
 512 229 512 229 565 207 c 128,-1,47
 618 185 618 185 682 170 c 128,-1,48
 746 155 746 155 816 147 c 128,-1,49
 886 139 886 139 953 139 c 256,50,51
 1020 139 1020 139 1077.5 147.5 c 128,-1,52
 1135 156 1135 156 1177 174 c 1,53,54
 1204 213 1204 213 1227 267 c 128,-1,55
 1250 321 1250 321 1267.5 386.5 c 128,-1,56
 1285 452 1285 452 1294.5 526.5 c 128,-1,57
 1304 601 1304 601 1304 682 c 0,58,59
 1304 724 1304 724 1300 773.5 c 128,-1,60
 1296 823 1296 823 1286 872 c 128,-1,61
 1276 921 1276 921 1259 964.5 c 128,-1,62
 1242 1008 1242 1008 1216 1040 c 1,63,64
 1182 1055 1182 1055 1139 1065 c 128,-1,65
 1096 1075 1096 1075 1052.5 1081.5 c 128,-1,66
 1009 1088 1009 1088 969.5 1091 c 128,-1,67
 930 1094 930 1094 903 1094 c 0,68,69
 858 1094 858 1094 801 1089 c 128,-1,70
 744 1084 744 1084 684.5 1073.5 c 128,-1,71
 625 1063 625 1063 568 1048 c 128,-1,72
 511 1033 511 1033 467 1012 c 1,73,74
 447 983 447 983 433.5 941.5 c 128,-1,75
 420 900 420 900 412 854 c 128,-1,76
 404 808 404 808 400 762.5 c 128,-1,77
 396 717 396 717 396 681 c 0,78,79
 396 631 396 631 399.5 576 c 128,-1,80
 403 521 403 521 412 465.5 c 128,-1,81
 421 410 421 410 437 356.5 c 128,-1,82
 453 303 453 303 479 256 c 1,45,46
602 755 m 1,83,-1
 774 774 l 1,84,-1
 774 657 l 1,85,-1
 772 580 l 1,86,87
 790 581 790 581 812.5 584 c 128,-1,88
 835 587 835 587 858 591.5 c 128,-1,89
 881 596 881 596 903 603 c 128,-1,90
 925 610 925 610 942 619 c 1,91,92
 953 649 953 649 957.5 672.5 c 128,-1,93
 962 696 962 696 962 720 c 0,94,95
 962 726 962 726 962 735 c 128,-1,96
 962 744 962 744 960 757 c 1,97,98
 930 768 930 768 878.5 778 c 128,-1,99
 827 788 827 788 769 796.5 c 128,-1,100
 711 805 711 805 654 810.5 c 128,-1,101
 597 816 597 816 557 818 c 1,102,-1
 602 987 l 1,103,104
 641 985 641 985 697.5 979.5 c 128,-1,105
 754 974 754 974 815.5 964.5 c 128,-1,106
 877 955 877 955 938 941 c 128,-1,107
 999 927 999 927 1048 909 c 0,108,109
 1066 903 1066 903 1083.5 890.5 c 128,-1,110
 1101 878 1101 878 1114 863.5 c 128,-1,111
 1127 849 1127 849 1135 835 c 128,-1,112
 1143 821 1143 821 1143 812 c 0,113,114
 1143 792 1143 792 1140.5 760 c 128,-1,115
 1138 728 1138 728 1131.5 691 c 128,-1,116
 1125 654 1125 654 1114 616 c 128,-1,117
 1103 578 1103 578 1087 546 c 0,118,119
 1082 536 1082 536 1075 526.5 c 128,-1,120
 1068 517 1068 517 1059 513 c 2,121,-1
 996 489 l 1,122,123
 1010 478 1010 478 1021.5 467.5 c 128,-1,124
 1033 457 1033 457 1044 446 c 0,125,126
 1068 424 1068 424 1088.5 399.5 c 128,-1,127
 1109 375 1109 375 1129 342 c 1,128,-1
 981 251 l 1,129,-1
 863 465 l 1,130,-1
 774 460 l 1,131,-1
 770 290 l 1,132,-1
 621 281 l 1,133,-1
 602 755 l 1,83,-1
EndSplineSet
EndChar

StartChar: asciicircum
Encoding: 94 94 134
Width: 940
Flags: W
LayerCount: 2
Fore
SplineSet
26 563 m 1,0,-1
 331 1264 l 1,1,-1
 575 1290 l 1,2,-1
 919 569 l 1,3,-1
 764 483 l 1,4,-1
 458 1010 l 1,5,-1
 186 483 l 1,6,-1
 26 563 l 1,0,-1
EndSplineSet
EndChar

StartChar: underscore
Encoding: 95 95 135
Width: 1255
Flags: W
LayerCount: 2
Fore
SplineSet
1268 0 m 1,0,-1
 1252 -174 l 1,1,-1
 -23 -174 l 1,2,-1
 6 0 l 1,3,-1
 1268 0 l 1,0,-1
EndSplineSet
EndChar

StartChar: section
Encoding: 167 167 136
Width: 932
Flags: W
LayerCount: 2
Fore
SplineSet
65 -113 m 1,0,1
 103 -108 103 -108 153.5 -100 c 128,-1,2
 204 -92 204 -92 260 -83 c 128,-1,3
 316 -74 316 -74 372.5 -65 c 128,-1,4
 429 -56 429 -56 479 -49 c 1,5,-1
 499 47 l 1,6,7
 433 93 433 93 387.5 124.5 c 128,-1,8
 342 156 342 156 312.5 177 c 128,-1,9
 283 198 283 198 267 209.5 c 128,-1,10
 251 221 251 221 243 227 c 128,-1,11
 235 233 235 233 232.5 234.5 c 128,-1,12
 230 236 230 236 229 237 c 0,13,14
 214 249 214 249 198 266 c 128,-1,15
 182 283 182 283 172 315 c 0,16,17
 152 381 152 381 133.5 456.5 c 128,-1,18
 115 532 115 532 106 610 c 1,19,-1
 307 664 l 1,20,21
 312 616 312 616 321 569 c 0,22,23
 329 529 329 529 339.5 485 c 128,-1,24
 350 441 350 441 366 406 c 1,25,26
 412 416 412 416 453 432 c 128,-1,27
 494 448 494 448 544 471 c 1,28,-1
 555 635 l 1,29,-1
 205 768 l 2,30,31
 174 780 174 780 157.5 815 c 128,-1,32
 141 850 141 850 141 887 c 0,33,34
 141 889 141 889 141.5 894.5 c 128,-1,35
 142 900 142 900 144.5 921.5 c 128,-1,36
 147 943 147 943 152 987 c 128,-1,37
 157 1031 157 1031 166 1110 c 0,38,39
 170 1142 170 1142 182.5 1163.5 c 128,-1,40
 195 1185 195 1185 211.5 1199.5 c 128,-1,41
 228 1214 228 1214 247 1222.5 c 128,-1,42
 266 1231 266 1231 282 1237 c 0,43,44
 293 1241 293 1241 321 1248.5 c 128,-1,45
 349 1256 349 1256 387 1265 c 128,-1,46
 425 1274 425 1274 470 1284 c 128,-1,47
 515 1294 515 1294 560.5 1303.5 c 128,-1,48
 606 1313 606 1313 648 1321 c 128,-1,49
 690 1329 690 1329 723 1335 c 1,50,-1
 768 1106 l 1,51,-1
 379 1049 l 1,52,-1
 362 952 l 1,53,-1
 731 780 l 2,54,55
 754 769 754 769 772 747.5 c 128,-1,56
 790 726 790 726 790 684 c 0,57,58
 790 682 790 682 789 675 c 128,-1,59
 788 668 788 668 785 640 c 128,-1,60
 782 612 782 612 775 554.5 c 128,-1,61
 768 497 768 497 756 393 c 0,62,63
 753 370 753 370 741.5 354 c 128,-1,64
 730 338 730 338 713.5 326.5 c 128,-1,65
 697 315 697 315 678 307 c 128,-1,66
 659 299 659 299 641 293 c 0,67,68
 640 293 640 293 638 292.5 c 128,-1,69
 636 292 636 292 627 289 c 128,-1,70
 618 286 618 286 601 280.5 c 128,-1,71
 584 275 584 275 553 266 c 1,72,-1
 587 242 l 2,73,74
 628 213 628 213 654.5 193.5 c 128,-1,75
 681 174 681 174 697 158.5 c 128,-1,76
 713 143 713 143 719 129 c 128,-1,77
 725 115 725 115 725 98 c 0,78,79
 725 96 725 96 724.5 91.5 c 128,-1,80
 724 87 724 87 720.5 66 c 128,-1,81
 717 45 717 45 709.5 2 c 128,-1,82
 702 -41 702 -41 688 -119 c 1,83,84
 684 -151 684 -151 665.5 -174 c 128,-1,85
 647 -197 647 -197 622 -212.5 c 128,-1,86
 597 -228 597 -228 569 -238.5 c 128,-1,87
 541 -249 541 -249 518 -256 c 0,88,89
 487 -266 487 -266 436 -278 c 128,-1,90
 385 -290 385 -290 327.5 -301 c 128,-1,91
 270 -312 270 -312 213.5 -320.5 c 128,-1,92
 157 -329 157 -329 116 -332 c 1,93,-1
 65 -113 l 1,94,-1
 65 -113 l 1,0,1
EndSplineSet
EndChar

StartChar: acute
Encoding: 180 180 137
Width: 553
Flags: W
LayerCount: 2
Fore
SplineSet
45 1220 m 1,0,-1
 334 1589 l 1,1,-1
 508 1425 l 1,2,3
 486 1393 486 1393 447.5 1352 c 128,-1,4
 409 1311 409 1311 361 1270 c 0,5,6
 333 1246 333 1246 304 1223 c 128,-1,7
 275 1200 275 1200 248 1180 c 128,-1,8
 221 1160 221 1160 196.5 1144 c 128,-1,9
 172 1128 172 1128 153 1117 c 1,10,-1
 45 1220 l 1,0,-1
EndSplineSet
EndChar

StartChar: grave
Encoding: 96 96 138
Width: 528
Flags: W
LayerCount: 2
Fore
SplineSet
395 1117 m 1,0,1
 376 1128 376 1128 351.5 1144 c 128,-1,2
 327 1160 327 1160 300 1180.5 c 128,-1,3
 273 1201 273 1201 244.5 1224 c 128,-1,4
 216 1247 216 1247 188 1271 c 0,5,6
 161 1294 161 1294 135 1319.5 c 128,-1,7
 109 1345 109 1345 86.5 1370 c 128,-1,8
 64 1395 64 1395 47.5 1417 c 128,-1,9
 31 1439 31 1439 22 1455 c 1,10,-1
 217 1591 l 1,11,-1
 504 1220 l 1,12,-1
 395 1117 l 1,13,-1
 395 1117 l 1,0,1
EndSplineSet
EndChar

StartChar: tilde
Encoding: 732 732 139
Width: 807
Flags: W
LayerCount: 2
Fore
SplineSet
63 1244 m 1,0,1
 81 1271 81 1271 111 1305 c 128,-1,2
 141 1339 141 1339 174 1369.5 c 128,-1,3
 207 1400 207 1400 238.5 1420.5 c 128,-1,4
 270 1441 270 1441 291 1441 c 0,5,6
 318 1441 318 1441 352.5 1427 c 128,-1,7
 387 1413 387 1413 419.5 1396 c 128,-1,8
 452 1379 452 1379 479 1365 c 128,-1,9
 506 1351 506 1351 518 1351 c 0,10,11
 520 1351 520 1351 524.5 1353 c 128,-1,12
 529 1355 529 1355 544 1364.5 c 128,-1,13
 559 1374 559 1374 588.5 1394.5 c 128,-1,14
 618 1415 618 1415 671 1453 c 1,15,-1
 747 1359 l 1,16,17
 730 1333 730 1333 703 1294.5 c 128,-1,18
 676 1256 676 1256 643.5 1220 c 128,-1,19
 611 1184 611 1184 575 1158 c 128,-1,20
 539 1132 539 1132 504 1132 c 0,21,22
 477 1132 477 1132 443.5 1146.5 c 128,-1,23
 410 1161 410 1161 379.5 1178 c 128,-1,24
 349 1195 349 1195 325 1209.5 c 128,-1,25
 301 1224 301 1224 293 1224 c 0,26,27
 291 1224 291 1224 286.5 1222.5 c 128,-1,28
 282 1221 282 1221 266 1214 c 128,-1,29
 250 1207 250 1207 217.5 1192.5 c 128,-1,30
 185 1178 185 1178 127 1152 c 1,31,-1
 63 1244 l 1,0,1
EndSplineSet
EndChar

StartChar: asciitilde
Encoding: 126 126 140
Width: 1007
Flags: W
LayerCount: 2
Fore
SplineSet
43 584 m 1,0,1
 55 602 55 602 76 625.5 c 128,-1,2
 97 649 97 649 123 674 c 128,-1,3
 149 699 149 699 178 723 c 128,-1,4
 207 747 207 747 233.5 766.5 c 128,-1,5
 260 786 260 786 282.5 797.5 c 128,-1,6
 305 809 305 809 319 809 c 0,7,8
 337 809 337 809 371 798.5 c 128,-1,9
 405 788 405 788 446 773 c 128,-1,10
 487 758 487 758 530.5 739.5 c 128,-1,11
 574 721 574 721 611 706 c 128,-1,12
 648 691 648 691 675 680.5 c 128,-1,13
 702 670 702 670 710 670 c 0,14,15
 713 670 713 670 722 674.5 c 128,-1,16
 731 679 731 679 751 692.5 c 128,-1,17
 771 706 771 706 805.5 729.5 c 128,-1,18
 840 753 840 753 893 791 c 1,19,-1
 975 694 l 1,20,21
 958 668 958 668 925.5 627.5 c 128,-1,22
 893 587 893 587 854 548.5 c 128,-1,23
 815 510 815 510 773 482.5 c 128,-1,24
 731 455 731 455 696 455 c 0,25,26
 678 455 678 455 645 465.5 c 128,-1,27
 612 476 612 476 572 491.5 c 128,-1,28
 532 507 532 507 490 525.5 c 128,-1,29
 448 544 448 544 412.5 559.5 c 128,-1,30
 377 575 377 575 352 585.5 c 128,-1,31
 327 596 327 596 321 596 c 0,32,33
 319 596 319 596 307.5 589.5 c 128,-1,34
 296 583 296 583 270.5 570 c 128,-1,35
 245 557 245 557 204.5 537.5 c 128,-1,36
 164 518 164 518 106 492 c 1,37,-1
 43 584 l 1,0,1
EndSplineSet
EndChar

StartChar: dieresis
Encoding: 168 168 141
Width: 708
Flags: W
LayerCount: 2
Fore
SplineSet
80 1156 m 1,0,1
 75 1199 75 1199 70.5 1233 c 128,-1,2
 66 1267 66 1267 61 1295.5 c 128,-1,3
 56 1324 56 1324 50.5 1349 c 128,-1,4
 45 1374 45 1374 39 1398 c 1,5,-1
 256 1453 l 1,6,7
 265 1438 265 1438 271.5 1416 c 128,-1,8
 278 1394 278 1394 282.5 1368 c 128,-1,9
 287 1342 287 1342 289 1314.5 c 128,-1,10
 291 1287 291 1287 291 1262 c 0,11,12
 291 1230 291 1230 287.5 1204 c 128,-1,13
 284 1178 284 1178 278 1167 c 1,14,-1
 80 1156 l 1,0,1
413 1177 m 1,15,16
 421 1212 421 1212 426 1258 c 128,-1,17
 431 1304 431 1304 431 1349 c 0,18,19
 431 1371 431 1371 429.5 1390.5 c 128,-1,20
 428 1410 428 1410 426 1427 c 1,21,-1
 649 1443 l 1,22,23
 657 1426 657 1426 660.5 1403 c 128,-1,24
 664 1380 664 1380 664 1354 c 0,25,26
 664 1324 664 1324 659.5 1291.5 c 128,-1,27
 655 1259 655 1259 648.5 1230 c 128,-1,28
 642 1201 642 1201 633.5 1178 c 128,-1,29
 625 1155 625 1155 616 1142 c 1,30,-1
 413 1177 l 1,15,16
EndSplineSet
EndChar

StartChar: cedilla
Encoding: 184 184 142
Width: 575
Flags: W
LayerCount: 2
Fore
SplineSet
323 74 m 1,0,-1
 291 -102 l 1,1,2
 315 -108 315 -108 339 -115 c 128,-1,3
 363 -122 363 -122 383.5 -129 c 128,-1,4
 404 -136 404 -136 419.5 -141.5 c 128,-1,5
 435 -147 435 -147 442 -150 c 0,6,7
 451 -154 451 -154 456.5 -162 c 128,-1,8
 462 -170 462 -170 465 -179.5 c 128,-1,9
 468 -189 468 -189 468.5 -198.5 c 128,-1,10
 469 -208 469 -208 469 -215 c 0,11,12
 469 -236 469 -236 464.5 -267 c 128,-1,13
 460 -298 460 -298 453 -328.5 c 128,-1,14
 446 -359 446 -359 437 -385.5 c 128,-1,15
 428 -412 428 -412 420 -424 c 0,16,17
 410 -439 410 -439 373 -455.5 c 128,-1,18
 336 -472 336 -472 291.5 -487.5 c 128,-1,19
 247 -503 247 -503 205 -515 c 128,-1,20
 163 -527 163 -527 143 -532 c 1,21,-1
 98 -375 l 1,22,23
 154 -359 154 -359 194 -346.5 c 128,-1,24
 234 -334 234 -334 274 -322 c 1,25,-1
 280 -264 l 1,26,27
 236 -251 236 -251 195.5 -242 c 128,-1,28
 155 -233 155 -233 100 -223 c 1,29,-1
 182 53 l 1,30,-1
 323 74 l 1,0,-1
EndSplineSet
EndChar

StartChar: circumflex
Encoding: 710 710 143
Width: 692
Flags: W
LayerCount: 2
Fore
SplineSet
26 1232 m 1,0,-1
 250 1529 l 1,1,-1
 440 1535 l 1,2,-1
 671 1230 l 1,3,-1
 547 1134 l 1,4,5
 518 1158 518 1158 493.5 1178 c 128,-1,6
 469 1198 469 1198 445 1218.5 c 128,-1,7
 421 1239 421 1239 395 1262.5 c 128,-1,8
 369 1286 369 1286 338 1316 c 1,9,10
 288 1262 288 1262 238 1217 c 128,-1,11
 188 1172 188 1172 135 1134 c 1,12,-1
 26 1232 l 1,0,-1
EndSplineSet
EndChar

StartChar: macron
Encoding: 175 175 144
Width: 807
Flags: W
LayerCount: 2
Fore
SplineSet
82 1382 m 1,0,-1
 735 1382 l 1,1,-1
 721 1167 l 1,2,-1
 96 1167 l 1,3,-1
 82 1382 l 1,0,-1
EndSplineSet
EndChar

StartChar: ae
Encoding: 230 230 145
Width: 1368
Flags: W
LayerCount: 2
Fore
SplineSet
149 53 m 0,0,1
 131 61 131 61 120 92.5 c 128,-1,2
 109 124 109 124 102 164.5 c 128,-1,3
 95 205 95 205 92.5 247.5 c 128,-1,4
 90 290 90 290 90 320 c 1,5,6
 91 343 91 343 94.5 381 c 128,-1,7
 98 419 98 419 105.5 456 c 128,-1,8
 113 493 113 493 125 521.5 c 128,-1,9
 137 550 137 550 155 555 c 0,10,11
 202 567 202 567 252.5 575.5 c 128,-1,12
 303 584 303 584 355 590.5 c 128,-1,13
 407 597 407 597 459.5 602 c 128,-1,14
 512 607 512 607 563 612 c 1,15,-1
 561 754 l 1,16,17
 453 775 453 775 349 788.5 c 128,-1,18
 245 802 245 802 139 819 c 1,19,-1
 192 1038 l 1,20,21
 271 1027 271 1027 344 1015 c 128,-1,22
 417 1003 417 1003 486 988.5 c 128,-1,23
 555 974 555 974 619 955 c 128,-1,24
 683 936 683 936 744 911 c 1,25,26
 785 931 785 931 829 949.5 c 128,-1,27
 873 968 873 968 915.5 982 c 128,-1,28
 958 996 958 996 997.5 1004 c 128,-1,29
 1037 1012 1037 1012 1069 1012 c 0,30,31
 1102 1012 1102 1012 1130.5 1009 c 128,-1,32
 1159 1006 1159 1006 1181 996 c 128,-1,33
 1203 986 1203 986 1219 966.5 c 128,-1,34
 1235 947 1235 947 1243 915 c 0,35,36
 1254 870 1254 870 1264 748 c 128,-1,37
 1274 626 1274 626 1274 428 c 2,38,-1
 1274 369 l 1,39,-1
 794 375 l 1,40,-1
 794 233 l 1,41,42
 849 220 849 220 907 210 c 128,-1,43
 965 200 965 200 1026.5 190.5 c 128,-1,44
 1088 181 1088 181 1153.5 170.5 c 128,-1,45
 1219 160 1219 160 1288 147 c 1,46,-1
 1229 -72 l 1,47,48
 1153 -60 1153 -60 1067.5 -42 c 128,-1,49
 982 -24 982 -24 902 -4 c 128,-1,50
 822 16 822 16 754 35 c 128,-1,51
 686 54 686 54 645 67 c 0,52,53
 614 77 614 77 592.5 96 c 128,-1,54
 571 115 571 115 571 150 c 2,55,-1
 567 431 l 1,56,57
 541 426 541 426 510 421 c 128,-1,58
 479 416 479 416 447.5 410 c 128,-1,59
 416 404 416 404 385.5 397 c 128,-1,60
 355 390 355 390 329 383 c 1,61,62
 325 360 325 360 322 332 c 128,-1,63
 319 304 319 304 319 275 c 0,64,65
 319 261 319 261 320 246 c 128,-1,66
 321 231 321 231 323 217 c 1,67,68
 368 206 368 206 414 198 c 128,-1,69
 460 190 460 190 508 182 c 1,70,-1
 463 -25 l 1,71,72
 430 -22 430 -22 384.5 -13 c 128,-1,73
 339 -4 339 -4 293.5 7.5 c 128,-1,74
 248 19 248 19 209 31.5 c 128,-1,75
 170 44 170 44 149 53 c 0,0,1
1048 567 m 1,76,-1
 1048 588 l 2,77,78
 1048 642 1048 642 1042.5 690 c 128,-1,79
 1037 738 1037 738 1030 782 c 1,80,81
 1014 782 1014 782 991 780.5 c 128,-1,82
 968 779 968 779 954 776 c 0,83,84
 941 774 941 774 917 767 c 128,-1,85
 893 760 893 760 868 751 c 128,-1,86
 843 742 843 742 821 732 c 128,-1,87
 799 722 799 722 790 715 c 1,88,-1
 789 676 l 1,89,-1
 790 557 l 1,90,-1
 1048 567 l 1,76,-1
EndSplineSet
EndChar

StartChar: agrave
Encoding: 224 224 146
Width: 901
Flags: W
LayerCount: 2
Fore
SplineSet
529 1117 m 1,0,1
 510 1128 510 1128 485.5 1144 c 128,-1,2
 461 1160 461 1160 434 1180.5 c 128,-1,3
 407 1201 407 1201 378.5 1224 c 128,-1,4
 350 1247 350 1247 322 1271 c 0,5,6
 295 1294 295 1294 269 1319.5 c 128,-1,7
 243 1345 243 1345 220.5 1370 c 128,-1,8
 198 1395 198 1395 181.5 1417 c 128,-1,9
 165 1439 165 1439 156 1455 c 1,10,-1
 351 1591 l 1,11,-1
 638 1220 l 1,12,-1
 529 1117 l 1,0,1
149 53 m 0,13,14
 136 58 136 58 126 76 c 128,-1,15
 116 94 116 94 109.5 120 c 128,-1,16
 103 146 103 146 99 176.5 c 128,-1,17
 95 207 95 207 92.5 237 c 128,-1,18
 90 267 90 267 89.5 293.5 c 128,-1,19
 89 320 89 320 90 338 c 0,20,21
 90 349 90 349 92 368.5 c 128,-1,22
 94 388 94 388 97.5 411 c 128,-1,23
 101 434 101 434 106 458.5 c 128,-1,24
 111 483 111 483 118 503.5 c 128,-1,25
 125 524 125 524 134.5 538.5 c 128,-1,26
 144 553 144 553 156 556 c 0,27,28
 250 581 250 581 354.5 592.5 c 128,-1,29
 459 604 459 604 562 615 c 1,30,-1
 558 756 l 1,31,32
 449 777 449 777 341.5 789.5 c 128,-1,33
 234 802 234 802 128 819 c 1,34,-1
 181 1038 l 1,35,-1
 207 1034 l 2,36,37
 282 1023 282 1023 350 1013 c 128,-1,38
 418 1003 418 1003 481.5 991 c 128,-1,39
 545 979 545 979 604 964.5 c 128,-1,40
 663 950 663 950 719 930 c 0,41,42
 741 922 741 922 754 911 c 128,-1,43
 767 900 767 900 774 887 c 128,-1,44
 781 874 781 874 783 860 c 128,-1,45
 785 846 785 846 785 833 c 2,46,-1
 789 285 l 1,47,-1
 576 264 l 1,48,-1
 570 435 l 1,49,50
 544 430 544 430 513 424.5 c 128,-1,51
 482 419 482 419 450 412.5 c 128,-1,52
 418 406 418 406 387 398.5 c 128,-1,53
 356 391 356 391 330 384 c 1,54,55
 325 360 325 360 322 331.5 c 128,-1,56
 319 303 319 303 319 274 c 0,57,58
 319 260 319 260 320 245.5 c 128,-1,59
 321 231 321 231 323 217 c 1,60,61
 424 194 424 194 533 179.5 c 128,-1,62
 642 165 642 165 758 152 c 2,63,-1
 840 143 l 1,64,-1
 795 -72 l 1,65,66
 727 -65 727 -65 643 -53.5 c 128,-1,67
 559 -42 559 -42 472 -26.5 c 128,-1,68
 385 -11 385 -11 301 9 c 128,-1,69
 217 29 217 29 149 53 c 0,13,14
EndSplineSet
EndChar

StartChar: aacute
Encoding: 225 225 147
Width: 901
Flags: W
LayerCount: 2
Fore
SplineSet
290 1220 m 1,0,-1
 579 1589 l 1,1,-1
 753 1425 l 1,2,3
 731 1393 731 1393 692.5 1352 c 128,-1,4
 654 1311 654 1311 606 1270 c 0,5,6
 578 1246 578 1246 549 1223 c 128,-1,7
 520 1200 520 1200 493 1180 c 128,-1,8
 466 1160 466 1160 441.5 1144 c 128,-1,9
 417 1128 417 1128 398 1117 c 1,10,-1
 290 1220 l 1,0,-1
149 53 m 0,11,12
 136 58 136 58 126 76 c 128,-1,13
 116 94 116 94 109.5 120 c 128,-1,14
 103 146 103 146 99 176.5 c 128,-1,15
 95 207 95 207 92.5 237 c 128,-1,16
 90 267 90 267 89.5 293.5 c 128,-1,17
 89 320 89 320 90 338 c 0,18,19
 90 349 90 349 92 368.5 c 128,-1,20
 94 388 94 388 97.5 411 c 128,-1,21
 101 434 101 434 106 458.5 c 128,-1,22
 111 483 111 483 118 503.5 c 128,-1,23
 125 524 125 524 134.5 538.5 c 128,-1,24
 144 553 144 553 156 556 c 0,25,26
 250 581 250 581 354.5 592.5 c 128,-1,27
 459 604 459 604 562 615 c 1,28,-1
 558 756 l 1,29,30
 449 777 449 777 341.5 789.5 c 128,-1,31
 234 802 234 802 128 819 c 1,32,-1
 181 1038 l 1,33,-1
 207 1034 l 2,34,35
 282 1023 282 1023 350 1013 c 128,-1,36
 418 1003 418 1003 481.5 991 c 128,-1,37
 545 979 545 979 604 964.5 c 128,-1,38
 663 950 663 950 719 930 c 0,39,40
 741 922 741 922 754 911 c 128,-1,41
 767 900 767 900 774 887 c 128,-1,42
 781 874 781 874 783 860 c 128,-1,43
 785 846 785 846 785 833 c 2,44,-1
 789 285 l 1,45,-1
 576 264 l 1,46,-1
 570 435 l 1,47,48
 544 430 544 430 513 424.5 c 128,-1,49
 482 419 482 419 450 412.5 c 128,-1,50
 418 406 418 406 387 398.5 c 128,-1,51
 356 391 356 391 330 384 c 1,52,53
 325 360 325 360 322 331.5 c 128,-1,54
 319 303 319 303 319 274 c 0,55,56
 319 260 319 260 320 245.5 c 128,-1,57
 321 231 321 231 323 217 c 1,58,59
 424 194 424 194 533 179.5 c 128,-1,60
 642 165 642 165 758 152 c 2,61,-1
 840 143 l 1,62,-1
 795 -72 l 1,63,64
 727 -65 727 -65 643 -53.5 c 128,-1,65
 559 -42 559 -42 472 -26.5 c 128,-1,66
 385 -11 385 -11 301 9 c 128,-1,67
 217 29 217 29 149 53 c 0,11,12
EndSplineSet
EndChar

StartChar: acircumflex
Encoding: 226 226 148
Width: 901
Flags: W
LayerCount: 2
Fore
SplineSet
134 1232 m 1,0,-1
 358 1529 l 1,1,-1
 548 1535 l 1,2,-1
 779 1230 l 1,3,-1
 655 1134 l 1,4,5
 626 1158 626 1158 601.5 1178 c 128,-1,6
 577 1198 577 1198 553 1218.5 c 128,-1,7
 529 1239 529 1239 503 1262.5 c 128,-1,8
 477 1286 477 1286 446 1316 c 1,9,10
 396 1262 396 1262 346 1217 c 128,-1,11
 296 1172 296 1172 243 1134 c 1,12,-1
 134 1232 l 1,0,-1
149 53 m 0,13,14
 136 58 136 58 126 76 c 128,-1,15
 116 94 116 94 109.5 120 c 128,-1,16
 103 146 103 146 99 176.5 c 128,-1,17
 95 207 95 207 92.5 237 c 128,-1,18
 90 267 90 267 89.5 293.5 c 128,-1,19
 89 320 89 320 90 338 c 0,20,21
 90 349 90 349 92 368.5 c 128,-1,22
 94 388 94 388 97.5 411 c 128,-1,23
 101 434 101 434 106 458.5 c 128,-1,24
 111 483 111 483 118 503.5 c 128,-1,25
 125 524 125 524 134.5 538.5 c 128,-1,26
 144 553 144 553 156 556 c 0,27,28
 250 581 250 581 354.5 592.5 c 128,-1,29
 459 604 459 604 562 615 c 1,30,-1
 558 756 l 1,31,32
 449 777 449 777 341.5 789.5 c 128,-1,33
 234 802 234 802 128 819 c 1,34,-1
 181 1038 l 1,35,-1
 207 1034 l 2,36,37
 282 1023 282 1023 350 1013 c 128,-1,38
 418 1003 418 1003 481.5 991 c 128,-1,39
 545 979 545 979 604 964.5 c 128,-1,40
 663 950 663 950 719 930 c 0,41,42
 741 922 741 922 754 911 c 128,-1,43
 767 900 767 900 774 887 c 128,-1,44
 781 874 781 874 783 860 c 128,-1,45
 785 846 785 846 785 833 c 2,46,-1
 789 285 l 1,47,-1
 576 264 l 1,48,-1
 570 435 l 1,49,50
 544 430 544 430 513 424.5 c 128,-1,51
 482 419 482 419 450 412.5 c 128,-1,52
 418 406 418 406 387 398.5 c 128,-1,53
 356 391 356 391 330 384 c 1,54,55
 325 360 325 360 322 331.5 c 128,-1,56
 319 303 319 303 319 274 c 0,57,58
 319 260 319 260 320 245.5 c 128,-1,59
 321 231 321 231 323 217 c 1,60,61
 424 194 424 194 533 179.5 c 128,-1,62
 642 165 642 165 758 152 c 2,63,-1
 840 143 l 1,64,-1
 795 -72 l 1,65,66
 727 -65 727 -65 643 -53.5 c 128,-1,67
 559 -42 559 -42 472 -26.5 c 128,-1,68
 385 -11 385 -11 301 9 c 128,-1,69
 217 29 217 29 149 53 c 0,13,14
EndSplineSet
EndChar

StartChar: adieresis
Encoding: 228 228 149
Width: 901
Flags: W
LayerCount: 2
Fore
SplineSet
179 1156 m 1,0,1
 174 1199 174 1199 169.5 1233 c 128,-1,2
 165 1267 165 1267 160 1295.5 c 128,-1,3
 155 1324 155 1324 149.5 1349 c 128,-1,4
 144 1374 144 1374 138 1398 c 1,5,-1
 355 1453 l 1,6,7
 364 1438 364 1438 370.5 1416 c 128,-1,8
 377 1394 377 1394 381.5 1368 c 128,-1,9
 386 1342 386 1342 388 1314.5 c 128,-1,10
 390 1287 390 1287 390 1262 c 0,11,12
 390 1230 390 1230 386.5 1204 c 128,-1,13
 383 1178 383 1178 377 1167 c 1,14,-1
 179 1156 l 1,0,1
512 1177 m 1,15,16
 520 1212 520 1212 525 1258 c 128,-1,17
 530 1304 530 1304 530 1349 c 0,18,19
 530 1371 530 1371 528.5 1390.5 c 128,-1,20
 527 1410 527 1410 525 1427 c 1,21,-1
 748 1443 l 1,22,23
 756 1426 756 1426 759.5 1403 c 128,-1,24
 763 1380 763 1380 763 1354 c 0,25,26
 763 1324 763 1324 758.5 1291.5 c 128,-1,27
 754 1259 754 1259 747.5 1230 c 128,-1,28
 741 1201 741 1201 732.5 1178 c 128,-1,29
 724 1155 724 1155 715 1142 c 1,30,-1
 512 1177 l 1,15,16
149 53 m 0,31,32
 136 58 136 58 126 76 c 128,-1,33
 116 94 116 94 109.5 120 c 128,-1,34
 103 146 103 146 99 176.5 c 128,-1,35
 95 207 95 207 92.5 237 c 128,-1,36
 90 267 90 267 89.5 293.5 c 128,-1,37
 89 320 89 320 90 338 c 0,38,39
 90 349 90 349 92 368.5 c 128,-1,40
 94 388 94 388 97.5 411 c 128,-1,41
 101 434 101 434 106 458.5 c 128,-1,42
 111 483 111 483 118 503.5 c 128,-1,43
 125 524 125 524 134.5 538.5 c 128,-1,44
 144 553 144 553 156 556 c 0,45,46
 250 581 250 581 354.5 592.5 c 128,-1,47
 459 604 459 604 562 615 c 1,48,-1
 558 756 l 1,49,50
 449 777 449 777 341.5 789.5 c 128,-1,51
 234 802 234 802 128 819 c 1,52,-1
 181 1038 l 1,53,-1
 207 1034 l 2,54,55
 282 1023 282 1023 350 1013 c 128,-1,56
 418 1003 418 1003 481.5 991 c 128,-1,57
 545 979 545 979 604 964.5 c 128,-1,58
 663 950 663 950 719 930 c 0,59,60
 741 922 741 922 754 911 c 128,-1,61
 767 900 767 900 774 887 c 128,-1,62
 781 874 781 874 783 860 c 128,-1,63
 785 846 785 846 785 833 c 2,64,-1
 789 285 l 1,65,-1
 576 264 l 1,66,-1
 570 435 l 1,67,68
 544 430 544 430 513 424.5 c 128,-1,69
 482 419 482 419 450 412.5 c 128,-1,70
 418 406 418 406 387 398.5 c 128,-1,71
 356 391 356 391 330 384 c 1,72,73
 325 360 325 360 322 331.5 c 128,-1,74
 319 303 319 303 319 274 c 0,75,76
 319 260 319 260 320 245.5 c 128,-1,77
 321 231 321 231 323 217 c 1,78,79
 424 194 424 194 533 179.5 c 128,-1,80
 642 165 642 165 758 152 c 2,81,-1
 840 143 l 1,82,-1
 795 -72 l 1,83,84
 727 -65 727 -65 643 -53.5 c 128,-1,85
 559 -42 559 -42 472 -26.5 c 128,-1,86
 385 -11 385 -11 301 9 c 128,-1,87
 217 29 217 29 149 53 c 0,31,32
EndSplineSet
EndChar

StartChar: atilde
Encoding: 227 227 150
Width: 901
Flags: W
LayerCount: 2
Fore
SplineSet
117 1244 m 1,0,1
 135 1271 135 1271 165 1305 c 128,-1,2
 195 1339 195 1339 228 1369.5 c 128,-1,3
 261 1400 261 1400 292.5 1420.5 c 128,-1,4
 324 1441 324 1441 345 1441 c 0,5,6
 372 1441 372 1441 406.5 1427 c 128,-1,7
 441 1413 441 1413 473.5 1396 c 128,-1,8
 506 1379 506 1379 533 1365 c 128,-1,9
 560 1351 560 1351 572 1351 c 0,10,11
 574 1351 574 1351 578.5 1353 c 128,-1,12
 583 1355 583 1355 598 1364.5 c 128,-1,13
 613 1374 613 1374 642.5 1394.5 c 128,-1,14
 672 1415 672 1415 725 1453 c 1,15,-1
 801 1359 l 1,16,17
 784 1333 784 1333 757 1294.5 c 128,-1,18
 730 1256 730 1256 697.5 1220 c 128,-1,19
 665 1184 665 1184 629 1158 c 128,-1,20
 593 1132 593 1132 558 1132 c 0,21,22
 531 1132 531 1132 497.5 1146.5 c 128,-1,23
 464 1161 464 1161 433.5 1178 c 128,-1,24
 403 1195 403 1195 379 1209.5 c 128,-1,25
 355 1224 355 1224 347 1224 c 0,26,27
 345 1224 345 1224 340.5 1222.5 c 128,-1,28
 336 1221 336 1221 320 1214 c 128,-1,29
 304 1207 304 1207 271.5 1192.5 c 128,-1,30
 239 1178 239 1178 181 1152 c 1,31,-1
 117 1244 l 1,0,1
149 53 m 0,32,33
 136 58 136 58 126 76 c 128,-1,34
 116 94 116 94 109.5 120 c 128,-1,35
 103 146 103 146 99 176.5 c 128,-1,36
 95 207 95 207 92.5 237 c 128,-1,37
 90 267 90 267 89.5 293.5 c 128,-1,38
 89 320 89 320 90 338 c 0,39,40
 90 349 90 349 92 368.5 c 128,-1,41
 94 388 94 388 97.5 411 c 128,-1,42
 101 434 101 434 106 458.5 c 128,-1,43
 111 483 111 483 118 503.5 c 128,-1,44
 125 524 125 524 134.5 538.5 c 128,-1,45
 144 553 144 553 156 556 c 0,46,47
 250 581 250 581 354.5 592.5 c 128,-1,48
 459 604 459 604 562 615 c 1,49,-1
 558 756 l 1,50,51
 449 777 449 777 341.5 789.5 c 128,-1,52
 234 802 234 802 128 819 c 1,53,-1
 181 1038 l 1,54,-1
 207 1034 l 2,55,56
 282 1023 282 1023 350 1013 c 128,-1,57
 418 1003 418 1003 481.5 991 c 128,-1,58
 545 979 545 979 604 964.5 c 128,-1,59
 663 950 663 950 719 930 c 0,60,61
 741 922 741 922 754 911 c 128,-1,62
 767 900 767 900 774 887 c 128,-1,63
 781 874 781 874 783 860 c 128,-1,64
 785 846 785 846 785 833 c 2,65,-1
 789 285 l 1,66,-1
 576 264 l 1,67,-1
 570 435 l 1,68,69
 544 430 544 430 513 424.5 c 128,-1,70
 482 419 482 419 450 412.5 c 128,-1,71
 418 406 418 406 387 398.5 c 128,-1,72
 356 391 356 391 330 384 c 1,73,74
 325 360 325 360 322 331.5 c 128,-1,75
 319 303 319 303 319 274 c 0,76,77
 319 260 319 260 320 245.5 c 128,-1,78
 321 231 321 231 323 217 c 1,79,80
 424 194 424 194 533 179.5 c 128,-1,81
 642 165 642 165 758 152 c 2,82,-1
 840 143 l 1,83,-1
 795 -72 l 1,84,85
 727 -65 727 -65 643 -53.5 c 128,-1,86
 559 -42 559 -42 472 -26.5 c 128,-1,87
 385 -11 385 -11 301 9 c 128,-1,88
 217 29 217 29 149 53 c 0,32,33
EndSplineSet
EndChar

StartChar: aring
Encoding: 229 229 151
Width: 901
Flags: W
LayerCount: 2
Fore
SplineSet
458 1115 m 0,0,1
 406 1115 406 1115 362.5 1133 c 128,-1,2
 319 1151 319 1151 288 1183.5 c 128,-1,3
 257 1216 257 1216 239.5 1261.5 c 128,-1,4
 222 1307 222 1307 222 1363 c 0,5,6
 222 1417 222 1417 240 1457.5 c 128,-1,7
 258 1498 258 1498 290 1524.5 c 128,-1,8
 322 1551 322 1551 366.5 1564.5 c 128,-1,9
 411 1578 411 1578 464 1578 c 0,10,11
 512 1578 512 1578 553.5 1565.5 c 128,-1,12
 595 1553 595 1553 626 1527 c 128,-1,13
 657 1501 657 1501 675 1461.5 c 128,-1,14
 693 1422 693 1422 693 1367 c 0,15,16
 693 1313 693 1313 676.5 1267 c 128,-1,17
 660 1221 660 1221 629.5 1187.5 c 128,-1,18
 599 1154 599 1154 555.5 1134.5 c 128,-1,19
 512 1115 512 1115 458 1115 c 0,0,1
453 1279 m 0,20,21
 485 1279 485 1279 502.5 1295.5 c 128,-1,22
 520 1312 520 1312 527 1349 c 1,23,24
 530 1389 530 1389 512 1405 c 128,-1,25
 494 1421 494 1421 459 1421 c 0,26,27
 444 1421 444 1421 430.5 1417 c 128,-1,28
 417 1413 417 1413 406.5 1405 c 128,-1,29
 396 1397 396 1397 391 1383.5 c 128,-1,30
 386 1370 386 1370 389 1351 c 1,31,32
 390 1337 390 1337 393.5 1324 c 128,-1,33
 397 1311 397 1311 404 1301 c 128,-1,34
 411 1291 411 1291 423 1285 c 128,-1,35
 435 1279 435 1279 453 1279 c 0,20,21
149 53 m 0,36,37
 136 58 136 58 126 76 c 128,-1,38
 116 94 116 94 109.5 120 c 128,-1,39
 103 146 103 146 99 176.5 c 128,-1,40
 95 207 95 207 92.5 237 c 128,-1,41
 90 267 90 267 89.5 293.5 c 128,-1,42
 89 320 89 320 90 338 c 0,43,44
 90 349 90 349 92 368.5 c 128,-1,45
 94 388 94 388 97.5 411 c 128,-1,46
 101 434 101 434 106 458.5 c 128,-1,47
 111 483 111 483 118 503.5 c 128,-1,48
 125 524 125 524 134.5 538.5 c 128,-1,49
 144 553 144 553 156 556 c 0,50,51
 250 581 250 581 354.5 592.5 c 128,-1,52
 459 604 459 604 562 615 c 1,53,-1
 558 756 l 1,54,55
 449 777 449 777 341.5 789.5 c 128,-1,56
 234 802 234 802 128 819 c 1,57,-1
 181 1038 l 1,58,-1
 207 1034 l 2,59,60
 282 1023 282 1023 350 1013 c 128,-1,61
 418 1003 418 1003 481.5 991 c 128,-1,62
 545 979 545 979 604 964.5 c 128,-1,63
 663 950 663 950 719 930 c 0,64,65
 741 922 741 922 754 911 c 128,-1,66
 767 900 767 900 774 887 c 128,-1,67
 781 874 781 874 783 860 c 128,-1,68
 785 846 785 846 785 833 c 2,69,-1
 789 285 l 1,70,-1
 576 264 l 1,71,-1
 570 435 l 1,72,73
 544 430 544 430 513 424.5 c 128,-1,74
 482 419 482 419 450 412.5 c 128,-1,75
 418 406 418 406 387 398.5 c 128,-1,76
 356 391 356 391 330 384 c 1,77,78
 325 360 325 360 322 331.5 c 128,-1,79
 319 303 319 303 319 274 c 0,80,81
 319 260 319 260 320 245.5 c 128,-1,82
 321 231 321 231 323 217 c 1,83,84
 424 194 424 194 533 179.5 c 128,-1,85
 642 165 642 165 758 152 c 2,86,-1
 840 143 l 1,87,-1
 795 -72 l 1,88,89
 727 -65 727 -65 643 -53.5 c 128,-1,90
 559 -42 559 -42 472 -26.5 c 128,-1,91
 385 -11 385 -11 301 9 c 128,-1,92
 217 29 217 29 149 53 c 0,36,37
EndSplineSet
EndChar

StartChar: ccedilla
Encoding: 231 231 152
Width: 805
Flags: W
LayerCount: 2
Fore
SplineSet
136 131 m 0,0,1
 131 165 131 165 127.5 205 c 128,-1,2
 124 245 124 245 121.5 286 c 128,-1,3
 119 327 119 327 117.5 367 c 128,-1,4
 116 407 116 407 116 442 c 0,5,6
 116 497 116 497 118.5 552.5 c 128,-1,7
 121 608 121 608 125.5 659.5 c 128,-1,8
 130 711 130 711 136 757.5 c 128,-1,9
 142 804 142 804 149 840 c 0,10,11
 154 867 154 867 160 885 c 128,-1,12
 166 903 166 903 175 914 c 128,-1,13
 184 925 184 925 196.5 932 c 128,-1,14
 209 939 209 939 227 944 c 0,15,16
 264 955 264 955 325.5 966.5 c 128,-1,17
 387 978 387 978 455.5 988.5 c 128,-1,18
 524 999 524 999 590.5 1008 c 128,-1,19
 657 1017 657 1017 704 1024 c 1,20,-1
 739 799 l 1,21,22
 711 796 711 796 661.5 791 c 128,-1,23
 612 786 612 786 559 779.5 c 128,-1,24
 506 773 506 773 459 766.5 c 128,-1,25
 412 760 412 760 389 754 c 1,26,27
 384 734 384 734 379.5 692.5 c 128,-1,28
 375 651 375 651 370.5 604.5 c 128,-1,29
 366 558 366 558 363.5 513 c 128,-1,30
 361 468 361 468 361 440 c 0,31,32
 361 363 361 363 363.5 309 c 128,-1,33
 366 255 366 255 371 223 c 1,34,-1
 753 152 l 1,35,-1
 694 -63 l 1,36,37
 653 -56 653 -56 601.5 -46.5 c 128,-1,38
 550 -37 550 -37 496 -26 c 1,39,-1
 479 -122 l 1,40,41
 503 -128 503 -128 527 -135 c 128,-1,42
 551 -142 551 -142 571.5 -149 c 128,-1,43
 592 -156 592 -156 607.5 -161.5 c 128,-1,44
 623 -167 623 -167 630 -170 c 0,45,46
 639 -174 639 -174 644.5 -182 c 128,-1,47
 650 -190 650 -190 653 -199.5 c 128,-1,48
 656 -209 656 -209 656.5 -218.5 c 128,-1,49
 657 -228 657 -228 657 -235 c 0,50,51
 657 -256 657 -256 652.5 -287 c 128,-1,52
 648 -318 648 -318 641 -348.5 c 128,-1,53
 634 -379 634 -379 625 -405.5 c 128,-1,54
 616 -432 616 -432 608 -444 c 0,55,56
 598 -459 598 -459 561 -475.5 c 128,-1,57
 524 -492 524 -492 479.5 -507.5 c 128,-1,58
 435 -523 435 -523 393 -535 c 128,-1,59
 351 -547 351 -547 331 -552 c 1,60,-1
 286 -395 l 1,61,62
 342 -379 342 -379 382 -366.5 c 128,-1,63
 422 -354 422 -354 462 -342 c 1,64,-1
 468 -284 l 1,65,66
 424 -271 424 -271 383.5 -262 c 128,-1,67
 343 -253 343 -253 288 -243 c 1,68,-1
 361 3 l 1,69,70
 307 15 307 15 264 26.5 c 128,-1,71
 221 38 221 38 200 47 c 1,72,73
 173 56 173 56 157 76 c 128,-1,74
 141 96 141 96 136 131 c 0,0,1
EndSplineSet
EndChar

StartChar: egrave
Encoding: 232 232 153
Width: 958
Flags: W
LayerCount: 2
Fore
SplineSet
530 1117 m 1,0,1
 511 1128 511 1128 486.5 1144 c 128,-1,2
 462 1160 462 1160 435 1180.5 c 128,-1,3
 408 1201 408 1201 379.5 1224 c 128,-1,4
 351 1247 351 1247 323 1271 c 0,5,6
 296 1294 296 1294 270 1319.5 c 128,-1,7
 244 1345 244 1345 221.5 1370 c 128,-1,8
 199 1395 199 1395 182.5 1417 c 128,-1,9
 166 1439 166 1439 157 1455 c 1,10,-1
 352 1591 l 1,11,-1
 639 1220 l 1,12,-1
 530 1117 l 1,0,1
122 666 m 2,13,14
 122 681 122 681 122.5 704.5 c 128,-1,15
 123 728 123 728 126 751 c 128,-1,16
 129 774 129 774 135 794 c 128,-1,17
 141 814 141 814 153 823 c 0,18,19
 177 842 177 842 212.5 863.5 c 128,-1,20
 248 885 248 885 290 906 c 128,-1,21
 332 927 332 927 377.5 946 c 128,-1,22
 423 965 423 965 467 980 c 128,-1,23
 511 995 511 995 552 1003.5 c 128,-1,24
 593 1012 593 1012 626 1012 c 0,25,26
 654 1012 654 1012 683 1007.5 c 128,-1,27
 712 1003 712 1003 736 993 c 128,-1,28
 760 983 760 983 777 966.5 c 128,-1,29
 794 950 794 950 798 926 c 0,30,31
 801 907 801 907 806.5 866 c 128,-1,32
 812 825 812 825 817.5 763 c 128,-1,33
 823 701 823 701 827 617 c 128,-1,34
 831 533 831 533 831 428 c 2,35,-1
 831 369 l 1,36,-1
 352 363 l 1,37,-1
 352 233 l 1,38,39
 406 220 406 220 464 210 c 128,-1,40
 522 200 522 200 583.5 190.5 c 128,-1,41
 645 181 645 181 710.5 170.5 c 128,-1,42
 776 160 776 160 845 147 c 1,43,-1
 786 -72 l 1,44,45
 710 -60 710 -60 625 -42 c 128,-1,46
 540 -24 540 -24 459.5 -4 c 128,-1,47
 379 16 379 16 311.5 35 c 128,-1,48
 244 54 244 54 202 67 c 0,49,50
 171 77 171 77 150.5 96 c 128,-1,51
 130 115 130 115 129 150 c 2,52,-1
 122 666 l 2,13,14
606 563 m 1,53,-1
 606 584 l 2,54,55
 606 638 606 638 600.5 688 c 128,-1,56
 595 738 595 738 587 782 c 1,57,58
 572 782 572 782 549 780.5 c 128,-1,59
 526 779 526 779 512 777 c 1,60,61
 499 774 499 774 475 767 c 128,-1,62
 451 760 451 760 426 751 c 128,-1,63
 401 742 401 742 379 732 c 128,-1,64
 357 722 357 722 348 715 c 1,65,-1
 348 535 l 1,66,-1
 606 563 l 1,53,-1
EndSplineSet
EndChar

StartChar: eacute
Encoding: 233 233 154
Width: 958
Flags: W
LayerCount: 2
Fore
SplineSet
235 1220 m 1,0,-1
 524 1589 l 1,1,-1
 698 1425 l 1,2,3
 676 1393 676 1393 637.5 1352 c 128,-1,4
 599 1311 599 1311 551 1270 c 0,5,6
 523 1246 523 1246 494 1223 c 128,-1,7
 465 1200 465 1200 438 1180 c 128,-1,8
 411 1160 411 1160 386.5 1144 c 128,-1,9
 362 1128 362 1128 343 1117 c 1,10,-1
 235 1220 l 1,0,-1
122 666 m 2,11,12
 122 681 122 681 122.5 704.5 c 128,-1,13
 123 728 123 728 126 751 c 128,-1,14
 129 774 129 774 135 794 c 128,-1,15
 141 814 141 814 153 823 c 0,16,17
 177 842 177 842 212.5 863.5 c 128,-1,18
 248 885 248 885 290 906 c 128,-1,19
 332 927 332 927 377.5 946 c 128,-1,20
 423 965 423 965 467 980 c 128,-1,21
 511 995 511 995 552 1003.5 c 128,-1,22
 593 1012 593 1012 626 1012 c 0,23,24
 654 1012 654 1012 683 1007.5 c 128,-1,25
 712 1003 712 1003 736 993 c 128,-1,26
 760 983 760 983 777 966.5 c 128,-1,27
 794 950 794 950 798 926 c 0,28,29
 801 907 801 907 806.5 866 c 128,-1,30
 812 825 812 825 817.5 763 c 128,-1,31
 823 701 823 701 827 617 c 128,-1,32
 831 533 831 533 831 428 c 2,33,-1
 831 369 l 1,34,-1
 352 363 l 1,35,-1
 352 233 l 1,36,37
 406 220 406 220 464 210 c 128,-1,38
 522 200 522 200 583.5 190.5 c 128,-1,39
 645 181 645 181 710.5 170.5 c 128,-1,40
 776 160 776 160 845 147 c 1,41,-1
 786 -72 l 1,42,43
 710 -60 710 -60 625 -42 c 128,-1,44
 540 -24 540 -24 459.5 -4 c 128,-1,45
 379 16 379 16 311.5 35 c 128,-1,46
 244 54 244 54 202 67 c 0,47,48
 171 77 171 77 150.5 96 c 128,-1,49
 130 115 130 115 129 150 c 2,50,-1
 122 666 l 2,11,12
606 563 m 1,51,-1
 606 584 l 2,52,53
 606 638 606 638 600.5 688 c 128,-1,54
 595 738 595 738 587 782 c 1,55,56
 572 782 572 782 549 780.5 c 128,-1,57
 526 779 526 779 512 777 c 1,58,59
 499 774 499 774 475 767 c 128,-1,60
 451 760 451 760 426 751 c 128,-1,61
 401 742 401 742 379 732 c 128,-1,62
 357 722 357 722 348 715 c 1,63,-1
 348 535 l 1,64,-1
 606 563 l 1,51,-1
EndSplineSet
EndChar

StartChar: ecircumflex
Encoding: 234 234 155
Width: 958
Flags: W
LayerCount: 2
Fore
SplineSet
153 1232 m 1,0,-1
 377 1529 l 1,1,-1
 567 1535 l 1,2,-1
 798 1230 l 1,3,-1
 674 1134 l 1,4,5
 645 1158 645 1158 620.5 1178 c 128,-1,6
 596 1198 596 1198 572 1218.5 c 128,-1,7
 548 1239 548 1239 522 1262.5 c 128,-1,8
 496 1286 496 1286 465 1316 c 1,9,10
 415 1262 415 1262 365 1217 c 128,-1,11
 315 1172 315 1172 262 1134 c 1,12,-1
 153 1232 l 1,0,-1
122 666 m 2,13,14
 122 681 122 681 122.5 704.5 c 128,-1,15
 123 728 123 728 126 751 c 128,-1,16
 129 774 129 774 135 794 c 128,-1,17
 141 814 141 814 153 823 c 0,18,19
 177 842 177 842 212.5 863.5 c 128,-1,20
 248 885 248 885 290 906 c 128,-1,21
 332 927 332 927 377.5 946 c 128,-1,22
 423 965 423 965 467 980 c 128,-1,23
 511 995 511 995 552 1003.5 c 128,-1,24
 593 1012 593 1012 626 1012 c 0,25,26
 654 1012 654 1012 683 1007.5 c 128,-1,27
 712 1003 712 1003 736 993 c 128,-1,28
 760 983 760 983 777 966.5 c 128,-1,29
 794 950 794 950 798 926 c 0,30,31
 801 907 801 907 806.5 866 c 128,-1,32
 812 825 812 825 817.5 763 c 128,-1,33
 823 701 823 701 827 617 c 128,-1,34
 831 533 831 533 831 428 c 2,35,-1
 831 369 l 1,36,-1
 352 363 l 1,37,-1
 352 233 l 1,38,39
 406 220 406 220 464 210 c 128,-1,40
 522 200 522 200 583.5 190.5 c 128,-1,41
 645 181 645 181 710.5 170.5 c 128,-1,42
 776 160 776 160 845 147 c 1,43,-1
 786 -72 l 1,44,45
 710 -60 710 -60 625 -42 c 128,-1,46
 540 -24 540 -24 459.5 -4 c 128,-1,47
 379 16 379 16 311.5 35 c 128,-1,48
 244 54 244 54 202 67 c 0,49,50
 171 77 171 77 150.5 96 c 128,-1,51
 130 115 130 115 129 150 c 2,52,-1
 122 666 l 2,13,14
606 563 m 1,53,-1
 606 584 l 2,54,55
 606 638 606 638 600.5 688 c 128,-1,56
 595 738 595 738 587 782 c 1,57,58
 572 782 572 782 549 780.5 c 128,-1,59
 526 779 526 779 512 777 c 1,60,61
 499 774 499 774 475 767 c 128,-1,62
 451 760 451 760 426 751 c 128,-1,63
 401 742 401 742 379 732 c 128,-1,64
 357 722 357 722 348 715 c 1,65,-1
 348 535 l 1,66,-1
 606 563 l 1,53,-1
EndSplineSet
EndChar

StartChar: edieresis
Encoding: 235 235 156
Width: 958
Flags: W
LayerCount: 2
Fore
SplineSet
186 1156 m 1,0,1
 181 1199 181 1199 176.5 1233 c 128,-1,2
 172 1267 172 1267 167 1295.5 c 128,-1,3
 162 1324 162 1324 156.5 1349 c 128,-1,4
 151 1374 151 1374 145 1398 c 1,5,-1
 362 1453 l 1,6,7
 371 1438 371 1438 377.5 1416 c 128,-1,8
 384 1394 384 1394 388.5 1368 c 128,-1,9
 393 1342 393 1342 395 1314.5 c 128,-1,10
 397 1287 397 1287 397 1262 c 0,11,12
 397 1230 397 1230 393.5 1204 c 128,-1,13
 390 1178 390 1178 384 1167 c 1,14,-1
 186 1156 l 1,0,1
519 1177 m 1,15,16
 527 1212 527 1212 532 1258 c 128,-1,17
 537 1304 537 1304 537 1349 c 0,18,19
 537 1371 537 1371 535.5 1390.5 c 128,-1,20
 534 1410 534 1410 532 1427 c 1,21,-1
 755 1443 l 1,22,23
 763 1426 763 1426 766.5 1403 c 128,-1,24
 770 1380 770 1380 770 1354 c 0,25,26
 770 1324 770 1324 765.5 1291.5 c 128,-1,27
 761 1259 761 1259 754.5 1230 c 128,-1,28
 748 1201 748 1201 739.5 1178 c 128,-1,29
 731 1155 731 1155 722 1142 c 1,30,-1
 519 1177 l 1,15,16
122 666 m 2,31,32
 122 681 122 681 122.5 704.5 c 128,-1,33
 123 728 123 728 126 751 c 128,-1,34
 129 774 129 774 135 794 c 128,-1,35
 141 814 141 814 153 823 c 0,36,37
 177 842 177 842 212.5 863.5 c 128,-1,38
 248 885 248 885 290 906 c 128,-1,39
 332 927 332 927 377.5 946 c 128,-1,40
 423 965 423 965 467 980 c 128,-1,41
 511 995 511 995 552 1003.5 c 128,-1,42
 593 1012 593 1012 626 1012 c 0,43,44
 654 1012 654 1012 683 1007.5 c 128,-1,45
 712 1003 712 1003 736 993 c 128,-1,46
 760 983 760 983 777 966.5 c 128,-1,47
 794 950 794 950 798 926 c 0,48,49
 801 907 801 907 806.5 866 c 128,-1,50
 812 825 812 825 817.5 763 c 128,-1,51
 823 701 823 701 827 617 c 128,-1,52
 831 533 831 533 831 428 c 2,53,-1
 831 369 l 1,54,-1
 352 363 l 1,55,-1
 352 233 l 1,56,57
 406 220 406 220 464 210 c 128,-1,58
 522 200 522 200 583.5 190.5 c 128,-1,59
 645 181 645 181 710.5 170.5 c 128,-1,60
 776 160 776 160 845 147 c 1,61,-1
 786 -72 l 1,62,63
 710 -60 710 -60 625 -42 c 128,-1,64
 540 -24 540 -24 459.5 -4 c 128,-1,65
 379 16 379 16 311.5 35 c 128,-1,66
 244 54 244 54 202 67 c 0,67,68
 171 77 171 77 150.5 96 c 128,-1,69
 130 115 130 115 129 150 c 2,70,-1
 122 666 l 2,31,32
606 563 m 1,71,-1
 606 584 l 2,72,73
 606 638 606 638 600.5 688 c 128,-1,74
 595 738 595 738 587 782 c 1,75,76
 572 782 572 782 549 780.5 c 128,-1,77
 526 779 526 779 512 777 c 1,78,79
 499 774 499 774 475 767 c 128,-1,80
 451 760 451 760 426 751 c 128,-1,81
 401 742 401 742 379 732 c 128,-1,82
 357 722 357 722 348 715 c 1,83,-1
 348 535 l 1,84,-1
 606 563 l 1,71,-1
EndSplineSet
EndChar

